<?xml version="1.0" encoding="utf-8"?>
<!-- Generator: Adobe Illustrator 23.0.4, SVG Export Plug-In . SVG Version: 6.00 Build 0)  -->
<svg version="1.1" id="Layer_1" xmlns="http://www.w3.org/2000/svg" xmlns:xlink="http://www.w3.org/1999/xlink" x="0px" y="0px"
	 viewBox="0 0 407 471.3" style="enable-background:new 0 0 407 471.3;" xml:space="preserve">
<style type="text/css">
	.st0{clip-path:url(#SVGID_2_);}
	.st1{clip-path:url(#SVGID_2_);fill:none;stroke:#000000;stroke-width:0.8;stroke-linejoin:round;stroke-miterlimit:10;}
	
		.st2{clip-path:url(#SVGID_4_);fill:none;stroke:#FF7F00;stroke-width:5;stroke-linecap:square;stroke-linejoin:round;stroke-miterlimit:10;}
	
		.st3{clip-path:url(#SVGID_6_);fill:none;stroke:#E31A1C;stroke-width:5;stroke-linecap:square;stroke-linejoin:round;stroke-miterlimit:10;}
	
		.st4{clip-path:url(#SVGID_8_);fill:none;stroke:#FB9A99;stroke-width:5;stroke-linecap:square;stroke-linejoin:round;stroke-miterlimit:10;}
	
		.st5{clip-path:url(#SVGID_10_);fill:none;stroke:#984EA3;stroke-width:5;stroke-linecap:square;stroke-linejoin:round;stroke-miterlimit:10;}
	
		.st6{clip-path:url(#SVGID_12_);fill:none;stroke:#1F78B4;stroke-width:5;stroke-linecap:square;stroke-linejoin:round;stroke-miterlimit:10;}
	
		.st7{clip-path:url(#SVGID_14_);fill:none;stroke:#A6CEE3;stroke-width:5;stroke-linecap:square;stroke-linejoin:round;stroke-miterlimit:10;}
	
		.st8{clip-path:url(#SVGID_16_);fill:none;stroke:#FFFFB3;stroke-width:5;stroke-linecap:square;stroke-linejoin:round;stroke-miterlimit:10;}
	
		.st9{clip-path:url(#SVGID_18_);fill:none;stroke:#DECBE4;stroke-width:5;stroke-linecap:square;stroke-linejoin:round;stroke-miterlimit:10;}
	
		.st10{clip-path:url(#SVGID_20_);fill:none;stroke:#E5D8BD;stroke-width:5;stroke-linecap:square;stroke-linejoin:round;stroke-miterlimit:10;}
	
		.st11{clip-path:url(#SVGID_22_);fill:none;stroke:#D9D9D9;stroke-width:5;stroke-linecap:square;stroke-linejoin:round;stroke-miterlimit:10;}
	.st12{clip-path:url(#SVGID_2_);fill:none;stroke:#000000;stroke-width:0.8;stroke-linecap:square;stroke-miterlimit:10;}
	.st13{opacity:0.8;fill:#FFFFFF;}
	.st14{opacity:0.8;fill:none;stroke:#CCCCCC;stroke-miterlimit:10;}
	
		.st15{clip-path:url(#SVGID_2_);fill:none;stroke:#FF7F00;stroke-width:5;stroke-linecap:square;stroke-linejoin:round;stroke-miterlimit:10;}
	
		.st16{clip-path:url(#SVGID_2_);fill:none;stroke:#E31A1C;stroke-width:5;stroke-linecap:square;stroke-linejoin:round;stroke-miterlimit:10;}
	
		.st17{clip-path:url(#SVGID_2_);fill:none;stroke:#FB9A99;stroke-width:5;stroke-linecap:square;stroke-linejoin:round;stroke-miterlimit:10;}
	
		.st18{clip-path:url(#SVGID_2_);fill:none;stroke:#984EA3;stroke-width:5;stroke-linecap:square;stroke-linejoin:round;stroke-miterlimit:10;}
	
		.st19{clip-path:url(#SVGID_2_);fill:none;stroke:#1F78B4;stroke-width:5;stroke-linecap:square;stroke-linejoin:round;stroke-miterlimit:10;}
	
		.st20{clip-path:url(#SVGID_2_);fill:none;stroke:#A6CEE3;stroke-width:5;stroke-linecap:square;stroke-linejoin:round;stroke-miterlimit:10;}
	
		.st21{clip-path:url(#SVGID_2_);fill:none;stroke:#FFFFB3;stroke-width:5;stroke-linecap:square;stroke-linejoin:round;stroke-miterlimit:10;}
	
		.st22{clip-path:url(#SVGID_2_);fill:none;stroke:#DECBE4;stroke-width:5;stroke-linecap:square;stroke-linejoin:round;stroke-miterlimit:10;}
	
		.st23{clip-path:url(#SVGID_2_);fill:none;stroke:#E5D8BD;stroke-width:5;stroke-linecap:square;stroke-linejoin:round;stroke-miterlimit:10;}
	
		.st24{clip-path:url(#SVGID_2_);fill:none;stroke:#D9D9D9;stroke-width:5;stroke-linecap:square;stroke-linejoin:round;stroke-miterlimit:10;}
	.st25{fill:none;}
	.st26{font-family:'MyriadPro-Regular';}
	.st27{font-size:12px;}
</style>
<g>
	<defs>
		<rect id="SVGID_1_" width="411.1" height="456.3"/>
	</defs>
	<clipPath id="SVGID_2_">
		<use xlink:href="#SVGID_1_"  style="overflow:visible;"/>
	</clipPath>
	<line class="st0" x1="33.3" y1="393.7" x2="29.8" y2="393.7"/>
	<line class="st1" x1="33.3" y1="393.7" x2="29.8" y2="393.7"/>
	<path class="st0" d="M17.1,390.2h1.2v4.7h1v0.8h-1v1.7h-1v-1.7H14v-0.9L17.1,390.2 M17.3,391.1l-2.5,3.9h2.5V391.1"/>
	<path class="st0" d="M23.1,390.1c0.8,0,1.4,0.3,1.9,1c0.4,0.7,0.7,1.6,0.7,2.8c0,1.2-0.2,2.2-0.7,2.8c-0.4,0.6-1.1,1-1.9,1
		c-0.8,0-1.5-0.3-1.9-1c-0.4-0.6-0.6-1.6-0.6-2.8c0-1.2,0.2-2.2,0.6-2.8C21.6,390.4,22.3,390.1,23.1,390.1 M23.1,390.8
		c-0.5,0-0.9,0.2-1.1,0.8s-0.4,1.3-0.4,2.3s0.1,1.8,0.4,2.2s0.6,0.8,1.1,0.8s0.9-0.2,1.1-0.8c0.2-0.5,0.4-1.2,0.4-2.2
		s-0.1-1.8-0.4-2.3C24,391.1,23.6,390.8,23.1,390.8"/>
	<line class="st0" x1="33.3" y1="336.8" x2="29.8" y2="336.8"/>
	<line class="st1" x1="33.3" y1="336.8" x2="29.8" y2="336.8"/>
	<path class="st0" d="M14.6,333.4h3.9v0.8h-3v1.8c0.1-0.1,0.3-0.1,0.4-0.1c0.1,0,0.3,0,0.4,0c0.8,0,1.4,0.2,1.9,0.7
		c0.5,0.5,0.7,1.1,0.7,1.8c0,0.8-0.2,1.4-0.7,1.8c-0.5,0.4-1.2,0.6-2.1,0.6c-0.3,0-0.6,0-0.9-0.1c-0.3,0-0.6-0.1-1-0.2v-1
		c0.3,0.2,0.6,0.3,0.9,0.4c0.3,0.1,0.6,0.1,1,0.1c0.6,0,1-0.1,1.3-0.4c0.3-0.3,0.5-0.7,0.5-1.2c0-0.5-0.2-0.9-0.5-1.2
		c-0.3-0.3-0.8-0.5-1.3-0.5c-0.3,0-0.5,0-0.8,0.1s-0.5,0.1-0.8,0.3V333.4"/>
	<path class="st0" d="M23.1,333.2c0.8,0,1.4,0.3,1.9,1c0.4,0.6,0.7,1.6,0.7,2.8c0,1.2-0.2,2.2-0.7,2.8c-0.4,0.6-1.1,1-1.9,1
		c-0.8,0-1.5-0.3-1.9-1c-0.4-0.6-0.6-1.6-0.6-2.8c0-1.2,0.2-2.2,0.6-2.8C21.6,333.6,22.3,333.2,23.1,333.2 M23.1,334
		c-0.5,0-0.9,0.2-1.1,0.8s-0.4,1.2-0.4,2.2s0.1,1.8,0.4,2.2s0.6,0.8,1.1,0.8s0.9-0.2,1.1-0.8c0.2-0.5,0.4-1.2,0.4-2.2
		s-0.1-1.8-0.4-2.2C24,334.3,23.6,334,23.1,334"/>
	<line class="st0" x1="33.3" y1="280" x2="29.8" y2="280"/>
	<line class="st1" x1="33.3" y1="280" x2="29.8" y2="280"/>
	<path class="st0" d="M18.8,276.7v0.9c-0.2-0.1-0.5-0.2-0.8-0.3c-0.3-0.1-0.5-0.1-0.8-0.1c-0.7,0-1.2,0.2-1.5,0.7
		c-0.3,0.4-0.5,1.1-0.6,2c0.2-0.3,0.4-0.5,0.7-0.6c0.3-0.2,0.6-0.2,1-0.2c0.7,0,1.3,0.2,1.7,0.7c0.4,0.4,0.6,1,0.6,1.8
		c0,0.8-0.2,1.3-0.7,1.8s-1,0.7-1.8,0.7c-0.8,0-1.5-0.3-1.9-1c-0.4-0.6-0.7-1.6-0.7-2.8c0-1.1,0.3-2.1,0.8-2.8c0.5-0.7,1.3-1,2.2-1
		c0.2,0,0.5,0,0.8,0.1C18.3,276.5,18.5,276.6,18.8,276.7 M16.9,279.8c-0.4,0-0.8,0.2-1.1,0.5c-0.3,0.3-0.4,0.7-0.4,1.2
		c0,0.5,0.1,0.9,0.4,1.2c0.3,0.3,0.6,0.4,1.1,0.4s0.8-0.1,1-0.4c0.3-0.3,0.4-0.7,0.4-1.2c0-0.5-0.1-0.9-0.4-1.2
		C17.6,279.9,17.3,279.8,16.9,279.8"/>
	<path class="st0" d="M23.1,276.4c0.8,0,1.4,0.3,1.9,1c0.4,0.6,0.7,1.6,0.7,2.8c0,1.2-0.2,2.2-0.7,2.8c-0.4,0.6-1.1,1-1.9,1
		c-0.8,0-1.5-0.3-1.9-1c-0.4-0.6-0.6-1.6-0.6-2.8c0-1.2,0.2-2.2,0.6-2.8C21.6,276.7,22.3,276.4,23.1,276.4 M23.1,277.2
		c-0.5,0-0.9,0.2-1.1,0.8s-0.4,1.2-0.4,2.2s0.1,1.8,0.4,2.2s0.6,0.8,1.1,0.8s0.9-0.2,1.1-0.8c0.2-0.5,0.4-1.2,0.4-2.2
		s-0.1-1.8-0.4-2.2C24,277.4,23.6,277.2,23.1,277.2"/>
	<line class="st0" x1="33.3" y1="223.2" x2="29.8" y2="223.2"/>
	<line class="st1" x1="33.3" y1="223.2" x2="29.8" y2="223.2"/>
	<polyline class="st0" points="14.4,219.7 19.1,219.7 19.1,220.1 16.4,227 15.4,227 17.9,220.5 14.4,220.5 14.4,219.7 	"/>
	<path class="st0" d="M23.1,219.5c0.8,0,1.4,0.3,1.9,1c0.4,0.6,0.7,1.6,0.7,2.8c0,1.2-0.2,2.2-0.7,2.8c-0.4,0.6-1.1,1-1.9,1
		c-0.8,0-1.5-0.3-1.9-1c-0.4-0.6-0.6-1.6-0.6-2.8c0-1.2,0.2-2.2,0.6-2.8C21.6,219.9,22.3,219.5,23.1,219.5 M23.1,220.3
		c-0.5,0-0.9,0.2-1.1,0.8s-0.4,1.2-0.4,2.2s0.1,1.8,0.4,2.2s0.6,0.8,1.1,0.8s0.9-0.2,1.1-0.8c0.2-0.5,0.4-1.2,0.4-2.2
		s-0.1-1.8-0.4-2.2C24,220.6,23.6,220.3,23.1,220.3"/>
	<line class="st0" x1="33.3" y1="166.3" x2="29.8" y2="166.3"/>
	<line class="st1" x1="33.3" y1="166.3" x2="29.8" y2="166.3"/>
	<path class="st0" d="M15.4,164.7c0,0.4,0.1,0.7,0.4,0.9c0.2,0.2,0.6,0.3,1,0.3c0.4,0,0.8-0.1,1-0.3c0.2-0.2,0.4-0.5,0.4-0.9
		s-0.1-0.7-0.4-0.9c-0.2-0.2-0.6-0.3-1-0.3c-0.4,0-0.8,0.1-1,0.3S15.4,164.3,15.4,164.7 M15.7,166.2c-0.4-0.1-0.8-0.3-1-0.6
		s-0.3-0.6-0.3-1.1c0-0.6,0.2-1,0.6-1.4c0.4-0.3,1-0.5,1.7-0.5c0.7,0,1.3,0.2,1.7,0.5c0.4,0.3,0.6,0.8,0.6,1.4
		c0,0.4-0.1,0.8-0.4,1.1s-0.6,0.5-1,0.6c0.5,0.1,0.8,0.3,1.1,0.6c0.3,0.3,0.4,0.7,0.4,1.2c0,0.7-0.2,1.2-0.7,1.6
		c-0.4,0.4-1,0.6-1.8,0.6c-0.8,0-1.4-0.2-1.9-0.6c-0.4-0.4-0.6-0.9-0.6-1.6c0-0.5,0.1-0.9,0.4-1.2C14.9,166.6,15.3,166.4,15.7,166.2
		 M16.7,166.7c-0.5,0-0.8,0.1-1.1,0.4c-0.3,0.2-0.4,0.6-0.4,1s0.1,0.8,0.4,1c0.3,0.2,0.6,0.4,1.1,0.4c0.5,0,0.8-0.1,1.1-0.4
		c0.3-0.2,0.4-0.6,0.4-1s-0.1-0.8-0.4-1C17.6,166.8,17.2,166.7,16.7,166.7"/>
	<path class="st0" d="M23.1,162.7c0.8,0,1.4,0.3,1.9,1c0.4,0.7,0.7,1.6,0.7,2.8c0,1.2-0.2,2.2-0.7,2.8c-0.4,0.6-1.1,1-1.9,1
		c-0.8,0-1.5-0.3-1.9-1c-0.4-0.6-0.6-1.6-0.6-2.8c0-1.2,0.2-2.2,0.6-2.8C21.6,163,22.3,162.7,23.1,162.7 M23.1,163.5
		c-0.5,0-0.9,0.2-1.1,0.8s-0.4,1.2-0.4,2.2s0.1,1.8,0.4,2.2s0.6,0.8,1.1,0.8s0.9-0.2,1.1-0.8c0.2-0.5,0.4-1.2,0.4-2.2
		s-0.1-1.8-0.4-2.2C24,163.7,23.6,163.5,23.1,163.5"/>
	<line class="st0" x1="33.3" y1="109.5" x2="29.8" y2="109.5"/>
	<line class="st1" x1="33.3" y1="109.5" x2="29.8" y2="109.5"/>
	<path class="st0" d="M16.6,110c0.4,0,0.8-0.2,1-0.5s0.4-0.7,0.4-1.2c0-0.5-0.1-0.9-0.4-1.2c-0.3-0.3-0.6-0.5-1-0.5
		s-0.8,0.2-1.1,0.5c-0.3,0.3-0.4,0.7-0.4,1.2c0,0.5,0.1,1,0.4,1.2S16.2,110,16.6,110 M14.7,113.1v-0.9c0.2,0.1,0.5,0.2,0.8,0.3
		c0.2,0.1,0.5,0.1,0.7,0.1c0.6,0,1.1-0.2,1.5-0.6c0.3-0.4,0.5-1.1,0.6-2c-0.2,0.3-0.4,0.5-0.7,0.6c-0.3,0.1-0.6,0.2-1,0.2
		c-0.7,0-1.3-0.2-1.7-0.7s-0.6-1-0.6-1.8c0-0.7,0.2-1.3,0.7-1.8c0.4-0.5,1-0.7,1.8-0.7c0.8,0,1.5,0.3,1.9,1c0.4,0.7,0.7,1.6,0.7,2.8
		c0,1.2-0.3,2.1-0.8,2.8c-0.6,0.7-1.3,1-2.2,1c-0.2,0-0.5,0-0.8-0.1C15.2,113.3,14.9,113.2,14.7,113.1"/>
	<path class="st0" d="M23.1,105.9c0.8,0,1.4,0.3,1.9,1c0.4,0.7,0.7,1.6,0.7,2.8c0,1.2-0.2,2.2-0.7,2.8c-0.4,0.6-1.1,1-1.9,1
		c-0.8,0-1.5-0.3-1.9-1c-0.4-0.6-0.6-1.6-0.6-2.8c0-1.2,0.2-2.2,0.6-2.8C21.6,106.2,22.3,105.9,23.1,105.9 M23.1,106.6
		c-0.5,0-0.9,0.2-1.1,0.8s-0.4,1.2-0.4,2.2s0.1,1.8,0.4,2.2s0.6,0.8,1.1,0.8s0.9-0.2,1.1-0.8c0.2-0.5,0.4-1.2,0.4-2.2
		s-0.1-1.8-0.4-2.2C24,106.9,23.6,106.6,23.1,106.6"/>
	<line class="st0" x1="33.3" y1="52.7" x2="29.8" y2="52.7"/>
	<line class="st1" x1="33.3" y1="52.7" x2="29.8" y2="52.7"/>
	<polyline class="st0" points="8.4,55.6 10.1,55.6 10.1,50.1 8.3,50.4 8.3,49.5 10,49.2 11,49.2 11,55.6 12.6,55.6 12.6,56.4 
		8.4,56.4 8.4,55.6 	"/>
	<path class="st0" d="M16.7,49c0.8,0,1.4,0.3,1.9,1c0.4,0.7,0.6,1.6,0.6,2.8c0,1.2-0.2,2.2-0.6,2.8c-0.4,0.6-1.1,1-1.9,1
		c-0.8,0-1.5-0.3-1.9-1c-0.4-0.6-0.6-1.6-0.6-2.8c0-1.2,0.2-2.2,0.6-2.8C15.3,49.4,15.9,49,16.7,49 M16.7,49.8
		c-0.5,0-0.9,0.2-1.2,0.8c-0.3,0.5-0.4,1.2-0.4,2.2s0.1,1.8,0.4,2.2c0.3,0.5,0.6,0.8,1.2,0.8c0.5,0,0.9-0.2,1.1-0.8
		c0.2-0.5,0.4-1.2,0.4-2.2s-0.1-1.8-0.4-2.2C17.6,50.1,17.3,49.8,16.7,49.8"/>
	<path class="st0" d="M23.1,49c0.8,0,1.4,0.3,1.9,1c0.4,0.7,0.7,1.6,0.7,2.8c0,1.2-0.2,2.2-0.7,2.8c-0.4,0.6-1.1,1-1.9,1
		c-0.8,0-1.5-0.3-1.9-1c-0.4-0.6-0.6-1.6-0.6-2.8c0-1.2,0.2-2.2,0.6-2.8C21.7,49.4,22.3,49,23.1,49 M23.1,49.8
		c-0.5,0-0.9,0.2-1.1,0.8s-0.4,1.2-0.4,2.2s0.1,1.8,0.4,2.2s0.6,0.8,1.1,0.8s0.9-0.2,1.1-0.8c0.2-0.5,0.4-1.2,0.4-2.2
		s-0.1-1.8-0.4-2.2C24,50.1,23.6,49.8,23.1,49.8"/>
	<g class="st0">
		<defs>
			<rect id="SVGID_3_" x="33.3" y="10.7" width="279" height="434.9"/>
		</defs>
		<clipPath id="SVGID_4_">
			<use xlink:href="#SVGID_3_"  style="overflow:visible;"/>
		</clipPath>
		<line class="st2" x1="33.3" y1="113" x2="312.3" y2="30.5"/>
	</g>
	<g class="st0">
		<defs>
			<rect id="SVGID_5_" x="33.3" y="10.7" width="279" height="434.9"/>
		</defs>
		<clipPath id="SVGID_6_">
			<use xlink:href="#SVGID_5_"  style="overflow:visible;"/>
		</clipPath>
		<line class="st3" x1="33.3" y1="316.5" x2="312.3" y2="76.6"/>
	</g>
	<g class="st0">
		<defs>
			<rect id="SVGID_7_" x="33.3" y="10.7" width="279" height="434.9"/>
		</defs>
		<clipPath id="SVGID_8_">
			<use xlink:href="#SVGID_7_"  style="overflow:visible;"/>
		</clipPath>
		<line class="st4" x1="33.3" y1="425.8" x2="312.3" y2="119.5"/>
	</g>
	<g class="st0">
		<defs>
			<rect id="SVGID_9_" x="33.3" y="10.7" width="279" height="434.9"/>
		</defs>
		<clipPath id="SVGID_10_">
			<use xlink:href="#SVGID_9_"  style="overflow:visible;"/>
		</clipPath>
		<line class="st5" x1="33.3" y1="241.2" x2="312.3" y2="135.6"/>
	</g>
	<g class="st0">
		<defs>
			<rect id="SVGID_11_" x="33.3" y="10.7" width="279" height="434.9"/>
		</defs>
		<clipPath id="SVGID_12_">
			<use xlink:href="#SVGID_11_"  style="overflow:visible;"/>
		</clipPath>
		<line class="st6" x1="33.3" y1="269.2" x2="312.3" y2="140.4"/>
	</g>
	<g class="st0">
		<defs>
			<rect id="SVGID_13_" x="33.3" y="10.7" width="279" height="434.9"/>
		</defs>
		<clipPath id="SVGID_14_">
			<use xlink:href="#SVGID_13_"  style="overflow:visible;"/>
		</clipPath>
		<line class="st7" x1="33.3" y1="188.1" x2="312.3" y2="167.3"/>
	</g>
	<g class="st0">
		<defs>
			<rect id="SVGID_15_" x="33.3" y="10.7" width="279" height="434.9"/>
		</defs>
		<clipPath id="SVGID_16_">
			<use xlink:href="#SVGID_15_"  style="overflow:visible;"/>
		</clipPath>
		<line class="st8" x1="33.3" y1="234.1" x2="312.3" y2="177.6"/>
	</g>
	<g class="st0">
		<defs>
			<rect id="SVGID_17_" x="33.3" y="10.7" width="279" height="434.9"/>
		</defs>
		<clipPath id="SVGID_18_">
			<use xlink:href="#SVGID_17_"  style="overflow:visible;"/>
		</clipPath>
		<line class="st9" x1="33.3" y1="353.7" x2="312.3" y2="208"/>
	</g>
	<g class="st0">
		<defs>
			<rect id="SVGID_19_" x="33.3" y="10.7" width="279" height="434.9"/>
		</defs>
		<clipPath id="SVGID_20_">
			<use xlink:href="#SVGID_19_"  style="overflow:visible;"/>
		</clipPath>
		<line class="st10" x1="33.3" y1="280.5" x2="312.3" y2="226.2"/>
	</g>
	<g class="st0">
		<defs>
			<rect id="SVGID_21_" x="33.3" y="10.7" width="279" height="434.9"/>
		</defs>
		<clipPath id="SVGID_22_">
			<use xlink:href="#SVGID_21_"  style="overflow:visible;"/>
		</clipPath>
		<line class="st11" x1="33.3" y1="349.4" x2="312.3" y2="231.6"/>
	</g>
	<line class="st12" x1="33.3" y1="445.6" x2="33.3" y2="10.7"/>
	<line class="st12" x1="312.3" y1="445.6" x2="312.3" y2="10.7"/>
	<line class="st12" x1="33.3" y1="445.6" x2="312.3" y2="445.6"/>
	<g class="st0">
		<path class="st13" d="M347.2,303h54.7c1.3,0,2-0.7,2-2V155.3c0-1.3-0.7-2-2-2h-54.7c-1.3,0-2,0.7-2,2V301
			C345.2,302.3,345.8,303,347.2,303z"/>
		<path class="st14" d="M347.2,303h54.7c1.3,0,2-0.7,2-2V155.3c0-1.3-0.7-2-2-2h-54.7c-1.3,0-2,0.7-2,2V301
			C345.2,302.3,345.8,303,347.2,303z"/>
	</g>
	<line class="st15" x1="349.2" y1="161.4" x2="369.2" y2="161.4"/>
	<path class="st0" d="M380,157.6h1.1l2.8,7.3h-1l-0.7-1.9H379l-0.7,1.9h-1L380,157.6 M380.6,158.6l-1.3,3.6h2.7L380.6,158.6"/>
	<polyline class="st0" points="384,157.6 390.2,157.6 390.2,158.4 387.6,158.4 387.6,164.9 386.6,164.9 386.6,158.4 384,158.4 
		384,157.6 	"/>
	<polyline class="st0" points="391.1,157.6 392.1,157.6 392.1,164 395.6,164 395.6,164.9 391.1,164.9 391.1,157.6 	"/>
	<line class="st16" x1="349.2" y1="176" x2="369.2" y2="176"/>
	<path class="st0" d="M378.2,172.3h2.2c0.8,0,1.4,0.2,1.9,0.6c0.4,0.4,0.6,0.9,0.6,1.6c0,0.7-0.2,1.3-0.6,1.6
		c-0.4,0.4-1,0.6-1.9,0.6h-1.2v2.9h-1V172.3 M379.1,173.1v2.7h1.2c0.5,0,0.8-0.1,1.1-0.4s0.4-0.6,0.4-1c0-0.4-0.1-0.8-0.4-1
		s-0.6-0.4-1.1-0.4H379.1"/>
	<polyline class="st0" points="384.2,172.3 388.8,172.3 388.8,173.1 385.2,173.1 385.2,175.2 388.6,175.2 388.6,176.1 385.2,176.1 
		385.2,178.7 388.9,178.7 388.9,179.5 384.2,179.5 384.2,172.3 	"/>
	<polyline class="st0" points="390.5,172.3 391.5,172.3 391.5,175.3 394.8,172.3 396,172.3 392.4,175.7 396.3,179.5 395,179.5 
		391.5,176 391.5,179.5 390.5,179.5 390.5,172.3 	"/>
	<line class="st17" x1="349.2" y1="190.7" x2="369.2" y2="190.7"/>
	<path class="st0" d="M378.2,186.9h2c1.4,0,2.4,0.3,3.1,0.9c0.7,0.6,1,1.5,1,2.8c0,1.3-0.3,2.2-1,2.8c-0.7,0.6-1.7,0.9-3.1,0.9h-2
		V186.9 M379.1,187.7v5.7h1.2c1,0,1.7-0.2,2.2-0.7c0.5-0.5,0.7-1.2,0.7-2.2c0-1-0.2-1.7-0.7-2.1c-0.5-0.5-1.2-0.7-2.2-0.7H379.1"/>
	<polyline class="st0" points="385.5,186.9 386.6,186.9 388.4,189.6 390.2,186.9 391.3,186.9 388.9,190.4 391.4,194.2 390.4,194.2 
		388.3,191.1 386.2,194.2 385.2,194.2 387.8,190.3 385.5,186.9 	"/>
	<path class="st0" d="M392.7,186.9h2.5c0.8,0,1.3,0.2,1.7,0.5c0.4,0.3,0.6,0.8,0.6,1.3c0,0.4-0.1,0.8-0.3,1.1
		c-0.2,0.3-0.5,0.4-0.9,0.5c0.5,0.1,0.9,0.3,1.1,0.7c0.3,0.3,0.4,0.7,0.4,1.2c0,0.7-0.2,1.2-0.7,1.5c-0.4,0.4-1.1,0.5-1.9,0.5h-2.6
		V186.9 M393.7,187.7v2.2h1.5c0.5,0,0.8-0.1,1.1-0.3c0.2-0.2,0.4-0.5,0.4-0.8c0-0.4-0.1-0.6-0.4-0.8c-0.2-0.2-0.6-0.3-1.1-0.3H393.7
		 M393.7,190.7v2.7h1.6c0.5,0,0.9-0.1,1.2-0.3c0.2-0.2,0.4-0.5,0.4-1c0-0.5-0.1-0.8-0.4-1c-0.3-0.2-0.7-0.3-1.2-0.3H393.7"/>
	<line class="st18" x1="349.2" y1="205.4" x2="369.2" y2="205.4"/>
	<polyline class="st0" points="378.2,201.6 379.1,201.6 379.1,204.6 382.7,204.6 382.7,201.6 383.7,201.6 383.7,208.9 382.7,208.9 
		382.7,205.4 379.1,205.4 379.1,208.9 378.2,208.9 378.2,201.6 	"/>
	<polyline class="st0" points="385.7,201.6 387,201.6 390.2,207.7 390.2,201.6 391.2,201.6 391.2,208.9 389.9,208.9 386.6,202.8 
		386.6,208.9 385.7,208.9 385.7,201.6 	"/>
	<path class="st0" d="M393.2,201.6h2c1.4,0,2.4,0.3,3.1,0.9c0.7,0.6,1,1.5,1,2.8c0,1.3-0.3,2.2-1,2.8c-0.7,0.6-1.7,0.9-3.1,0.9h-2
		V201.6 M394.1,202.4v5.7h1.2c1,0,1.7-0.2,2.2-0.7c0.5-0.5,0.7-1.2,0.7-2.2c0-1-0.2-1.7-0.7-2.2c-0.5-0.4-1.2-0.7-2.2-0.7H394.1"/>
	<line class="st19" x1="349.2" y1="220.1" x2="369.2" y2="220.1"/>
	<polyline class="st0" points="378.2,216.3 379.1,216.3 379.1,222.7 382.7,222.7 382.7,223.6 378.2,223.6 378.2,216.3 	"/>
	<path class="st0" d="M385.6,216.3h1.1l2.8,7.3h-1l-0.7-1.9h-3.3l-0.7,1.9h-1L385.6,216.3 M386.2,217.2l-1.3,3.6h2.7L386.2,217.2"/>
	<polyline class="st0" points="390.2,216.3 391.3,216.3 393.1,219 394.9,216.3 396,216.3 393.6,219.8 396.1,223.6 395.1,223.6 
		393,220.5 390.9,223.6 389.9,223.6 392.5,219.7 390.2,216.3 	"/>
	<line class="st20" x1="349.2" y1="234.7" x2="369.2" y2="234.7"/>
	<path class="st0" d="M381.1,230.8c1,0,1.8,0.3,2.5,1c0.6,0.7,0.9,1.6,0.9,2.8c0,1.2-0.3,2.1-0.9,2.8c-0.6,0.7-1.4,1-2.5,1
		c-1,0-1.9-0.3-2.5-1c-0.6-0.7-0.9-1.6-0.9-2.8c0-1.1,0.3-2.1,0.9-2.8C379.3,231.2,380.1,230.8,381.1,230.8 M381.1,231.6
		c-0.7,0-1.3,0.3-1.7,0.8c-0.4,0.5-0.6,1.3-0.6,2.2s0.2,1.6,0.6,2.2c0.4,0.5,1,0.8,1.7,0.8c0.7,0,1.3-0.3,1.7-0.8
		c0.4-0.5,0.6-1.3,0.6-2.2s-0.2-1.6-0.6-2.2C382.4,231.9,381.8,231.6,381.1,231.6"/>
	<path class="st0" d="M387,231.8v2.6h1.2c0.5,0,0.8-0.1,1.1-0.3s0.4-0.5,0.4-1c0-0.4-0.1-0.7-0.4-1c-0.2-0.2-0.6-0.3-1.1-0.3H387
		 M389.5,234.8c0.2,0.1,0.4,0.2,0.6,0.5c0.2,0.2,0.4,0.6,0.6,1l1,2h-1.1l-0.9-1.9c-0.2-0.5-0.5-0.8-0.7-1c-0.2-0.2-0.5-0.2-0.9-0.2
		H387v3.1h-1v-7.3h2.2c0.8,0,1.5,0.2,1.9,0.5c0.4,0.4,0.6,0.9,0.6,1.6c0,0.5-0.1,0.9-0.3,1.2C390.2,234.5,389.9,234.7,389.5,234.8"
		/>
	<path class="st0" d="M393,230.9h2c1.4,0,2.4,0.3,3.1,0.9c0.7,0.6,1,1.5,1,2.8c0,1.3-0.3,2.2-1,2.8c-0.7,0.6-1.7,0.9-3.1,0.9h-2
		V230.9 M394,231.8v5.7h1.2c1,0,1.7-0.2,2.2-0.7c0.5-0.5,0.7-1.2,0.7-2.2c0-1-0.2-1.7-0.7-2.2c-0.5-0.4-1.2-0.7-2.2-0.7H394"/>
	<line class="st21" x1="349.2" y1="249.4" x2="369.2" y2="249.4"/>
	<polyline class="st0" points="378.2,245.6 379.1,245.6 379.1,252.1 382.7,252.1 382.7,252.9 378.2,252.9 378.2,245.6 	"/>
	<polyline class="st0" points="383.7,245.6 384.7,245.6 384.7,248.6 388.3,248.6 388.3,245.6 389.3,245.6 389.3,252.9 388.3,252.9 
		388.3,249.4 384.7,249.4 384.7,252.9 383.7,252.9 383.7,245.6 	"/>
	<path class="st0" d="M392.2,246.4v2.6h1.2c0.5,0,0.8-0.1,1.1-0.3s0.4-0.5,0.4-1c0-0.4-0.1-0.7-0.4-1c-0.2-0.2-0.6-0.3-1.1-0.3
		H392.2 M394.7,249.5c0.2,0.1,0.4,0.2,0.6,0.5c0.2,0.2,0.4,0.6,0.6,1l1,2h-1.1l-0.9-1.9c-0.2-0.5-0.5-0.8-0.7-1
		c-0.2-0.2-0.5-0.2-0.9-0.2h-1.1v3.1h-1v-7.3h2.2c0.8,0,1.5,0.2,1.9,0.5c0.4,0.4,0.6,0.9,0.6,1.6c0,0.5-0.1,0.9-0.3,1.2
		C395.4,249.2,395.1,249.4,394.7,249.5"/>
	<line class="st22" x1="349.2" y1="264.1" x2="369.2" y2="264.1"/>
	<polyline class="st0" points="378.2,260.3 379.1,260.3 379.1,263.3 382.7,263.3 382.7,260.3 383.7,260.3 383.7,267.6 382.7,267.6 
		382.7,264.1 379.1,264.1 379.1,267.6 378.2,267.6 378.2,260.3 	"/>
	<polyline class="st0" points="385.7,260.3 386.7,260.3 386.7,263.4 389.9,260.3 391.2,260.3 387.6,263.7 391.5,267.6 390.2,267.6 
		386.7,264.1 386.7,267.6 385.7,267.6 385.7,260.3 	"/>
	<path class="st0" d="M397.2,266.5v-2h-1.6v-0.8h2.6v3.1c-0.4,0.3-0.8,0.5-1.3,0.6c-0.5,0.1-1,0.2-1.5,0.2c-1.1,0-2-0.3-2.7-1
		c-0.6-0.7-1-1.6-1-2.8c0-1.2,0.3-2.1,1-2.8c0.6-0.7,1.5-1,2.7-1c0.5,0,0.9,0.1,1.3,0.2c0.4,0.1,0.8,0.3,1.2,0.5v1
		c-0.4-0.3-0.8-0.5-1.2-0.7c-0.4-0.2-0.8-0.2-1.3-0.2c-0.9,0-1.6,0.2-2,0.8c-0.4,0.5-0.7,1.2-0.7,2.2c0,1,0.2,1.7,0.7,2.2
		c0.4,0.5,1.1,0.7,2,0.7c0.3,0,0.6,0,0.9-0.1S397,266.7,397.2,266.5"/>
	<line class="st23" x1="349.2" y1="278.7" x2="369.2" y2="278.7"/>
	<path class="st0" d="M383.6,275.5v1c-0.3-0.3-0.7-0.5-1.1-0.7c-0.4-0.2-0.8-0.2-1.2-0.2c-0.8,0-1.5,0.3-1.9,0.8s-0.7,1.2-0.7,2.2
		c0,1,0.2,1.7,0.7,2.2c0.4,0.5,1.1,0.8,1.9,0.8c0.4,0,0.8-0.1,1.2-0.2c0.4-0.1,0.7-0.4,1.1-0.7v1c-0.4,0.2-0.7,0.4-1.1,0.5
		s-0.8,0.2-1.2,0.2c-1.1,0-2-0.3-2.6-1c-0.6-0.7-1-1.6-1-2.8c0-1.2,0.3-2.1,1-2.8c0.6-0.7,1.5-1,2.6-1c0.4,0,0.9,0.1,1.2,0.2
		C382.9,275.1,383.3,275.3,383.6,275.5"/>
	<path class="st0" d="M385.1,275h2c1.4,0,2.4,0.3,3.1,0.9c0.7,0.6,1,1.5,1,2.8c0,1.3-0.3,2.2-1,2.8c-0.7,0.6-1.7,0.9-3.1,0.9h-2V275
		 M386.1,275.8v5.7h1.2c1,0,1.7-0.2,2.2-0.7c0.5-0.5,0.7-1.2,0.7-2.2c0-1-0.2-1.7-0.7-2.1c-0.5-0.4-1.2-0.7-2.2-0.7H386.1"/>
	<path class="st0" d="M397.8,281.2v-2h-1.6v-0.8h2.6v3.1c-0.4,0.3-0.8,0.5-1.3,0.6c-0.5,0.1-1,0.2-1.5,0.2c-1.1,0-2-0.3-2.7-1
		c-0.6-0.7-1-1.6-1-2.8c0-1.2,0.3-2.1,1-2.8c0.6-0.7,1.5-1,2.7-1c0.5,0,0.9,0.1,1.3,0.2c0.4,0.1,0.8,0.3,1.2,0.5v1
		c-0.4-0.3-0.8-0.5-1.2-0.7c-0.4-0.2-0.8-0.2-1.3-0.2c-0.9,0-1.6,0.2-2,0.8c-0.4,0.5-0.7,1.2-0.7,2.2c0,1,0.2,1.7,0.7,2.2
		c0.4,0.5,1.1,0.7,2,0.7c0.3,0,0.6,0,0.9-0.1S397.6,281.3,397.8,281.2"/>
	<line class="st24" x1="349.2" y1="293.4" x2="369.2" y2="293.4"/>
	<path class="st0" d="M380,289.6h1.1l2.8,7.3h-1l-0.7-1.9H379l-0.7,1.9h-1L380,289.6 M380.6,290.6l-1.3,3.6h2.7L380.6,290.6"/>
	<polyline class="st0" points="385,289.6 386.5,289.6 388.3,294.6 390.2,289.6 391.7,289.6 391.7,296.9 390.7,296.9 390.7,290.5 
		388.8,295.5 387.8,295.5 386,290.5 386,296.9 385,296.9 385,289.6 	"/>
	<path class="st0" d="M398,289.9v1c-0.4-0.2-0.7-0.3-1.1-0.4c-0.3-0.1-0.7-0.1-1-0.1c-0.5,0-1,0.1-1.2,0.3c-0.3,0.2-0.4,0.5-0.4,0.9
		c0,0.3,0.1,0.6,0.3,0.7c0.2,0.2,0.6,0.3,1.1,0.4l0.6,0.1c0.7,0.1,1.3,0.4,1.6,0.7c0.3,0.4,0.5,0.8,0.5,1.4c0,0.7-0.2,1.2-0.7,1.6
		c-0.5,0.4-1.2,0.5-2.1,0.5c-0.4,0-0.7,0-1.1-0.1c-0.4-0.1-0.8-0.2-1.2-0.3v-1c0.4,0.2,0.8,0.4,1.2,0.5c0.4,0.1,0.8,0.2,1.1,0.2
		c0.6,0,1-0.1,1.3-0.3c0.3-0.2,0.5-0.5,0.5-0.9c0-0.4-0.1-0.6-0.3-0.8c-0.2-0.2-0.6-0.3-1.1-0.4l-0.6-0.1c-0.7-0.1-1.3-0.4-1.6-0.7
		c-0.3-0.3-0.5-0.7-0.5-1.3c0-0.6,0.2-1.1,0.7-1.5c0.5-0.4,1.1-0.6,1.9-0.6c0.3,0,0.7,0,1,0.1C397.3,289.7,397.6,289.8,398,289.9"/>
</g>
<g>
	<defs>
		<rect id="SVGID_23_" y="778" width="469" height="15"/>
	</defs>
	<clipPath id="SVGID_24_">
		<use xlink:href="#SVGID_23_"  style="overflow:visible;"/>
	</clipPath>
	<g style="clip-path:url(#SVGID_24_);">
		<text transform="matrix(1 0 0 1 0 789)" class="st27" style="font-family:'TimesNewRomanPSMT';">!&quot;#!$&quot;#%&amp;&apos;&quot;%</text>
	</g>
</g>
<g>
	<defs>
		<rect id="SVGID_25_" y="778" width="469" height="15"/>
	</defs>
	<clipPath id="SVGID_26_">
		<use xlink:href="#SVGID_25_"  style="overflow:visible;"/>
	</clipPath>
	<g style="clip-path:url(#SVGID_26_);">
		<text transform="matrix(1 0 0 1 55.9629 789)" class="st27" style="font-family:'TimesNewRomanPSMT';">()</text>
	</g>
</g>
<g>
	<defs>
		<rect id="SVGID_27_" y="778" width="469" height="15"/>
	</defs>
	<clipPath id="SVGID_28_">
		<use xlink:href="#SVGID_27_"  style="overflow:visible;"/>
	</clipPath>
	<g style="clip-path:url(#SVGID_28_);">
		<text transform="matrix(1 0 0 1 67.9629 789)" class="st27" style="font-family:'TimesNewRomanPSMT';">*+!,-%.$+#/%</text>
	</g>
</g>
<g>
	<defs>
		<rect id="SVGID_29_" y="778" width="469" height="15"/>
	</defs>
	<clipPath id="SVGID_30_">
		<use xlink:href="#SVGID_29_"  style="overflow:visible;"/>
	</clipPath>
	<g style="clip-path:url(#SVGID_30_);">
		<text transform="matrix(1 0 0 1 137.2793 789)" class="st27" style="font-family:'TimesNewRomanPSMT';">,0%12#%/$+#%*#$&quot;</text>
	</g>
</g>
<g>
	<defs>
		<rect id="SVGID_31_" y="778" width="469" height="15"/>
	</defs>
	<clipPath id="SVGID_32_">
		<use xlink:href="#SVGID_31_"  style="overflow:visible;"/>
	</clipPath>
	<g style="clip-path:url(#SVGID_32_);">
		<text transform="matrix(1 0 0 1 215.5781 789)" class="st27" style="font-family:'TimesNewRomanPSMT';">%</text>
	</g>
</g>
<rect x="315" y="72.3" class="st25" width="65" height="31"/>
<text transform="matrix(1 0 0 1 315 80.8)" class="st26 st27">PEK</text>
<rect x="20.7" y="453" class="st25" width="40" height="10.5"/>
<text transform="matrix(1 0 0 1 20.7219 461.4995)" class="st26 st27">2007</text>
<rect x="295" y="453" class="st25" width="40" height="10.5"/>
<text transform="matrix(1 0 0 1 295 461.4995)" class="st26 st27">2017</text>
</svg>
