<?xml version="1.0" encoding="utf-8"?>
<!-- Generator: Adobe Illustrator 23.0.4, SVG Export Plug-In . SVG Version: 6.00 Build 0)  -->
<svg version="1.1" id="Layer_1" xmlns="http://www.w3.org/2000/svg" xmlns:xlink="http://www.w3.org/1999/xlink" x="0px" y="0px"
	 viewBox="0 0 1141.9 646.4" style="enable-background:new 0 0 1141.9 646.4;" xml:space="preserve">
<style type="text/css">
	.st0{clip-path:url(#SVGID_2_);fill:#FFFFFF;}
	.st1{clip-path:url(#SVGID_2_);}
	.st2{clip-path:url(#SVGID_2_);fill:none;stroke:#000000;stroke-width:0.8;stroke-linejoin:round;stroke-miterlimit:10;}
	
		.st3{clip-path:url(#SVGID_4_);fill:none;stroke:#1F77B4;stroke-width:5;stroke-linecap:square;stroke-linejoin:round;stroke-miterlimit:10;}
	.st4{clip-path:url(#SVGID_2_);fill:none;stroke:#000000;stroke-width:0.8;stroke-linecap:square;stroke-miterlimit:10;}
	.st5{clip-path:url(#SVGID_6_);}
	.st6{fill:none;}
	.st7{font-family:'MyriadPro-Regular';}
	.st8{font-size:14px;}
	.st9{clip-path:url(#SVGID_8_);}
	.st10{fill:#FFFFFF;}
	.st11{fill:none;stroke:#000000;stroke-width:4;stroke-miterlimit:10;}
	.st12{fill:none;stroke:#000000;stroke-width:4;stroke-miterlimit:10;stroke-dasharray:11.8133,11.8133;}
</style>
<g>
	<defs>
		<rect id="SVGID_1_" x="-176.5" y="-44.5" width="1440" height="720"/>
	</defs>
	<clipPath id="SVGID_2_">
		<use xlink:href="#SVGID_1_"  style="overflow:visible;"/>
	</clipPath>
	<path class="st0" d="M3.5,41.9v542.9c12.5-5.4,26.2-9.6,39.8-5.9c1.1,0.3,2,0.9,2.6,1.6c5.1-0.5,10.2-1,15.4-0.6
		c3.3,0.3,4.9,3,4.8,5.6h1053.4V41.9H3.5z M65.4,87.2c-1.7,2.4-5.7,2.7-7.8,0.6c-2.7,2.7-8.5,1.5-8.6-3.4
		c-0.1-8.9-1.1-17.7-1.2-26.5c-0.1-6.4,9.8-6.4,10-0.2c2.1,0.1,3.4,1.2,4.1,2.6c2.3,0.3,4.3,1.9,4.3,4.8v4.8
		c0.1,4.5,1.1,8.8,1.2,13.3C67.5,85.1,66.6,86.5,65.4,87.2z"/>
	<line class="st1" x1="67.3" y1="585.5" x2="67.3" y2="589"/>
	<line class="st2" x1="67.3" y1="585.5" x2="67.3" y2="589"/>
	<polyline class="st1" points="55.8,599.3 57.4,599.3 57.4,593.7 55.7,594.1 55.7,593.2 57.4,592.8 58.4,592.8 58.4,599.3 60,599.3 
		60,600.1 55.8,600.1 55.8,599.3 	"/>
	<path class="st1" d="M64,596.9c0.4,0,0.8-0.1,1.1-0.5c0.3-0.3,0.4-0.7,0.4-1.2c0-0.5-0.1-0.9-0.4-1.2c-0.3-0.3-0.6-0.5-1.1-0.5
		s-0.8,0.2-1.1,0.5c-0.3,0.3-0.4,0.7-0.4,1.2c0,0.5,0.1,1,0.4,1.2C63.2,596.7,63.5,596.9,64,596.9 M62,600v-0.9
		c0.2,0.1,0.5,0.2,0.8,0.3c0.2,0.1,0.5,0.1,0.8,0.1c0.6,0,1.1-0.2,1.5-0.6s0.5-1.1,0.6-2c-0.2,0.3-0.4,0.5-0.7,0.6
		c-0.3,0.2-0.6,0.2-1,0.2c-0.7,0-1.3-0.2-1.7-0.7c-0.4-0.4-0.6-1-0.6-1.8c0-0.7,0.2-1.3,0.7-1.8c0.4-0.5,1-0.7,1.8-0.7
		c0.8,0,1.5,0.3,1.9,1c0.4,0.6,0.7,1.6,0.7,2.8c0,1.2-0.3,2.1-0.8,2.8c-0.6,0.7-1.3,1-2.2,1c-0.2,0-0.5,0-0.8-0.1
		C62.6,600.1,62.3,600.1,62,600"/>
	<path class="st1" d="M70.3,596.9c0.4,0,0.8-0.1,1.1-0.5c0.3-0.3,0.4-0.7,0.4-1.2c0-0.5-0.1-0.9-0.4-1.2c-0.3-0.3-0.6-0.5-1.1-0.5
		s-0.8,0.2-1.1,0.5c-0.3,0.3-0.4,0.7-0.4,1.2c0,0.5,0.1,1,0.4,1.2C69.6,596.7,69.9,596.9,70.3,596.9 M68.4,600v-0.9
		c0.2,0.1,0.5,0.2,0.8,0.3c0.2,0.1,0.5,0.1,0.8,0.1c0.6,0,1.1-0.2,1.5-0.6s0.5-1.1,0.6-2c-0.2,0.3-0.4,0.5-0.7,0.6
		c-0.3,0.2-0.6,0.2-1,0.2c-0.7,0-1.3-0.2-1.7-0.7c-0.4-0.4-0.6-1-0.6-1.8c0-0.7,0.2-1.3,0.7-1.8c0.4-0.5,1-0.7,1.8-0.7
		c0.8,0,1.5,0.3,1.9,1c0.4,0.6,0.7,1.6,0.7,2.8c0,1.2-0.3,2.1-0.8,2.8c-0.6,0.7-1.3,1-2.2,1c-0.2,0-0.5,0-0.8-0.1
		C68.9,600.1,68.7,600.1,68.4,600"/>
	<path class="st1" d="M76.7,596.9c0.4,0,0.8-0.1,1.1-0.5c0.3-0.3,0.4-0.7,0.4-1.2c0-0.5-0.1-0.9-0.4-1.2c-0.3-0.3-0.6-0.5-1.1-0.5
		s-0.8,0.2-1.1,0.5c-0.3,0.3-0.4,0.7-0.4,1.2c0,0.5,0.1,1,0.4,1.2C75.9,596.7,76.3,596.9,76.7,596.9 M74.7,600v-0.9
		c0.2,0.1,0.5,0.2,0.8,0.3c0.2,0.1,0.5,0.1,0.8,0.1c0.6,0,1.1-0.2,1.5-0.6s0.5-1.1,0.6-2c-0.2,0.3-0.4,0.5-0.7,0.6
		c-0.3,0.2-0.6,0.2-1,0.2c-0.7,0-1.3-0.2-1.7-0.7c-0.4-0.4-0.6-1-0.6-1.8c0-0.7,0.2-1.3,0.7-1.8c0.4-0.5,1-0.7,1.8-0.7
		c0.8,0,1.5,0.3,1.9,1c0.4,0.6,0.7,1.6,0.7,2.8c0,1.2-0.3,2.1-0.8,2.8c-0.6,0.7-1.3,1-2.2,1c-0.2,0-0.5,0-0.8-0.1
		C75.3,600.1,75,600.1,74.7,600"/>
	<line class="st1" x1="122.8" y1="585.5" x2="122.8" y2="589"/>
	<line class="st2" x1="122.8" y1="585.5" x2="122.8" y2="589"/>
	<path class="st1" d="M112,599.3h3.4v0.8h-4.6v-0.8c0.4-0.4,0.9-0.9,1.5-1.6c0.6-0.7,1-1.1,1.2-1.3c0.3-0.4,0.5-0.7,0.7-0.9
		c0.1-0.2,0.2-0.5,0.2-0.7c0-0.4-0.1-0.7-0.4-0.9c-0.3-0.2-0.6-0.4-1.1-0.4c-0.3,0-0.6,0.1-1,0.2c-0.3,0.1-0.7,0.3-1.1,0.5v-1
		c0.4-0.2,0.8-0.3,1.1-0.4c0.3-0.1,0.7-0.1,0.9-0.1c0.8,0,1.4,0.2,1.8,0.6c0.4,0.4,0.7,0.9,0.7,1.5c0,0.3-0.1,0.6-0.2,0.8
		c-0.1,0.3-0.3,0.6-0.6,1c-0.1,0.1-0.3,0.4-0.8,0.8S112.8,598.5,112,599.3"/>
	<path class="st1" d="M119.7,592.7c0.8,0,1.4,0.3,1.9,1c0.4,0.6,0.7,1.6,0.7,2.8c0,1.2-0.2,2.2-0.7,2.8c-0.4,0.6-1.1,1-1.9,1
		c-0.8,0-1.4-0.3-1.9-1c-0.4-0.6-0.6-1.6-0.6-2.8c0-1.2,0.2-2.2,0.6-2.8C118.2,593,118.8,592.7,119.7,592.7 M119.7,593.5
		c-0.5,0-0.9,0.2-1.1,0.8s-0.4,1.2-0.4,2.2s0.1,1.8,0.4,2.2s0.6,0.8,1.1,0.8c0.5,0,0.9-0.2,1.1-0.8c0.2-0.5,0.4-1.2,0.4-2.2
		s-0.1-1.8-0.4-2.2C120.5,593.7,120.2,593.5,119.7,593.5"/>
	<path class="st1" d="M126,592.7c0.8,0,1.4,0.3,1.9,1c0.4,0.6,0.7,1.6,0.7,2.8c0,1.2-0.2,2.2-0.7,2.8c-0.4,0.6-1.1,1-1.9,1
		c-0.8,0-1.4-0.3-1.9-1c-0.4-0.6-0.6-1.6-0.6-2.8c0-1.2,0.2-2.2,0.6-2.8C124.6,593,125.2,592.7,126,592.7 M126,593.5
		c-0.5,0-0.9,0.2-1.1,0.8s-0.4,1.2-0.4,2.2s0.1,1.8,0.4,2.2s0.6,0.8,1.1,0.8c0.5,0,0.9-0.2,1.1-0.8c0.2-0.5,0.4-1.2,0.4-2.2
		s-0.1-1.8-0.4-2.2C126.9,593.7,126.5,593.5,126,593.5"/>
	<path class="st1" d="M132.4,592.7c0.8,0,1.4,0.3,1.9,1c0.4,0.6,0.7,1.6,0.7,2.8c0,1.2-0.2,2.2-0.7,2.8c-0.4,0.6-1.1,1-1.9,1
		c-0.8,0-1.4-0.3-1.9-1c-0.4-0.6-0.6-1.6-0.6-2.8c0-1.2,0.2-2.2,0.6-2.8C130.9,593,131.6,592.7,132.4,592.7 M132.4,593.5
		c-0.5,0-0.9,0.2-1.1,0.8s-0.4,1.2-0.4,2.2s0.1,1.8,0.4,2.2s0.6,0.8,1.1,0.8c0.5,0,0.9-0.2,1.1-0.8c0.2-0.5,0.4-1.2,0.4-2.2
		s-0.1-1.8-0.4-2.2C133.3,593.7,132.9,593.5,132.4,593.5"/>
	<line class="st1" x1="178.4" y1="585.5" x2="178.4" y2="589"/>
	<line class="st2" x1="178.4" y1="585.5" x2="178.4" y2="589"/>
	<path class="st1" d="M167.6,599.3h3.4v0.8h-4.6v-0.8c0.4-0.4,0.9-0.9,1.5-1.6c0.6-0.7,1-1.1,1.2-1.3c0.3-0.4,0.5-0.7,0.7-0.9
		c0.1-0.2,0.2-0.5,0.2-0.7c0-0.4-0.1-0.7-0.4-0.9c-0.3-0.2-0.6-0.4-1.1-0.4c-0.3,0-0.6,0.1-1,0.2c-0.3,0.1-0.7,0.3-1.1,0.5v-1
		c0.4-0.2,0.8-0.3,1.1-0.4c0.3-0.1,0.7-0.1,0.9-0.1c0.8,0,1.4,0.2,1.8,0.6c0.4,0.4,0.7,0.9,0.7,1.5c0,0.3-0.1,0.6-0.2,0.8
		c-0.1,0.3-0.3,0.6-0.6,1c-0.1,0.1-0.3,0.4-0.8,0.8S168.4,598.5,167.6,599.3"/>
	<path class="st1" d="M175.2,592.7c0.8,0,1.4,0.3,1.9,1c0.4,0.6,0.7,1.6,0.7,2.8c0,1.2-0.2,2.2-0.7,2.8c-0.4,0.6-1.1,1-1.9,1
		c-0.8,0-1.4-0.3-1.9-1c-0.4-0.6-0.6-1.6-0.6-2.8c0-1.2,0.2-2.2,0.6-2.8C173.8,593,174.4,592.7,175.2,592.7 M175.2,593.5
		c-0.5,0-0.9,0.2-1.1,0.8s-0.4,1.2-0.4,2.2s0.1,1.8,0.4,2.2s0.6,0.8,1.1,0.8c0.5,0,0.9-0.2,1.1-0.8c0.2-0.5,0.4-1.2,0.4-2.2
		s-0.1-1.8-0.4-2.2C176.1,593.7,175.7,593.5,175.2,593.5"/>
	<path class="st1" d="M181.6,592.7c0.8,0,1.4,0.3,1.9,1c0.4,0.6,0.7,1.6,0.7,2.8c0,1.2-0.2,2.2-0.7,2.8c-0.4,0.6-1.1,1-1.9,1
		c-0.8,0-1.4-0.3-1.9-1c-0.4-0.6-0.6-1.6-0.6-2.8c0-1.2,0.2-2.2,0.6-2.8C180.1,593,180.8,592.7,181.6,592.7 M181.6,593.5
		c-0.5,0-0.9,0.2-1.1,0.8s-0.4,1.2-0.4,2.2s0.1,1.8,0.4,2.2s0.6,0.8,1.1,0.8c0.5,0,0.9-0.2,1.1-0.8c0.2-0.5,0.4-1.2,0.4-2.2
		s-0.1-1.8-0.4-2.2C182.5,593.7,182.1,593.5,181.6,593.5"/>
	<polyline class="st1" points="186,599.3 187.6,599.3 187.6,593.7 185.9,594.1 185.9,593.2 187.6,592.8 188.6,592.8 188.6,599.3 
		190.2,599.3 190.2,600.1 186,600.1 186,599.3 	"/>
	<line class="st1" x1="233.9" y1="585.5" x2="233.9" y2="589"/>
	<line class="st2" x1="233.9" y1="585.5" x2="233.9" y2="589"/>
	<path class="st1" d="M223.1,599.3h3.4v0.8H222v-0.8c0.4-0.4,0.9-0.9,1.5-1.6c0.6-0.7,1-1.1,1.2-1.3c0.3-0.4,0.5-0.7,0.7-0.9
		c0.1-0.2,0.2-0.5,0.2-0.7c0-0.4-0.1-0.7-0.4-0.9c-0.3-0.2-0.6-0.4-1.1-0.4c-0.3,0-0.6,0.1-1,0.2c-0.3,0.1-0.7,0.3-1.1,0.5v-1
		c0.4-0.2,0.8-0.3,1.1-0.4c0.3-0.1,0.7-0.1,0.9-0.1c0.8,0,1.4,0.2,1.8,0.6c0.4,0.4,0.7,0.9,0.7,1.5c0,0.3-0.1,0.6-0.2,0.8
		c-0.1,0.3-0.3,0.6-0.6,1c-0.1,0.1-0.3,0.4-0.8,0.8S223.9,598.5,223.1,599.3"/>
	<path class="st1" d="M230.8,592.7c0.8,0,1.4,0.3,1.9,1c0.4,0.6,0.7,1.6,0.7,2.8c0,1.2-0.2,2.2-0.7,2.8c-0.4,0.6-1.1,1-1.9,1
		c-0.8,0-1.4-0.3-1.9-1c-0.4-0.6-0.6-1.6-0.6-2.8c0-1.2,0.2-2.2,0.6-2.8C229.3,593,229.9,592.7,230.8,592.7 M230.8,593.5
		c-0.5,0-0.9,0.2-1.1,0.8s-0.4,1.2-0.4,2.2s0.1,1.8,0.4,2.2s0.6,0.8,1.1,0.8c0.5,0,0.9-0.2,1.1-0.8c0.2-0.5,0.4-1.2,0.4-2.2
		s-0.1-1.8-0.4-2.2C231.7,593.7,231.3,593.5,230.8,593.5"/>
	<path class="st1" d="M237.1,592.7c0.8,0,1.4,0.3,1.9,1c0.4,0.6,0.7,1.6,0.7,2.8c0,1.2-0.2,2.2-0.7,2.8c-0.4,0.6-1.1,1-1.9,1
		c-0.8,0-1.4-0.3-1.9-1c-0.4-0.6-0.6-1.6-0.6-2.8c0-1.2,0.2-2.2,0.6-2.8C235.7,593,236.3,592.7,237.1,592.7 M237.1,593.5
		c-0.5,0-0.9,0.2-1.1,0.8s-0.4,1.2-0.4,2.2s0.1,1.8,0.4,2.2s0.6,0.8,1.1,0.8c0.5,0,0.9-0.2,1.1-0.8c0.2-0.5,0.4-1.2,0.4-2.2
		s-0.1-1.8-0.4-2.2C238,593.7,237.6,593.5,237.1,593.5"/>
	<path class="st1" d="M242.2,599.3h3.4v0.8H241v-0.8c0.4-0.4,0.9-0.9,1.5-1.6c0.6-0.7,1-1.1,1.2-1.3c0.3-0.4,0.5-0.7,0.7-0.9
		c0.1-0.2,0.2-0.5,0.2-0.7c0-0.4-0.1-0.7-0.4-0.9c-0.3-0.2-0.6-0.4-1.1-0.4c-0.3,0-0.6,0.1-1,0.2c-0.3,0.1-0.7,0.3-1.1,0.5v-1
		c0.4-0.2,0.8-0.3,1.1-0.4c0.3-0.1,0.7-0.1,0.9-0.1c0.8,0,1.4,0.2,1.8,0.6c0.4,0.4,0.7,0.9,0.7,1.5c0,0.3-0.1,0.6-0.2,0.8
		c-0.1,0.3-0.3,0.6-0.6,1c-0.1,0.1-0.3,0.4-0.8,0.8S243,598.5,242.2,599.3"/>
	<line class="st1" x1="289.5" y1="585.5" x2="289.5" y2="589"/>
	<line class="st2" x1="289.5" y1="585.5" x2="289.5" y2="589"/>
	<path class="st1" d="M278.7,599.3h3.4v0.8h-4.6v-0.8c0.4-0.4,0.9-0.9,1.5-1.6c0.6-0.7,1-1.1,1.2-1.3c0.3-0.4,0.5-0.7,0.7-0.9
		c0.1-0.2,0.2-0.5,0.2-0.7c0-0.4-0.1-0.7-0.4-0.9c-0.3-0.2-0.6-0.4-1.1-0.4c-0.3,0-0.6,0.1-1,0.2c-0.3,0.1-0.7,0.3-1.1,0.5v-1
		c0.4-0.2,0.8-0.3,1.1-0.4c0.3-0.1,0.7-0.1,0.9-0.1c0.8,0,1.4,0.2,1.8,0.6c0.4,0.4,0.7,0.9,0.7,1.5c0,0.3-0.1,0.6-0.2,0.8
		c-0.1,0.3-0.3,0.6-0.6,1c-0.1,0.1-0.3,0.4-0.8,0.8S279.5,598.5,278.7,599.3"/>
	<path class="st1" d="M286.3,592.7c0.8,0,1.4,0.3,1.9,1c0.4,0.6,0.7,1.6,0.7,2.8c0,1.2-0.2,2.2-0.7,2.8c-0.4,0.6-1.1,1-1.9,1
		c-0.8,0-1.4-0.3-1.9-1c-0.4-0.6-0.6-1.6-0.6-2.8c0-1.2,0.2-2.2,0.6-2.8C284.9,593,285.5,592.7,286.3,592.7 M286.3,593.5
		c-0.5,0-0.9,0.2-1.1,0.8s-0.4,1.2-0.4,2.2s0.1,1.8,0.4,2.2s0.6,0.8,1.1,0.8c0.5,0,0.9-0.2,1.1-0.8c0.2-0.5,0.4-1.2,0.4-2.2
		s-0.1-1.8-0.4-2.2C287.2,593.7,286.8,593.5,286.3,593.5"/>
	<path class="st1" d="M292.7,592.7c0.8,0,1.4,0.3,1.9,1c0.4,0.6,0.7,1.6,0.7,2.8c0,1.2-0.2,2.2-0.7,2.8c-0.4,0.6-1.1,1-1.9,1
		c-0.8,0-1.4-0.3-1.9-1c-0.4-0.6-0.6-1.6-0.6-2.8c0-1.2,0.2-2.2,0.6-2.8C291.2,593,291.9,592.7,292.7,592.7 M292.7,593.5
		c-0.5,0-0.9,0.2-1.1,0.8s-0.4,1.2-0.4,2.2s0.1,1.8,0.4,2.2s0.6,0.8,1.1,0.8c0.5,0,0.9-0.2,1.1-0.8c0.2-0.5,0.4-1.2,0.4-2.2
		s-0.1-1.8-0.4-2.2C293.6,593.7,293.2,593.5,292.7,593.5"/>
	<path class="st1" d="M299.4,592.8h1.2v4.8h1v0.8h-1v1.7h-1v-1.7h-3.3v-1L299.4,592.8 M299.6,593.7l-2.5,3.9h2.5V593.7"/>
	<line class="st1" x1="345" y1="585.5" x2="345" y2="589"/>
	<line class="st2" x1="345" y1="585.5" x2="345" y2="589"/>
	<path class="st1" d="M334.3,599.3h3.4v0.8h-4.6v-0.8c0.4-0.4,0.9-0.9,1.5-1.6c0.6-0.7,1-1.1,1.2-1.3c0.3-0.4,0.5-0.7,0.7-0.9
		c0.1-0.2,0.2-0.5,0.2-0.7c0-0.4-0.1-0.7-0.4-0.9c-0.3-0.2-0.6-0.4-1.1-0.4c-0.3,0-0.6,0.1-1,0.2c-0.3,0.1-0.7,0.3-1.1,0.5v-1
		c0.4-0.2,0.8-0.3,1.1-0.4c0.3-0.1,0.7-0.1,0.9-0.1c0.8,0,1.4,0.2,1.8,0.6s0.7,0.9,0.7,1.5c0,0.3-0.1,0.6-0.2,0.8
		c-0.1,0.3-0.3,0.6-0.6,1c-0.1,0.1-0.3,0.4-0.8,0.8S335,598.5,334.3,599.3"/>
	<path class="st1" d="M341.9,592.7c0.8,0,1.4,0.3,1.9,1c0.4,0.6,0.7,1.6,0.7,2.8c0,1.2-0.2,2.2-0.7,2.8c-0.4,0.6-1.1,1-1.9,1
		c-0.8,0-1.5-0.3-1.9-1c-0.4-0.6-0.6-1.6-0.6-2.8c0-1.2,0.2-2.2,0.6-2.8C340.4,593,341.1,592.7,341.9,592.7 M341.9,593.5
		c-0.5,0-0.9,0.2-1.1,0.8c-0.3,0.5-0.4,1.2-0.4,2.2s0.1,1.8,0.4,2.2c0.3,0.5,0.6,0.8,1.1,0.8s0.9-0.2,1.2-0.8
		c0.2-0.5,0.4-1.2,0.4-2.2s-0.1-1.8-0.4-2.2C342.8,593.7,342.4,593.5,341.9,593.5"/>
	<path class="st1" d="M348.2,592.7c0.8,0,1.4,0.3,1.9,1c0.4,0.6,0.7,1.6,0.7,2.8c0,1.2-0.2,2.2-0.7,2.8c-0.4,0.6-1.1,1-1.9,1
		c-0.8,0-1.5-0.3-1.9-1c-0.4-0.6-0.6-1.6-0.6-2.8c0-1.2,0.2-2.2,0.6-2.8C346.8,593,347.4,592.7,348.2,592.7 M348.2,593.5
		c-0.5,0-0.9,0.2-1.1,0.8c-0.3,0.5-0.4,1.2-0.4,2.2s0.1,1.8,0.4,2.2c0.3,0.5,0.6,0.8,1.1,0.8s0.9-0.2,1.2-0.8
		c0.2-0.5,0.4-1.2,0.4-2.2s-0.1-1.8-0.4-2.2C349.1,593.7,348.7,593.5,348.2,593.5"/>
	<path class="st1" d="M352.5,592.8h3.9v0.8h-3v1.8c0.1,0,0.3-0.1,0.4-0.1c0.1,0,0.3,0,0.4,0c0.8,0,1.4,0.2,1.9,0.7
		c0.5,0.5,0.7,1,0.7,1.8c0,0.8-0.2,1.4-0.7,1.8c-0.5,0.4-1.2,0.6-2.1,0.6c-0.3,0-0.6,0-0.9-0.1c-0.3,0-0.6-0.1-1-0.2v-1
		c0.3,0.2,0.6,0.3,0.9,0.4c0.3,0.1,0.6,0.1,1,0.1c0.6,0,1-0.1,1.3-0.4c0.3-0.3,0.5-0.7,0.5-1.2c0-0.5-0.2-0.9-0.5-1.2
		c-0.3-0.3-0.8-0.5-1.3-0.5c-0.3,0-0.5,0-0.8,0.1s-0.5,0.1-0.8,0.3V592.8"/>
	<line class="st1" x1="400.6" y1="585.5" x2="400.6" y2="589"/>
	<line class="st2" x1="400.6" y1="585.5" x2="400.6" y2="589"/>
	<path class="st1" d="M389.8,599.3h3.4v0.8h-4.6v-0.8c0.4-0.4,0.9-0.9,1.5-1.6c0.6-0.7,1-1.1,1.2-1.3c0.3-0.4,0.5-0.7,0.7-0.9
		c0.1-0.2,0.2-0.5,0.2-0.7c0-0.4-0.1-0.7-0.4-0.9c-0.3-0.2-0.6-0.4-1.1-0.4c-0.3,0-0.6,0.1-1,0.2c-0.3,0.1-0.7,0.3-1.1,0.5v-1
		c0.4-0.2,0.8-0.3,1.1-0.4c0.3-0.1,0.7-0.1,1-0.1c0.8,0,1.3,0.2,1.8,0.6s0.7,0.9,0.7,1.5c0,0.3-0.1,0.6-0.2,0.8
		c-0.1,0.3-0.3,0.6-0.6,1c-0.1,0.1-0.3,0.4-0.8,0.8S390.6,598.5,389.8,599.3"/>
	<path class="st1" d="M397.4,592.7c0.8,0,1.4,0.3,1.9,1c0.4,0.6,0.7,1.6,0.7,2.8c0,1.2-0.2,2.2-0.7,2.8c-0.4,0.6-1.1,1-1.9,1
		c-0.8,0-1.5-0.3-1.9-1c-0.4-0.6-0.6-1.6-0.6-2.8c0-1.2,0.2-2.2,0.6-2.8C396,593,396.6,592.7,397.4,592.7 M397.4,593.5
		c-0.5,0-0.9,0.2-1.1,0.8c-0.3,0.5-0.4,1.2-0.4,2.2s0.1,1.8,0.4,2.2c0.3,0.5,0.6,0.8,1.1,0.8s0.9-0.2,1.2-0.8
		c0.2-0.5,0.4-1.2,0.4-2.2s-0.1-1.8-0.4-2.2C398.3,593.7,397.9,593.5,397.4,593.5"/>
	<path class="st1" d="M403.8,592.7c0.8,0,1.4,0.3,1.9,1c0.4,0.6,0.7,1.6,0.7,2.8c0,1.2-0.2,2.2-0.7,2.8c-0.4,0.6-1.1,1-1.9,1
		c-0.8,0-1.5-0.3-1.9-1c-0.4-0.6-0.6-1.6-0.6-2.8c0-1.2,0.2-2.2,0.6-2.8C402.3,593,403,592.7,403.8,592.7 M403.8,593.5
		c-0.5,0-0.9,0.2-1.1,0.8c-0.3,0.5-0.4,1.2-0.4,2.2s0.1,1.8,0.4,2.2c0.3,0.5,0.6,0.8,1.1,0.8s0.9-0.2,1.2-0.8
		c0.2-0.5,0.4-1.2,0.4-2.2s-0.1-1.8-0.4-2.2C404.7,593.7,404.3,593.5,403.8,593.5"/>
	<path class="st1" d="M412.2,593v0.9c-0.2-0.1-0.5-0.2-0.8-0.3c-0.3-0.1-0.5-0.1-0.8-0.1c-0.7,0-1.2,0.2-1.5,0.7
		c-0.3,0.4-0.5,1.1-0.6,2c0.2-0.3,0.4-0.5,0.7-0.6c0.3-0.2,0.6-0.2,1-0.2c0.7,0,1.3,0.2,1.7,0.7c0.4,0.4,0.6,1,0.6,1.8
		c0,0.8-0.2,1.3-0.7,1.8s-1,0.7-1.8,0.7c-0.8,0-1.5-0.3-1.9-1c-0.5-0.6-0.7-1.6-0.7-2.8c0-1.2,0.3-2.1,0.8-2.8c0.5-0.7,1.3-1,2.2-1
		c0.2,0,0.5,0,0.8,0.1C411.7,592.8,411.9,592.9,412.2,593 M410.3,596.1c-0.4,0-0.8,0.2-1,0.5s-0.4,0.7-0.4,1.2c0,0.5,0.1,1,0.4,1.2
		s0.6,0.5,1,0.5s0.8-0.2,1-0.5c0.3-0.3,0.4-0.7,0.4-1.2c0-0.5-0.1-0.9-0.4-1.2C411.1,596.2,410.7,596.1,410.3,596.1"/>
	<line class="st1" x1="456.2" y1="585.5" x2="456.2" y2="589"/>
	<line class="st2" x1="456.2" y1="585.5" x2="456.2" y2="589"/>
	<path class="st1" d="M445.4,599.3h3.4v0.8h-4.6v-0.8c0.4-0.4,0.9-0.9,1.5-1.6c0.6-0.7,1-1.1,1.2-1.3c0.3-0.4,0.5-0.7,0.7-0.9
		c0.1-0.2,0.2-0.5,0.2-0.7c0-0.4-0.1-0.7-0.4-0.9c-0.3-0.2-0.6-0.4-1.1-0.4c-0.3,0-0.6,0.1-1,0.2c-0.3,0.1-0.7,0.3-1.1,0.5v-1
		c0.4-0.2,0.8-0.3,1.1-0.4c0.3-0.1,0.7-0.1,1-0.1c0.8,0,1.3,0.2,1.8,0.6s0.7,0.9,0.7,1.5c0,0.3-0.1,0.6-0.2,0.8
		c-0.1,0.3-0.3,0.6-0.6,1c-0.1,0.1-0.3,0.4-0.8,0.8S446.1,598.5,445.4,599.3"/>
	<path class="st1" d="M453,592.7c0.8,0,1.4,0.3,1.9,1c0.4,0.6,0.7,1.6,0.7,2.8c0,1.2-0.2,2.2-0.7,2.8c-0.4,0.6-1.1,1-1.9,1
		c-0.8,0-1.5-0.3-1.9-1c-0.4-0.6-0.6-1.6-0.6-2.8c0-1.2,0.2-2.2,0.6-2.8C451.5,593,452.2,592.7,453,592.7 M453,593.5
		c-0.5,0-0.9,0.2-1.1,0.8c-0.3,0.5-0.4,1.2-0.4,2.2s0.1,1.8,0.4,2.2c0.3,0.5,0.6,0.8,1.1,0.8s0.9-0.2,1.2-0.8
		c0.2-0.5,0.4-1.2,0.4-2.2s-0.1-1.8-0.4-2.2C453.9,593.7,453.5,593.5,453,593.5"/>
	<path class="st1" d="M459.3,592.7c0.8,0,1.4,0.3,1.9,1c0.4,0.6,0.7,1.6,0.7,2.8c0,1.2-0.2,2.2-0.7,2.8c-0.4,0.6-1.1,1-1.9,1
		c-0.8,0-1.5-0.3-1.9-1c-0.4-0.6-0.6-1.6-0.6-2.8c0-1.2,0.2-2.2,0.6-2.8C457.9,593,458.5,592.7,459.3,592.7 M459.3,593.5
		c-0.5,0-0.9,0.2-1.1,0.8c-0.3,0.5-0.4,1.2-0.4,2.2s0.1,1.8,0.4,2.2c0.3,0.5,0.6,0.8,1.1,0.8s0.9-0.2,1.2-0.8
		c0.2-0.5,0.4-1.2,0.4-2.2s-0.1-1.8-0.4-2.2C460.2,593.7,459.8,593.5,459.3,593.5"/>
	<polyline class="st1" points="463.3,592.8 468,592.8 468,593.3 465.4,600.1 464.3,600.1 466.8,593.7 463.3,593.7 463.3,592.8 	"/>
	<line class="st1" x1="511.7" y1="585.5" x2="511.7" y2="589"/>
	<line class="st2" x1="511.7" y1="585.5" x2="511.7" y2="589"/>
	<path class="st1" d="M500.9,599.3h3.4v0.8h-4.6v-0.8c0.4-0.4,0.9-0.9,1.5-1.6c0.6-0.7,1-1.1,1.2-1.3c0.3-0.4,0.5-0.7,0.7-0.9
		c0.1-0.2,0.2-0.5,0.2-0.7c0-0.4-0.1-0.7-0.4-0.9c-0.3-0.2-0.6-0.4-1.1-0.4c-0.3,0-0.6,0.1-1,0.2c-0.3,0.1-0.7,0.3-1.1,0.5v-1
		c0.4-0.2,0.8-0.3,1.1-0.4c0.3-0.1,0.7-0.1,1-0.1c0.8,0,1.3,0.2,1.8,0.6s0.7,0.9,0.7,1.5c0,0.3-0.1,0.6-0.2,0.8
		c-0.1,0.3-0.3,0.6-0.6,1c-0.1,0.1-0.3,0.4-0.8,0.8S501.7,598.5,500.9,599.3"/>
	<path class="st1" d="M508.5,592.7c0.8,0,1.4,0.3,1.9,1c0.4,0.6,0.7,1.6,0.7,2.8c0,1.2-0.2,2.2-0.7,2.8c-0.4,0.6-1.1,1-1.9,1
		c-0.8,0-1.5-0.3-1.9-1c-0.4-0.6-0.6-1.6-0.6-2.8c0-1.2,0.2-2.2,0.6-2.8C507.1,593,507.7,592.7,508.5,592.7 M508.5,593.5
		c-0.5,0-0.9,0.2-1.1,0.8c-0.3,0.5-0.4,1.2-0.4,2.2s0.1,1.8,0.4,2.2c0.3,0.5,0.6,0.8,1.1,0.8s0.9-0.2,1.2-0.8
		c0.2-0.5,0.4-1.2,0.4-2.2s-0.1-1.8-0.4-2.2C509.4,593.7,509,593.5,508.5,593.5"/>
	<path class="st1" d="M514.9,592.7c0.8,0,1.4,0.3,1.9,1c0.4,0.6,0.7,1.6,0.7,2.8c0,1.2-0.2,2.2-0.7,2.8c-0.4,0.6-1.1,1-1.9,1
		c-0.8,0-1.5-0.3-1.9-1c-0.4-0.6-0.6-1.6-0.6-2.8c0-1.2,0.2-2.2,0.6-2.8C513.4,593,514.1,592.7,514.9,592.7 M514.9,593.5
		c-0.5,0-0.9,0.2-1.1,0.8c-0.3,0.5-0.4,1.2-0.4,2.2s0.1,1.8,0.4,2.2c0.3,0.5,0.6,0.8,1.1,0.8s0.9-0.2,1.2-0.8
		c0.2-0.5,0.4-1.2,0.4-2.2s-0.1-1.8-0.4-2.2C515.8,593.7,515.4,593.5,514.9,593.5"/>
	<path class="st1" d="M519.9,594.7c0,0.4,0.1,0.7,0.3,0.9c0.2,0.2,0.6,0.3,1,0.3c0.4,0,0.8-0.1,1-0.3c0.2-0.2,0.4-0.5,0.4-0.9
		c0-0.4-0.1-0.7-0.4-0.9c-0.2-0.2-0.6-0.3-1-0.3c-0.4,0-0.8,0.1-1,0.3C520,594,519.9,594.3,519.9,594.7 M520.3,596.2
		c-0.4-0.1-0.8-0.3-1-0.6s-0.4-0.6-0.4-1.1c0-0.6,0.2-1,0.6-1.4c0.4-0.3,1-0.5,1.7-0.5c0.7,0,1.3,0.2,1.7,0.5
		c0.4,0.3,0.6,0.8,0.6,1.4c0,0.4-0.1,0.8-0.4,1.1c-0.2,0.3-0.6,0.5-1,0.6c0.5,0.1,0.8,0.3,1.1,0.6c0.3,0.3,0.4,0.7,0.4,1.2
		c0,0.7-0.2,1.2-0.6,1.6c-0.4,0.4-1.1,0.6-1.9,0.6c-0.8,0-1.4-0.2-1.9-0.6c-0.4-0.4-0.6-0.9-0.6-1.6c0-0.5,0.1-0.9,0.4-1.2
		C519.4,596.6,519.8,596.4,520.3,596.2 M521.3,596.7c-0.5,0-0.8,0.1-1.1,0.4s-0.4,0.6-0.4,1s0.1,0.8,0.4,1s0.6,0.4,1.1,0.4
		c0.5,0,0.8-0.1,1.1-0.4c0.3-0.2,0.4-0.6,0.4-1s-0.1-0.8-0.4-1C522.1,596.8,521.7,596.7,521.3,596.7"/>
	<line class="st1" x1="567.3" y1="585.5" x2="567.3" y2="589"/>
	<line class="st2" x1="567.3" y1="585.5" x2="567.3" y2="589"/>
	<path class="st1" d="M556.5,599.3h3.4v0.8h-4.6v-0.8c0.4-0.4,0.9-0.9,1.5-1.6c0.6-0.7,1-1.1,1.2-1.3c0.3-0.4,0.5-0.7,0.7-0.9
		c0.1-0.2,0.2-0.5,0.2-0.7c0-0.4-0.1-0.7-0.4-0.9c-0.3-0.2-0.6-0.4-1.1-0.4c-0.3,0-0.6,0.1-1,0.2c-0.3,0.1-0.7,0.3-1.1,0.5v-1
		c0.4-0.2,0.8-0.3,1.1-0.4c0.3-0.1,0.7-0.1,1-0.1c0.8,0,1.3,0.2,1.8,0.6s0.7,0.9,0.7,1.5c0,0.3-0.1,0.6-0.2,0.8
		c-0.1,0.3-0.3,0.6-0.6,1c-0.1,0.1-0.3,0.4-0.8,0.8S557.3,598.5,556.5,599.3"/>
	<path class="st1" d="M564.1,592.7c0.8,0,1.4,0.3,1.9,1c0.4,0.6,0.7,1.6,0.7,2.8c0,1.2-0.2,2.2-0.7,2.8c-0.4,0.6-1.1,1-1.9,1
		c-0.8,0-1.5-0.3-1.9-1c-0.4-0.6-0.6-1.6-0.6-2.8c0-1.2,0.2-2.2,0.6-2.8C562.6,593,563.3,592.7,564.1,592.7 M564.1,593.5
		c-0.5,0-0.9,0.2-1.1,0.8c-0.3,0.5-0.4,1.2-0.4,2.2s0.1,1.8,0.4,2.2c0.3,0.5,0.6,0.8,1.1,0.8s0.9-0.2,1.2-0.8
		c0.2-0.5,0.4-1.2,0.4-2.2s-0.1-1.8-0.4-2.2C565,593.7,564.6,593.5,564.1,593.5"/>
	<path class="st1" d="M570.4,592.7c0.8,0,1.4,0.3,1.9,1c0.4,0.6,0.7,1.6,0.7,2.8c0,1.2-0.2,2.2-0.7,2.8c-0.4,0.6-1.1,1-1.9,1
		c-0.8,0-1.5-0.3-1.9-1c-0.4-0.6-0.6-1.6-0.6-2.8c0-1.2,0.2-2.2,0.6-2.8C569,593,569.6,592.7,570.4,592.7 M570.4,593.5
		c-0.5,0-0.9,0.2-1.1,0.8c-0.3,0.5-0.4,1.2-0.4,2.2s0.1,1.8,0.4,2.2c0.3,0.5,0.6,0.8,1.1,0.8s0.9-0.2,1.2-0.8
		c0.2-0.5,0.4-1.2,0.4-2.2s-0.1-1.8-0.4-2.2C571.3,593.7,571,593.5,570.4,593.5"/>
	<path class="st1" d="M576.7,596.9c0.4,0,0.8-0.1,1-0.5c0.3-0.3,0.4-0.7,0.4-1.2c0-0.5-0.1-0.9-0.4-1.2c-0.3-0.3-0.6-0.5-1-0.5
		s-0.8,0.2-1,0.5c-0.3,0.3-0.4,0.7-0.4,1.2c0,0.5,0.1,1,0.4,1.2C575.9,596.7,576.2,596.9,576.7,596.9 M574.7,600v-0.9
		c0.2,0.1,0.5,0.2,0.8,0.3c0.2,0.1,0.5,0.1,0.8,0.1c0.6,0,1.1-0.2,1.5-0.6c0.3-0.4,0.5-1.1,0.6-2c-0.2,0.3-0.4,0.5-0.7,0.6
		c-0.3,0.2-0.6,0.2-1,0.2c-0.7,0-1.3-0.2-1.7-0.7c-0.4-0.4-0.6-1-0.6-1.8c0-0.7,0.2-1.3,0.7-1.8c0.4-0.5,1-0.7,1.8-0.7
		c0.8,0,1.5,0.3,1.9,1c0.4,0.6,0.7,1.6,0.7,2.8c0,1.2-0.3,2.1-0.8,2.8c-0.6,0.7-1.3,1-2.2,1c-0.2,0-0.5,0-0.8-0.1
		C575.3,600.1,575,600.1,574.7,600"/>
	<line class="st1" x1="622.8" y1="585.5" x2="622.8" y2="589"/>
	<line class="st2" x1="622.8" y1="585.5" x2="622.8" y2="589"/>
	<path class="st1" d="M612,599.3h3.4v0.8h-4.6v-0.8c0.4-0.4,0.9-0.9,1.5-1.6c0.6-0.7,1-1.1,1.2-1.3c0.3-0.4,0.5-0.7,0.7-0.9
		c0.1-0.2,0.2-0.5,0.2-0.7c0-0.4-0.1-0.7-0.4-0.9c-0.3-0.2-0.6-0.4-1.1-0.4c-0.3,0-0.6,0.1-1,0.2c-0.3,0.1-0.7,0.3-1.1,0.5v-1
		c0.4-0.2,0.8-0.3,1.1-0.4c0.3-0.1,0.7-0.1,1-0.1c0.8,0,1.3,0.2,1.8,0.6s0.7,0.9,0.7,1.5c0,0.3-0.1,0.6-0.2,0.8
		c-0.1,0.3-0.3,0.6-0.6,1c-0.1,0.1-0.3,0.4-0.8,0.8S612.8,598.5,612,599.3"/>
	<path class="st1" d="M619.6,592.7c0.8,0,1.4,0.3,1.9,1c0.4,0.6,0.7,1.6,0.7,2.8c0,1.2-0.2,2.2-0.7,2.8c-0.4,0.6-1.1,1-1.9,1
		c-0.8,0-1.5-0.3-1.9-1c-0.4-0.6-0.6-1.6-0.6-2.8c0-1.2,0.2-2.2,0.6-2.8C618.2,593,618.8,592.7,619.6,592.7 M619.6,593.5
		c-0.5,0-0.9,0.2-1.1,0.8c-0.3,0.5-0.4,1.2-0.4,2.2s0.1,1.8,0.4,2.2c0.3,0.5,0.6,0.8,1.1,0.8s0.9-0.2,1.2-0.8
		c0.2-0.5,0.4-1.2,0.4-2.2s-0.1-1.8-0.4-2.2C620.5,593.7,620.1,593.5,619.6,593.5"/>
	<polyline class="st1" points="624.1,599.3 625.7,599.3 625.7,593.7 623.9,594.1 623.9,593.2 625.7,592.8 626.6,592.8 626.6,599.3 
		628.3,599.3 628.3,600.1 624.1,600.1 624.1,599.3 	"/>
	<path class="st1" d="M632.4,592.7c0.8,0,1.4,0.3,1.9,1c0.4,0.6,0.7,1.6,0.7,2.8c0,1.2-0.2,2.2-0.7,2.8c-0.4,0.6-1.1,1-1.9,1
		c-0.8,0-1.5-0.3-1.9-1c-0.4-0.6-0.6-1.6-0.6-2.8c0-1.2,0.2-2.2,0.6-2.8C630.9,593,631.5,592.7,632.4,592.7 M632.4,593.5
		c-0.5,0-0.9,0.2-1.1,0.8c-0.3,0.5-0.4,1.2-0.4,2.2s0.1,1.8,0.4,2.2c0.3,0.5,0.6,0.8,1.1,0.8s0.9-0.2,1.2-0.8
		c0.2-0.5,0.4-1.2,0.4-2.2s-0.1-1.8-0.4-2.2C633.2,593.7,632.9,593.5,632.4,593.5"/>
	<line class="st1" x1="678.4" y1="585.5" x2="678.4" y2="589"/>
	<line class="st2" x1="678.4" y1="585.5" x2="678.4" y2="589"/>
	<path class="st1" d="M667.6,599.3h3.4v0.8h-4.6v-0.8c0.4-0.4,0.9-0.9,1.5-1.6c0.6-0.7,1-1.1,1.2-1.3c0.3-0.4,0.5-0.7,0.7-0.9
		c0.1-0.2,0.2-0.5,0.2-0.7c0-0.4-0.1-0.7-0.4-0.9c-0.3-0.2-0.6-0.4-1.1-0.4c-0.3,0-0.6,0.1-1,0.2c-0.3,0.1-0.7,0.3-1.1,0.5v-1
		c0.4-0.2,0.8-0.3,1.1-0.4c0.3-0.1,0.7-0.1,1-0.1c0.8,0,1.3,0.2,1.8,0.6s0.7,0.9,0.7,1.5c0,0.3-0.1,0.6-0.2,0.8
		c-0.1,0.3-0.3,0.6-0.6,1c-0.1,0.1-0.3,0.4-0.8,0.8S668.4,598.5,667.6,599.3"/>
	<path class="st1" d="M675.2,592.7c0.8,0,1.4,0.3,1.9,1c0.4,0.6,0.7,1.6,0.7,2.8c0,1.2-0.2,2.2-0.7,2.8c-0.4,0.6-1.1,1-1.9,1
		c-0.8,0-1.5-0.3-1.9-1c-0.4-0.6-0.6-1.6-0.6-2.8c0-1.2,0.2-2.2,0.6-2.8C673.7,593,674.4,592.7,675.2,592.7 M675.2,593.5
		c-0.5,0-0.9,0.2-1.1,0.8c-0.3,0.5-0.4,1.2-0.4,2.2s0.1,1.8,0.4,2.2c0.3,0.5,0.6,0.8,1.1,0.8s0.9-0.2,1.2-0.8
		c0.2-0.5,0.4-1.2,0.4-2.2s-0.1-1.8-0.4-2.2C676.1,593.7,675.7,593.5,675.2,593.5"/>
	<polyline class="st1" points="679.6,599.3 681.2,599.3 681.2,593.7 679.5,594.1 679.5,593.2 681.2,592.8 682.2,592.8 682.2,599.3 
		683.8,599.3 683.8,600.1 679.6,600.1 679.6,599.3 	"/>
	<polyline class="st1" points="686,599.3 687.6,599.3 687.6,593.7 685.8,594.1 685.8,593.2 687.6,592.8 688.6,592.8 688.6,599.3 
		690.2,599.3 690.2,600.1 686,600.1 686,599.3 	"/>
	<line class="st1" x1="733.9" y1="585.5" x2="733.9" y2="589"/>
	<line class="st2" x1="733.9" y1="585.5" x2="733.9" y2="589"/>
	<path class="st1" d="M723.1,599.3h3.4v0.8h-4.6v-0.8c0.4-0.4,0.9-0.9,1.5-1.6c0.6-0.7,1-1.1,1.2-1.3c0.3-0.4,0.5-0.7,0.7-0.9
		c0.1-0.2,0.2-0.5,0.2-0.7c0-0.4-0.1-0.7-0.4-0.9c-0.3-0.2-0.6-0.4-1.1-0.4c-0.3,0-0.6,0.1-1,0.2c-0.3,0.1-0.7,0.3-1.1,0.5v-1
		c0.4-0.2,0.8-0.3,1.1-0.4c0.3-0.1,0.7-0.1,1-0.1c0.8,0,1.3,0.2,1.8,0.6s0.7,0.9,0.7,1.5c0,0.3-0.1,0.6-0.2,0.8
		c-0.1,0.3-0.3,0.6-0.6,1c-0.1,0.1-0.3,0.4-0.8,0.8S723.9,598.5,723.1,599.3"/>
	<path class="st1" d="M730.7,592.7c0.8,0,1.4,0.3,1.9,1c0.4,0.6,0.7,1.6,0.7,2.8c0,1.2-0.2,2.2-0.7,2.8c-0.4,0.6-1.1,1-1.9,1
		c-0.8,0-1.5-0.3-1.9-1c-0.4-0.6-0.6-1.6-0.6-2.8c0-1.2,0.2-2.2,0.6-2.8C729.3,593,729.9,592.7,730.7,592.7 M730.7,593.5
		c-0.5,0-0.9,0.2-1.1,0.8c-0.3,0.5-0.4,1.2-0.4,2.2s0.1,1.8,0.4,2.2c0.3,0.5,0.6,0.8,1.1,0.8s0.9-0.2,1.2-0.8
		c0.2-0.5,0.4-1.2,0.4-2.2s-0.1-1.8-0.4-2.2C731.6,593.7,731.3,593.5,730.7,593.5"/>
	<polyline class="st1" points="735.2,599.3 736.8,599.3 736.8,593.7 735,594.1 735,593.2 736.8,592.8 737.8,592.8 737.8,599.3 
		739.4,599.3 739.4,600.1 735.2,600.1 735.2,599.3 	"/>
	<path class="st1" d="M742.2,599.3h3.4v0.8H741v-0.8c0.4-0.4,0.9-0.9,1.5-1.6c0.6-0.7,1-1.1,1.2-1.3c0.3-0.4,0.5-0.7,0.7-0.9
		c0.1-0.2,0.2-0.5,0.2-0.7c0-0.4-0.1-0.7-0.4-0.9c-0.3-0.2-0.6-0.4-1.1-0.4c-0.3,0-0.6,0.1-1,0.2c-0.3,0.1-0.7,0.3-1.1,0.5v-1
		c0.4-0.2,0.8-0.3,1.1-0.4c0.3-0.1,0.7-0.1,1-0.1c0.8,0,1.3,0.2,1.8,0.6s0.7,0.9,0.7,1.5c0,0.3-0.1,0.6-0.2,0.8
		c-0.1,0.3-0.3,0.6-0.6,1c-0.1,0.1-0.3,0.4-0.8,0.8S743,598.5,742.2,599.3"/>
	<line class="st1" x1="789.5" y1="585.5" x2="789.5" y2="589"/>
	<line class="st2" x1="789.5" y1="585.5" x2="789.5" y2="589"/>
	<path class="st1" d="M778.7,599.3h3.4v0.8h-4.6v-0.8c0.4-0.4,0.9-0.9,1.5-1.6c0.6-0.7,1-1.1,1.2-1.3c0.3-0.4,0.5-0.7,0.7-0.9
		c0.1-0.2,0.2-0.5,0.2-0.7c0-0.4-0.1-0.7-0.4-0.9c-0.3-0.2-0.6-0.4-1.1-0.4c-0.3,0-0.6,0.1-1,0.2c-0.3,0.1-0.7,0.3-1.1,0.5v-1
		c0.4-0.2,0.8-0.3,1.1-0.4c0.3-0.1,0.7-0.1,1-0.1c0.8,0,1.3,0.2,1.8,0.6s0.7,0.9,0.7,1.5c0,0.3-0.1,0.6-0.2,0.8
		c-0.1,0.3-0.3,0.6-0.6,1c-0.1,0.1-0.3,0.4-0.8,0.8S779.5,598.5,778.7,599.3"/>
	<path class="st1" d="M786.3,592.7c0.8,0,1.4,0.3,1.9,1c0.4,0.6,0.7,1.6,0.7,2.8c0,1.2-0.2,2.2-0.7,2.8c-0.4,0.6-1.1,1-1.9,1
		c-0.8,0-1.5-0.3-1.9-1c-0.4-0.6-0.6-1.6-0.6-2.8c0-1.2,0.2-2.2,0.6-2.8C784.8,593,785.5,592.7,786.3,592.7 M786.3,593.5
		c-0.5,0-0.9,0.2-1.1,0.8c-0.3,0.5-0.4,1.2-0.4,2.2s0.1,1.8,0.4,2.2c0.3,0.5,0.6,0.8,1.1,0.8s0.9-0.2,1.2-0.8
		c0.2-0.5,0.4-1.2,0.4-2.2s-0.1-1.8-0.4-2.2C787.2,593.7,786.8,593.5,786.3,593.5"/>
	<polyline class="st1" points="790.7,599.3 792.3,599.3 792.3,593.7 790.6,594.1 790.6,593.2 792.3,592.8 793.3,592.8 793.3,599.3 
		794.9,599.3 794.9,600.1 790.7,600.1 790.7,599.3 	"/>
	<path class="st1" d="M799.9,596.2c0.5,0.1,0.8,0.3,1.1,0.6c0.3,0.3,0.4,0.7,0.4,1.2c0,0.7-0.2,1.3-0.7,1.7
		c-0.5,0.4-1.2,0.6-2.1,0.6c-0.3,0-0.6,0-1-0.1c-0.3,0-0.7-0.1-1-0.3v-1c0.3,0.2,0.6,0.3,0.9,0.4c0.3,0.1,0.7,0.1,1,0.1
		c0.6,0,1.1-0.1,1.4-0.4c0.3-0.2,0.5-0.6,0.5-1.1c0-0.4-0.2-0.8-0.5-1c-0.3-0.2-0.7-0.4-1.3-0.4h-0.8v-0.8h0.9
		c0.5,0,0.9-0.1,1.1-0.3c0.3-0.2,0.4-0.5,0.4-0.8s-0.1-0.7-0.4-0.9c-0.3-0.2-0.7-0.3-1.1-0.3c-0.3,0-0.6,0-0.9,0.1s-0.7,0.2-1,0.3
		V593c0.4-0.1,0.7-0.2,1.1-0.2c0.3,0,0.6-0.1,0.9-0.1c0.7,0,1.3,0.2,1.8,0.5s0.7,0.8,0.7,1.4c0,0.4-0.1,0.7-0.4,1
		C800.6,595.9,800.3,596.1,799.9,596.2"/>
	<line class="st1" x1="845" y1="585.5" x2="845" y2="589"/>
	<line class="st2" x1="845" y1="585.5" x2="845" y2="589"/>
	<path class="st1" d="M834.2,599.3h3.4v0.8H833v-0.8c0.4-0.4,0.9-0.9,1.5-1.6c0.6-0.7,1-1.1,1.2-1.3c0.3-0.4,0.5-0.7,0.7-0.9
		c0.1-0.2,0.2-0.5,0.2-0.7c0-0.4-0.1-0.7-0.4-0.9c-0.3-0.2-0.6-0.4-1.1-0.4c-0.3,0-0.6,0.1-1,0.2c-0.3,0.1-0.7,0.3-1.1,0.5v-1
		c0.4-0.2,0.8-0.3,1.1-0.4c0.3-0.1,0.7-0.1,1-0.1c0.8,0,1.3,0.2,1.8,0.6s0.7,0.9,0.7,1.5c0,0.3-0.1,0.6-0.2,0.8
		c-0.1,0.3-0.3,0.6-0.6,1c-0.1,0.1-0.3,0.4-0.8,0.8S835,598.5,834.2,599.3"/>
	<path class="st1" d="M841.9,592.7c0.8,0,1.4,0.3,1.9,1c0.4,0.6,0.7,1.6,0.7,2.8c0,1.2-0.2,2.2-0.7,2.8c-0.4,0.6-1.1,1-1.9,1
		c-0.8,0-1.5-0.3-1.9-1c-0.4-0.6-0.6-1.6-0.6-2.8c0-1.2,0.2-2.2,0.6-2.8C840.4,593,841,592.7,841.9,592.7 M841.9,593.5
		c-0.5,0-0.9,0.2-1.1,0.8c-0.3,0.5-0.4,1.2-0.4,2.2s0.1,1.8,0.4,2.2c0.3,0.5,0.6,0.8,1.1,0.8s0.9-0.2,1.2-0.8
		c0.2-0.5,0.4-1.2,0.4-2.2s-0.1-1.8-0.4-2.2C842.7,593.7,842.4,593.5,841.9,593.5"/>
	<polyline class="st1" points="846.3,599.3 847.9,599.3 847.9,593.7 846.1,594.1 846.1,593.2 847.9,592.8 848.9,592.8 848.9,599.3 
		850.5,599.3 850.5,600.1 846.3,600.1 846.3,599.3 	"/>
	<path class="st1" d="M852.5,592.8h3.9v0.8h-3v1.8c0.1,0,0.3-0.1,0.4-0.1s0.3,0,0.4,0c0.8,0,1.5,0.2,1.9,0.7c0.5,0.5,0.7,1,0.7,1.8
		c0,0.8-0.2,1.4-0.7,1.8c-0.5,0.4-1.2,0.6-2.1,0.6c-0.3,0-0.6,0-0.9-0.1c-0.3,0-0.6-0.1-1-0.2v-1c0.3,0.2,0.6,0.3,0.9,0.4
		c0.3,0.1,0.6,0.1,1,0.1c0.6,0,1-0.1,1.3-0.4c0.3-0.3,0.5-0.7,0.5-1.2c0-0.5-0.2-0.9-0.5-1.2c-0.3-0.3-0.8-0.5-1.3-0.5
		c-0.3,0-0.5,0-0.8,0.1s-0.5,0.1-0.8,0.3V592.8"/>
	<line class="st1" x1="900.6" y1="585.5" x2="900.6" y2="589"/>
	<line class="st2" x1="900.6" y1="585.5" x2="900.6" y2="589"/>
	<path class="st1" d="M889.8,599.3h3.4v0.8h-4.6v-0.8c0.4-0.4,0.9-0.9,1.5-1.6c0.6-0.7,1.1-1.1,1.2-1.3c0.3-0.4,0.5-0.7,0.7-0.9
		c0.1-0.2,0.2-0.5,0.2-0.7c0-0.4-0.1-0.7-0.4-0.9c-0.3-0.2-0.6-0.4-1.1-0.4c-0.3,0-0.6,0.1-1,0.2c-0.3,0.1-0.7,0.3-1.1,0.5v-1
		c0.4-0.2,0.8-0.3,1.1-0.4c0.3-0.1,0.7-0.1,0.9-0.1c0.8,0,1.3,0.2,1.8,0.6c0.4,0.4,0.7,0.9,0.7,1.5c0,0.3-0.1,0.6-0.2,0.8
		c-0.1,0.3-0.3,0.6-0.6,1c-0.1,0.1-0.3,0.4-0.8,0.8C891.2,597.9,890.6,598.5,889.8,599.3"/>
	<path class="st1" d="M897.4,592.7c0.8,0,1.4,0.3,1.9,1c0.4,0.6,0.6,1.6,0.6,2.8c0,1.2-0.2,2.2-0.6,2.8c-0.4,0.6-1.1,1-1.9,1
		c-0.8,0-1.5-0.3-1.9-1c-0.4-0.6-0.6-1.6-0.6-2.8c0-1.2,0.2-2.2,0.6-2.8C896,593,896.6,592.7,897.4,592.7 M897.4,593.5
		c-0.5,0-0.9,0.2-1.2,0.8s-0.4,1.2-0.4,2.2s0.1,1.8,0.4,2.2s0.6,0.8,1.2,0.8c0.5,0,0.9-0.2,1.1-0.8c0.2-0.5,0.4-1.2,0.4-2.2
		s-0.1-1.8-0.4-2.2C898.3,593.7,897.9,593.5,897.4,593.5"/>
	<polyline class="st1" points="901.8,599.3 903.4,599.3 903.4,593.7 901.7,594.1 901.7,593.2 903.4,592.8 904.4,592.8 904.4,599.3 
		906,599.3 906,600.1 901.8,600.1 901.8,599.3 	"/>
	<path class="st1" d="M912.2,593v0.9c-0.2-0.1-0.5-0.2-0.8-0.3c-0.3-0.1-0.5-0.1-0.8-0.1c-0.7,0-1.2,0.2-1.5,0.7s-0.5,1.1-0.6,2
		c0.2-0.3,0.4-0.5,0.7-0.6c0.3-0.2,0.6-0.2,1-0.2c0.7,0,1.3,0.2,1.7,0.7c0.4,0.4,0.6,1,0.6,1.8c0,0.8-0.2,1.3-0.7,1.8
		c-0.4,0.5-1,0.7-1.8,0.7c-0.8,0-1.5-0.3-1.9-1c-0.4-0.6-0.7-1.6-0.7-2.8c0-1.2,0.3-2.1,0.8-2.8c0.5-0.7,1.3-1,2.2-1
		c0.2,0,0.5,0,0.8,0.1C911.7,592.8,911.9,592.9,912.2,593 M910.2,596.1c-0.4,0-0.8,0.2-1.1,0.5s-0.4,0.7-0.4,1.2
		c0,0.5,0.1,1,0.4,1.2s0.6,0.5,1.1,0.5c0.4,0,0.8-0.2,1-0.5s0.4-0.7,0.4-1.2c0-0.5-0.1-0.9-0.4-1.2S910.7,596.1,910.2,596.1"/>
	<line class="st1" x1="956.1" y1="585.5" x2="956.1" y2="589"/>
	<line class="st2" x1="956.1" y1="585.5" x2="956.1" y2="589"/>
	<path class="st1" d="M945.3,599.3h3.4v0.8h-4.6v-0.8c0.4-0.4,0.9-0.9,1.5-1.6c0.6-0.7,1.1-1.1,1.2-1.3c0.3-0.4,0.5-0.7,0.7-0.9
		c0.1-0.2,0.2-0.5,0.2-0.7c0-0.4-0.1-0.7-0.4-0.9c-0.3-0.2-0.6-0.4-1.1-0.4c-0.3,0-0.6,0.1-1,0.2c-0.3,0.1-0.7,0.3-1.1,0.5v-1
		c0.4-0.2,0.8-0.3,1.1-0.4c0.3-0.1,0.7-0.1,0.9-0.1c0.8,0,1.3,0.2,1.8,0.6c0.4,0.4,0.7,0.9,0.7,1.5c0,0.3-0.1,0.6-0.2,0.8
		c-0.1,0.3-0.3,0.6-0.6,1c-0.1,0.1-0.3,0.4-0.8,0.8C946.7,597.9,946.1,598.5,945.3,599.3"/>
	<path class="st1" d="M953,592.7c0.8,0,1.4,0.3,1.9,1c0.4,0.6,0.6,1.6,0.6,2.8c0,1.2-0.2,2.2-0.6,2.8c-0.4,0.6-1.1,1-1.9,1
		c-0.8,0-1.5-0.3-1.9-1c-0.4-0.6-0.6-1.6-0.6-2.8c0-1.2,0.2-2.2,0.6-2.8C951.5,593,952.1,592.7,953,592.7 M953,593.5
		c-0.5,0-0.9,0.2-1.2,0.8s-0.4,1.2-0.4,2.2s0.1,1.8,0.4,2.2s0.6,0.8,1.2,0.8c0.5,0,0.9-0.2,1.1-0.8c0.2-0.5,0.4-1.2,0.4-2.2
		s-0.1-1.8-0.4-2.2C953.8,593.7,953.5,593.5,953,593.5"/>
	<polyline class="st1" points="957.4,599.3 959,599.3 959,593.7 957.2,594.1 957.2,593.2 959,592.8 960,592.8 960,599.3 
		961.6,599.3 961.6,600.1 957.4,600.1 957.4,599.3 	"/>
	<polyline class="st1" points="963.3,592.8 968,592.8 968,593.3 965.4,600.1 964.3,600.1 966.8,593.7 963.3,593.7 963.3,592.8 	"/>
	<line class="st1" x1="1011.7" y1="585.5" x2="1011.7" y2="589"/>
	<line class="st2" x1="1011.7" y1="585.5" x2="1011.7" y2="589"/>
	<path class="st1" d="M1000.9,599.3h3.4v0.8h-4.6v-0.8c0.4-0.4,0.9-0.9,1.5-1.6c0.6-0.7,1.1-1.1,1.2-1.3c0.3-0.4,0.5-0.7,0.7-0.9
		c0.1-0.2,0.2-0.5,0.2-0.7c0-0.4-0.1-0.7-0.4-0.9c-0.3-0.2-0.6-0.4-1.1-0.4c-0.3,0-0.6,0.1-1,0.2c-0.3,0.1-0.7,0.3-1.1,0.5v-1
		c0.4-0.2,0.8-0.3,1.1-0.4c0.3-0.1,0.7-0.1,0.9-0.1c0.8,0,1.3,0.2,1.8,0.6c0.4,0.4,0.7,0.9,0.7,1.5c0,0.3-0.1,0.6-0.2,0.8
		c-0.1,0.3-0.3,0.6-0.6,1c-0.1,0.1-0.3,0.4-0.8,0.8C1002.3,597.9,1001.7,598.5,1000.9,599.3"/>
	<path class="st1" d="M1008.5,592.7c0.8,0,1.4,0.3,1.9,1c0.4,0.6,0.6,1.6,0.6,2.8c0,1.2-0.2,2.2-0.6,2.8c-0.4,0.6-1.1,1-1.9,1
		c-0.8,0-1.5-0.3-1.9-1c-0.4-0.6-0.6-1.6-0.6-2.8c0-1.2,0.2-2.2,0.6-2.8C1007.1,593,1007.7,592.7,1008.5,592.7 M1008.5,593.5
		c-0.5,0-0.9,0.2-1.2,0.8s-0.4,1.2-0.4,2.2s0.1,1.8,0.4,2.2s0.6,0.8,1.2,0.8c0.5,0,0.9-0.2,1.1-0.8c0.2-0.5,0.4-1.2,0.4-2.2
		s-0.1-1.8-0.4-2.2C1009.4,593.7,1009,593.5,1008.5,593.5"/>
	<polyline class="st1" points="1012.9,599.3 1014.5,599.3 1014.5,593.7 1012.8,594.1 1012.8,593.2 1014.5,592.8 1015.5,592.8 
		1015.5,599.3 1017.1,599.3 1017.1,600.1 1012.9,600.1 1012.9,599.3 	"/>
	<path class="st1" d="M1019.9,594.7c0,0.4,0.1,0.7,0.4,0.9c0.2,0.2,0.6,0.3,1,0.3c0.4,0,0.8-0.1,1-0.3c0.2-0.2,0.4-0.5,0.4-0.9
		c0-0.4-0.1-0.7-0.4-0.9c-0.2-0.2-0.6-0.3-1-0.3c-0.4,0-0.8,0.1-1,0.3C1020,594,1019.9,594.3,1019.9,594.7 M1020.2,596.2
		c-0.4-0.1-0.8-0.3-1-0.6s-0.3-0.6-0.3-1.1c0-0.6,0.2-1,0.6-1.4c0.4-0.3,1-0.5,1.7-0.5c0.7,0,1.3,0.2,1.7,0.5
		c0.4,0.3,0.6,0.8,0.6,1.4c0,0.4-0.1,0.8-0.4,1.1s-0.6,0.5-1,0.6c0.5,0.1,0.8,0.3,1.1,0.6c0.3,0.3,0.4,0.7,0.4,1.2
		c0,0.7-0.2,1.2-0.7,1.6c-0.4,0.4-1.1,0.6-1.8,0.6c-0.8,0-1.4-0.2-1.9-0.6c-0.4-0.4-0.6-0.9-0.6-1.6c0-0.5,0.1-0.9,0.4-1.2
		C1019.4,596.6,1019.8,596.4,1020.2,596.2 M1021.2,596.7c-0.5,0-0.8,0.1-1.1,0.4c-0.3,0.2-0.4,0.6-0.4,1s0.1,0.8,0.4,1
		c0.3,0.2,0.6,0.4,1.1,0.4c0.5,0,0.8-0.1,1.1-0.4c0.3-0.2,0.4-0.6,0.4-1s-0.1-0.8-0.4-1C1022.1,596.8,1021.7,596.7,1021.2,596.7"/>
	<line class="st1" x1="1067.2" y1="585.5" x2="1067.2" y2="589"/>
	<line class="st2" x1="1067.2" y1="585.5" x2="1067.2" y2="589"/>
	<path class="st1" d="M1056.4,599.3h3.4v0.8h-4.6v-0.8c0.4-0.4,0.9-0.9,1.5-1.6c0.6-0.7,1.1-1.1,1.2-1.3c0.3-0.4,0.5-0.7,0.7-0.9
		c0.1-0.2,0.2-0.5,0.2-0.7c0-0.4-0.1-0.7-0.4-0.9c-0.3-0.2-0.6-0.4-1.1-0.4c-0.3,0-0.6,0.1-1,0.2c-0.3,0.1-0.7,0.3-1.1,0.5v-1
		c0.4-0.2,0.8-0.3,1.1-0.4c0.3-0.1,0.7-0.1,0.9-0.1c0.8,0,1.3,0.2,1.8,0.6c0.4,0.4,0.7,0.9,0.7,1.5c0,0.3-0.1,0.6-0.2,0.8
		c-0.1,0.3-0.3,0.6-0.6,1c-0.1,0.1-0.3,0.4-0.8,0.8C1057.8,597.9,1057.2,598.5,1056.4,599.3"/>
	<path class="st1" d="M1064.1,592.7c0.8,0,1.4,0.3,1.9,1c0.4,0.6,0.6,1.6,0.6,2.8c0,1.2-0.2,2.2-0.6,2.8c-0.4,0.6-1.1,1-1.9,1
		c-0.8,0-1.5-0.3-1.9-1c-0.4-0.6-0.6-1.6-0.6-2.8c0-1.2,0.2-2.2,0.6-2.8C1062.6,593,1063.2,592.7,1064.1,592.7 M1064.1,593.5
		c-0.5,0-0.9,0.2-1.2,0.8s-0.4,1.2-0.4,2.2s0.1,1.8,0.4,2.2s0.6,0.8,1.2,0.8c0.5,0,0.9-0.2,1.1-0.8c0.2-0.5,0.4-1.2,0.4-2.2
		s-0.1-1.8-0.4-2.2C1065,593.7,1064.6,593.5,1064.1,593.5"/>
	<polyline class="st1" points="1068.5,599.3 1070.1,599.3 1070.1,593.7 1068.3,594.1 1068.3,593.2 1070.1,592.8 1071.1,592.8 
		1071.1,599.3 1072.7,599.3 1072.7,600.1 1068.5,600.1 1068.5,599.3 	"/>
	<path class="st1" d="M1076.7,596.9c0.4,0,0.8-0.1,1-0.5c0.3-0.3,0.4-0.7,0.4-1.2c0-0.5-0.1-0.9-0.4-1.2c-0.3-0.3-0.6-0.5-1-0.5
		c-0.4,0-0.8,0.2-1.1,0.5c-0.3,0.3-0.4,0.7-0.4,1.2c0,0.5,0.1,1,0.4,1.2C1075.9,596.7,1076.2,596.9,1076.7,596.9 M1074.7,600v-0.9
		c0.2,0.1,0.5,0.2,0.8,0.3c0.2,0.1,0.5,0.1,0.8,0.1c0.6,0,1.1-0.2,1.5-0.6c0.3-0.4,0.5-1.1,0.6-2c-0.2,0.3-0.4,0.5-0.7,0.6
		c-0.3,0.2-0.6,0.2-1,0.2c-0.7,0-1.3-0.2-1.7-0.7c-0.4-0.4-0.6-1-0.6-1.8c0-0.7,0.2-1.3,0.7-1.8c0.4-0.5,1-0.7,1.8-0.7
		c0.8,0,1.5,0.3,1.9,1c0.4,0.6,0.7,1.6,0.7,2.8c0,1.2-0.3,2.1-0.8,2.8c-0.5,0.7-1.3,1-2.2,1c-0.2,0-0.5,0-0.8-0.1
		C1075.2,600.1,1075,600.1,1074.7,600"/>
	<line class="st1" x1="3.5" y1="507" x2="0" y2="507"/>
	<line class="st2" x1="63.5" y1="507" x2="60" y2="507"/>
	<path class="st1" d="M53.2,507.5c0.4,0,0.8-0.1,1.1-0.4c0.3-0.3,0.4-0.7,0.4-1.2c0-0.5-0.1-0.9-0.4-1.2c-0.3-0.3-0.6-0.5-1.1-0.5
		s-0.8,0.2-1.1,0.5c-0.3,0.3-0.4,0.7-0.4,1.2c0,0.5,0.1,0.9,0.4,1.2C52.4,507.4,52.8,507.5,53.2,507.5 M51.2,510.6v-0.9
		c0.2,0.1,0.5,0.2,0.8,0.3c0.2,0.1,0.5,0.1,0.8,0.1c0.6,0,1.1-0.2,1.5-0.6s0.5-1.1,0.6-2c-0.2,0.3-0.4,0.5-0.7,0.6
		c-0.3,0.1-0.6,0.2-1,0.2c-0.7,0-1.3-0.2-1.7-0.7s-0.6-1-0.6-1.8c0-0.7,0.2-1.3,0.7-1.8c0.4-0.4,1-0.7,1.8-0.7c0.8,0,1.5,0.3,1.9,1
		c0.4,0.6,0.7,1.6,0.7,2.8c0,1.2-0.3,2.1-0.8,2.8c-0.6,0.7-1.3,1-2.2,1c-0.2,0-0.5,0-0.8-0.1C51.8,510.8,51.5,510.7,51.2,510.6"/>
	<line class="st1" x1="3.5" y1="406.8" x2="0" y2="406.8"/>
	<line class="st2" x1="63.5" y1="406.8" x2="60" y2="406.8"/>
	<polyline class="st1" points="45,409.8 46.6,409.8 46.6,404.2 44.9,404.6 44.9,403.7 46.6,403.3 47.6,403.3 47.6,409.8 49.2,409.8 
		49.2,410.6 45,410.6 45,409.8 	"/>
	<path class="st1" d="M53.3,403.2c0.8,0,1.4,0.3,1.9,1c0.4,0.7,0.6,1.6,0.6,2.8c0,1.2-0.2,2.2-0.6,2.8c-0.4,0.6-1.1,1-1.9,1
		c-0.8,0-1.4-0.3-1.9-1c-0.4-0.6-0.6-1.6-0.6-2.8c0-1.2,0.2-2.2,0.6-2.8C51.9,403.5,52.5,403.2,53.3,403.2 M53.3,404
		c-0.5,0-0.9,0.2-1.1,0.8s-0.4,1.2-0.4,2.2s0.1,1.8,0.4,2.2s0.6,0.8,1.1,0.8c0.5,0,0.9-0.2,1.2-0.8c0.2-0.5,0.4-1.2,0.4-2.2
		s-0.1-1.8-0.4-2.2C54.2,404.2,53.8,404,53.3,404"/>
	<line class="st1" x1="3.5" y1="306.7" x2="0" y2="306.7"/>
	<line class="st2" x1="63.5" y1="306.7" x2="60" y2="306.7"/>
	<polyline class="st1" points="45,309.6 46.6,309.6 46.6,304.1 44.9,304.4 44.9,303.5 46.6,303.2 47.6,303.2 47.6,309.6 49.2,309.6 
		49.2,310.5 45,310.5 45,309.6 	"/>
	<polyline class="st1" points="51.4,309.6 53,309.6 53,304.1 51.2,304.4 51.2,303.5 53,303.2 54,303.2 54,309.6 55.6,309.6 
		55.6,310.5 51.4,310.5 51.4,309.6 	"/>
	<line class="st1" x1="3.5" y1="206.5" x2="0" y2="206.5"/>
	<line class="st2" x1="63.5" y1="206.5" x2="60" y2="206.5"/>
	<polyline class="st1" points="45,209.5 46.6,209.5 46.6,203.9 44.9,204.3 44.9,203.4 46.6,203 47.6,203 47.6,209.5 49.2,209.5 
		49.2,210.3 45,210.3 45,209.5 	"/>
	<path class="st1" d="M52.1,209.5h3.4v0.8h-4.6v-0.8c0.4-0.4,0.9-0.9,1.5-1.6c0.6-0.6,1.1-1.1,1.2-1.3c0.3-0.4,0.5-0.6,0.7-0.9
		c0.1-0.2,0.2-0.5,0.2-0.7c0-0.4-0.1-0.7-0.4-0.9s-0.6-0.4-1.1-0.4c-0.3,0-0.6,0.1-1,0.2c-0.3,0.1-0.7,0.3-1.1,0.5v-1
		c0.4-0.2,0.8-0.3,1.1-0.4c0.3-0.1,0.7-0.1,0.9-0.1c0.8,0,1.4,0.2,1.8,0.6s0.7,0.9,0.7,1.5c0,0.3-0.1,0.6-0.2,0.9
		c-0.1,0.3-0.3,0.6-0.6,0.9c-0.1,0.1-0.3,0.4-0.8,0.8C53.5,208,52.9,208.7,52.1,209.5"/>
	<line class="st1" x1="3.5" y1="106.4" x2="0" y2="106.4"/>
	<line class="st2" x1="63.5" y1="106.4" x2="60" y2="106.4"/>
	<polyline class="st1" points="45,109.3 46.6,109.3 46.6,103.8 44.9,104.1 44.9,103.2 46.6,102.9 47.6,102.9 47.6,109.3 49.2,109.3 
		49.2,110.2 45,110.2 45,109.3 	"/>
	<path class="st1" d="M54.2,106.2c0.5,0.1,0.8,0.3,1.1,0.6c0.3,0.3,0.4,0.7,0.4,1.2c0,0.7-0.2,1.3-0.7,1.7c-0.5,0.4-1.2,0.6-2.1,0.6
		c-0.3,0-0.6,0-1-0.1c-0.3,0-0.7-0.1-1-0.3v-1c0.3,0.2,0.6,0.3,0.9,0.4c0.3,0.1,0.7,0.1,1,0.1c0.6,0,1.1-0.1,1.4-0.4
		c0.3-0.2,0.5-0.6,0.5-1.1c0-0.4-0.2-0.8-0.4-1c-0.3-0.2-0.7-0.4-1.3-0.4h-0.8v-0.8h0.9c0.5,0,0.8-0.1,1.1-0.3
		c0.3-0.2,0.4-0.5,0.4-0.8s-0.1-0.7-0.4-0.9c-0.3-0.2-0.6-0.3-1.1-0.3c-0.3,0-0.6,0-0.9,0.1s-0.6,0.2-1,0.3v-0.9
		c0.4-0.1,0.7-0.2,1.1-0.2c0.3,0,0.6-0.1,0.9-0.1c0.7,0,1.3,0.2,1.8,0.5c0.4,0.3,0.7,0.8,0.7,1.4c0,0.4-0.1,0.7-0.4,1
		C55,105.9,54.6,106.1,54.2,106.2"/>
	<g class="st1">
		<defs>
			<rect id="SVGID_3_" x="3.5" y="41.9" width="1116" height="543.6"/>
		</defs>
		<clipPath id="SVGID_4_">
			<use xlink:href="#SVGID_3_"  style="overflow:visible;"/>
		</clipPath>
		<path class="st3" d="M73,80.1c4.5,2.4,7.5,6.4,13.5,7.4c2,1,3,2,5,4c1,1,2,0,3,1c3,7,10,3,16,4c1,1,2,3,3,4c11,9,23,15,29,28
			c11,25,22,49,34,73c9,17,24,29,39,42c4,5,8,10,12,16c1,1,2,1,3,2c4,6,9,9,13,14c5,7,9,13,15,19c1,2,1,4,3,6c5,3,9,6,14,8
			s10,4,15,7c2,1,5,2,7,2c13,0,25,3,35,11c1,2,2,4,5,5c13,2,22,13,33,20c2,1,4-1,6,0c5,3,9,3,14,5c1,0,1,2,2,2c6,2,12,2,18,5
			c2,2,5,3,7,5c6,6,12,12,20,17c13,7,27,13,38,23c23,8,51,19,60,43c4,9,6,19,11,28c1,1,1,3,1,4c2,6,6,10,8,16c3,5,6,10,11,13
			c12,6,25,11,38,11c4,0,6-4,10-4c12-1,23-2,35-3c12-2,24-2,36,2c11-1,22-6,33-3c14,3,28,4,42,7c2,1,4,3,6,3c42,2,85,2,125,16
			c5-3,10,2,14,5c2,1,5,1,7,1c9,1,16,7,25,8s17,0,26,1c2,0,4,2,6,2s5-2,7-2c11-1,22-2,33-3c7-1,15,3,22,1c13-4,25,0,37.3,1"/>
	</g>
	<line class="st4" x1="67.8" y1="587.3" x2="67.8" y2="43.7"/>
	<path class="st4" d="M71.6,587.3c348.9-1.8,698.9-2.8,1047.9-3.8"/>
	<polyline class="st1" points="353.5,21.4 356.5,21.4 360.2,31.3 363.9,21.4 366.9,21.4 366.9,35.9 365,35.9 365,23.1 361.2,33.1 
		359.2,33.1 355.5,23.1 355.5,35.9 353.5,35.9 353.5,21.4 	"/>
	<path class="st1" d="M379.3,29.7v6.2h-1.8v-1.7c-0.4,0.7-0.9,1.2-1.5,1.5c-0.6,0.3-1.4,0.5-2.2,0.5c-1.1,0-2-0.3-2.7-0.9
		c-0.7-0.6-1-1.5-1-2.5c0-1.2,0.4-2.1,1.2-2.8c0.8-0.6,2-0.9,3.7-0.9h2.5v-0.2c0-0.8-0.3-1.5-0.8-1.9c-0.5-0.4-1.3-0.7-2.3-0.7
		c-0.6,0-1.2,0.1-1.8,0.2c-0.6,0.2-1.2,0.4-1.7,0.7v-1.7c0.6-0.2,1.3-0.4,1.9-0.6s1.2-0.2,1.8-0.2c1.6,0,2.8,0.4,3.5,1.2
		C378.9,26.8,379.3,28,379.3,29.7 M375.7,30.4c-1.5,0-2.5,0.2-3,0.5c-0.6,0.3-0.8,0.9-0.8,1.7c0,0.6,0.2,1.2,0.6,1.5
		c0.4,0.4,1,0.6,1.7,0.6c1,0,1.8-0.3,2.4-1.1c0.6-0.7,0.9-1.6,0.9-2.8v-0.4H375.7"/>
	<path class="st1" d="M392.1,29.3v6.6h-1.8v-6.5c0-1-0.2-1.8-0.6-2.3c-0.4-0.5-1-0.8-1.8-0.8c-1,0-1.7,0.3-2.3,0.9s-0.8,1.5-0.8,2.5
		v6.2h-1.8V25h1.8v1.7c0.4-0.6,0.9-1.1,1.5-1.5c0.6-0.3,1.3-0.5,2-0.5c1.2,0,2.2,0.4,2.8,1.2C391.7,26.7,392.1,27.8,392.1,29.3"/>
	<path class="st1" d="M400,24.7L400,24.7 M395.5,31.6V25h1.8v6.6c0,1,0.2,1.8,0.6,2.3c0.4,0.5,1,0.8,1.8,0.8c1,0,1.7-0.3,2.3-0.9
		c0.6-0.6,0.8-1.5,0.8-2.5V25h1.8v10.9h-1.8v-1.7c-0.4,0.7-1,1.2-1.5,1.5c-0.6,0.3-1.2,0.5-2,0.5c-1.3,0-2.2-0.4-2.9-1.2
		C395.8,34.3,395.5,33.1,395.5,31.6"/>
	<path class="st1" d="M413.9,20.7v1.5h-1.7c-0.6,0-1.1,0.1-1.3,0.4c-0.3,0.3-0.4,0.7-0.4,1.4v1h3v1.4h-3v9.5h-1.8v-9.5h-1.7V25h1.7
		v-0.8c0-1.2,0.3-2.1,0.8-2.7s1.5-0.8,2.7-0.8H413.9"/>
	<path class="st1" d="M423.9,29.7v6.2h-1.8v-1.7c-0.4,0.7-0.9,1.2-1.5,1.5c-0.6,0.3-1.4,0.5-2.2,0.5c-1.1,0-2-0.3-2.7-0.9
		c-0.7-0.6-1-1.5-1-2.5c0-1.2,0.4-2.1,1.2-2.8c0.8-0.6,2-0.9,3.7-0.9h2.5v-0.2c0-0.8-0.3-1.5-0.8-1.9c-0.5-0.4-1.3-0.7-2.3-0.7
		c-0.6,0-1.2,0.1-1.8,0.2c-0.6,0.2-1.2,0.4-1.7,0.7v-1.7c0.6-0.2,1.3-0.4,1.9-0.6s1.2-0.2,1.8-0.2c1.6,0,2.8,0.4,3.5,1.2
		C423.5,26.8,423.9,28,423.9,29.7 M420.4,30.4c-1.5,0-2.5,0.2-3,0.5c-0.6,0.3-0.8,0.9-0.8,1.7c0,0.6,0.2,1.2,0.6,1.5
		c0.4,0.4,1,0.6,1.7,0.6c1,0,1.8-0.3,2.4-1.1c0.6-0.7,0.9-1.6,0.9-2.8v-0.4H420.4"/>
	<path class="st1" d="M435.5,25.4v1.7c-0.5-0.3-1-0.5-1.5-0.6c-0.5-0.1-1-0.2-1.5-0.2c-1.2,0-2.1,0.4-2.7,1.1c-0.6,0.7-1,1.8-1,3.1
		c0,1.3,0.3,2.4,1,3.1c0.6,0.7,1.6,1.1,2.7,1.1c0.5,0,1-0.1,1.5-0.2c0.5-0.1,1-0.4,1.5-0.6v1.7c-0.5,0.2-1,0.4-1.6,0.5
		c-0.5,0.1-1.1,0.2-1.7,0.2c-1.6,0-3-0.5-3.9-1.5c-1-1-1.5-2.4-1.5-4.2c0-1.8,0.5-3.2,1.5-4.2c1-1,2.3-1.5,4-1.5
		c0.6,0,1.1,0.1,1.6,0.2C434.5,25,435,25.2,435.5,25.4"/>
	<path class="st1" d="M440.4,21.9V25h3.7v1.4h-3.7v5.9c0,0.9,0.1,1.5,0.4,1.7c0.2,0.3,0.7,0.4,1.5,0.4h1.8v1.5h-1.8
		c-1.4,0-2.4-0.3-2.9-0.8c-0.5-0.5-0.8-1.5-0.8-2.8v-5.9h-1.3V25h1.3v-3.1H440.4"/>
	<path class="st1" d="M450.8,24.7L450.8,24.7 M446.3,31.6V25h1.8v6.6c0,1,0.2,1.8,0.6,2.3c0.4,0.5,1,0.8,1.8,0.8
		c1,0,1.7-0.3,2.3-0.9c0.6-0.6,0.8-1.5,0.8-2.5V25h1.8v10.9h-1.8v-1.7c-0.4,0.7-1,1.2-1.5,1.5c-0.6,0.3-1.2,0.5-2,0.5
		c-1.3,0-2.2-0.4-2.9-1.2C446.6,34.3,446.3,33.1,446.3,31.6"/>
	<path class="st1" d="M465.5,26.7c-0.2-0.1-0.4-0.2-0.7-0.3c-0.2,0-0.5-0.1-0.8-0.1c-1,0-1.8,0.3-2.3,1c-0.6,0.7-0.8,1.6-0.8,2.8
		v5.8h-1.8V25h1.8v1.7c0.4-0.7,0.9-1.2,1.5-1.5c0.6-0.3,1.3-0.5,2.2-0.5c0.1,0,0.3,0,0.4,0c0.1,0,0.3,0,0.5,0.1V26.7"/>
	<path class="st1" d="M467.4,20.7h1.8V23h-1.8V20.7 M467.4,25h1.8v10.9h-1.8V25"/>
	<path class="st1" d="M482,29.3v6.6h-1.8v-6.5c0-1-0.2-1.8-0.6-2.3c-0.4-0.5-1-0.8-1.8-0.8c-1,0-1.7,0.3-2.3,0.9s-0.8,1.5-0.8,2.5
		v6.2h-1.8V25h1.8v1.7c0.4-0.6,0.9-1.1,1.5-1.5c0.6-0.3,1.3-0.5,2-0.5c1.2,0,2.2,0.4,2.8,1.2C481.7,26.7,482,27.8,482,29.3"/>
	<path class="st1" d="M494.6,34.6c0,1.8-0.4,3.2-1.2,4.1c-0.8,0.9-2.1,1.4-3.8,1.4c-0.6,0-1.2-0.1-1.8-0.1c-0.6-0.1-1.1-0.2-1.6-0.4
		v-1.7c0.5,0.3,1,0.5,1.6,0.6c0.5,0.1,1,0.2,1.6,0.2c1.2,0,2-0.3,2.6-0.9c0.6-0.6,0.9-1.5,0.9-2.8V34c-0.4,0.6-0.9,1.1-1.4,1.4
		c-0.6,0.3-1.3,0.5-2.1,0.5c-1.4,0-2.4-0.5-3.3-1.5c-0.8-1-1.2-2.4-1.2-4.1c0-1.7,0.4-3,1.2-4.1c0.8-1,1.9-1.5,3.3-1.5
		c0.8,0,1.5,0.2,2.1,0.5c0.6,0.3,1.1,0.8,1.4,1.4V25h1.8V34.6 M492.8,30.3c0-1.3-0.3-2.3-0.8-3c-0.5-0.7-1.3-1.1-2.3-1.1
		c-1,0-1.7,0.4-2.3,1.1c-0.5,0.7-0.8,1.7-0.8,3c0,1.3,0.3,2.3,0.8,3c0.5,0.7,1.3,1.1,2.3,1.1c1,0,1.7-0.4,2.3-1.1
		C492.5,32.6,492.8,31.6,492.8,30.3"/>
	<path class="st1" d="M511.6,25.3V27c-0.5-0.2-1-0.4-1.6-0.6c-0.6-0.1-1.1-0.2-1.7-0.2c-0.9,0-1.6,0.1-2,0.4
		c-0.4,0.3-0.7,0.7-0.7,1.2c0,0.4,0.2,0.7,0.5,1s1,0.5,1.9,0.7l0.6,0.1c1.3,0.3,2.2,0.7,2.7,1.2c0.5,0.5,0.8,1.2,0.8,2.1
		c0,1-0.4,1.8-1.2,2.4c-0.8,0.6-1.9,0.9-3.3,0.9c-0.6,0-1.2-0.1-1.8-0.2c-0.6-0.1-1.3-0.3-2-0.5v-1.9c0.7,0.4,1.3,0.6,2,0.8
		c0.6,0.2,1.3,0.3,1.9,0.3c0.8,0,1.5-0.1,2-0.4c0.4-0.3,0.7-0.7,0.7-1.2c0-0.5-0.2-0.9-0.5-1.1c-0.3-0.3-1-0.5-2.2-0.8l-0.6-0.1
		c-1.1-0.2-1.9-0.6-2.4-1.1c-0.5-0.5-0.7-1.1-0.7-2c0-1,0.4-1.8,1.1-2.4c0.7-0.6,1.8-0.8,3.1-0.8c0.7,0,1.3,0.1,1.9,0.2
		C510.6,25,511.1,25.1,511.6,25.3"/>
	<path class="st1" d="M528.4,25.3V27c-0.5-0.2-1-0.4-1.6-0.6c-0.6-0.1-1.1-0.2-1.7-0.2c-0.9,0-1.6,0.1-2,0.4
		c-0.4,0.3-0.7,0.7-0.7,1.2c0,0.4,0.2,0.7,0.5,1s1,0.5,1.9,0.7l0.6,0.1c1.3,0.3,2.2,0.7,2.7,1.2c0.5,0.5,0.8,1.2,0.8,2.1
		c0,1-0.4,1.8-1.2,2.4c-0.8,0.6-1.9,0.9-3.3,0.9c-0.6,0-1.2-0.1-1.8-0.2c-0.6-0.1-1.3-0.3-2-0.5v-1.9c0.7,0.4,1.3,0.6,2,0.8
		c0.6,0.2,1.3,0.3,1.9,0.3c0.8,0,1.5-0.1,2-0.4c0.4-0.3,0.7-0.7,0.7-1.2c0-0.5-0.2-0.9-0.5-1.1c-0.3-0.3-1-0.5-2.2-0.8l-0.6-0.1
		c-1.1-0.2-1.9-0.6-2.4-1.1c-0.5-0.5-0.7-1.1-0.7-2c0-1,0.4-1.8,1.1-2.4c0.7-0.6,1.8-0.8,3.1-0.8c0.7,0,1.3,0.1,1.9,0.2
		C527.4,25,527.9,25.1,528.4,25.3"/>
	<path class="st1" d="M540.9,29.3v6.6h-1.8v-6.5c0-1-0.2-1.8-0.6-2.3c-0.4-0.5-1-0.8-1.8-0.8c-1,0-1.7,0.3-2.3,0.9s-0.8,1.5-0.8,2.5
		v6.2h-1.8V20.7h1.8v6c0.4-0.6,0.9-1.1,1.5-1.5c0.6-0.3,1.3-0.5,2-0.5c1.2,0,2.2,0.4,2.8,1.2C540.6,26.7,540.9,27.8,540.9,29.3"/>
	<path class="st1" d="M553.1,29.7v6.2h-1.8v-1.7c-0.4,0.7-0.9,1.2-1.5,1.5c-0.6,0.3-1.4,0.5-2.2,0.5c-1.1,0-2-0.3-2.7-0.9
		c-0.7-0.6-1-1.5-1-2.5c0-1.2,0.4-2.1,1.2-2.8c0.8-0.6,2-0.9,3.7-0.9h2.5v-0.2c0-0.8-0.3-1.5-0.8-1.9c-0.5-0.4-1.3-0.7-2.3-0.7
		c-0.6,0-1.2,0.1-1.8,0.2c-0.6,0.2-1.2,0.4-1.7,0.7v-1.7c0.6-0.2,1.3-0.4,1.9-0.6s1.2-0.2,1.8-0.2c1.6,0,2.8,0.4,3.5,1.2
		C552.7,26.8,553.1,28,553.1,29.7 M549.5,30.4c-1.5,0-2.5,0.2-3,0.5c-0.6,0.3-0.8,0.9-0.8,1.7c0,0.6,0.2,1.2,0.6,1.5
		c0.4,0.4,1,0.6,1.7,0.6c1,0,1.8-0.3,2.4-1.1c0.6-0.7,0.9-1.6,0.9-2.8v-0.4H549.5"/>
	<path class="st1" d="M563.1,26.7c-0.2-0.1-0.4-0.2-0.7-0.3c-0.2,0-0.5-0.1-0.8-0.1c-1,0-1.8,0.3-2.3,1c-0.6,0.7-0.8,1.6-0.8,2.8
		v5.8h-1.8V25h1.8v1.7c0.4-0.7,0.9-1.2,1.5-1.5c0.6-0.3,1.3-0.5,2.2-0.5c0.1,0,0.3,0,0.4,0c0.1,0,0.3,0,0.5,0.1V26.7"/>
	<path class="st1" d="M572.6,29.5c0-1-0.3-1.8-0.8-2.4c-0.5-0.6-1.3-0.9-2.1-0.9c-1,0-1.8,0.3-2.4,0.9c-0.6,0.6-1,1.4-1,2.4H572.6
		 M574.4,30v0.9h-8.3c0.1,1.2,0.4,2.2,1.1,2.8c0.7,0.6,1.6,1,2.8,1c0.7,0,1.4-0.1,2-0.2c0.6-0.2,1.3-0.4,1.9-0.8v1.7
		c-0.6,0.3-1.3,0.5-2,0.6c-0.7,0.1-1.4,0.2-2.1,0.2c-1.8,0-3.1-0.5-4.2-1.5s-1.5-2.4-1.5-4.1c0-1.8,0.5-3.2,1.4-4.3
		c1-1,2.3-1.6,3.9-1.6c1.5,0,2.6,0.5,3.5,1.4C573.9,27.1,574.4,28.4,574.4,30"/>
	<path class="st1" d="M587.9,24.7c1.6,0,2.8,0.5,3.7,1.5c0.9,1,1.3,2.4,1.3,4.2c0,1.8-0.5,3.2-1.3,4.2c-0.9,1-2.1,1.5-3.7,1.5
		c-1.6,0-2.8-0.5-3.7-1.5c-0.9-1-1.3-2.4-1.3-4.2c0-1.8,0.4-3.2,1.3-4.2C585.1,25.3,586.3,24.7,587.9,24.7 M587.9,26.3
		c-1,0-1.7,0.4-2.3,1.1c-0.6,0.8-0.8,1.8-0.8,3.1c0,1.3,0.3,2.3,0.8,3.1s1.3,1.1,2.3,1.1c1,0,1.7-0.4,2.3-1.1s0.8-1.8,0.8-3.1
		c0-1.3-0.3-2.3-0.8-3.1C589.6,26.6,588.9,26.3,587.9,26.3"/>
	<path class="st1" d="M601.4,20.7v1.5h-1.7c-0.6,0-1.1,0.1-1.3,0.4c-0.3,0.3-0.4,0.7-0.4,1.4v1h3v1.4h-3v9.5h-1.8v-9.5h-1.7V25h1.7
		v-0.8c0-1.2,0.3-2.1,0.8-2.7s1.5-0.8,2.7-0.8H601.4"/>
	<path class="st1" d="M611.1,21.9V25h3.7v1.4h-3.7v5.9c0,0.9,0.1,1.5,0.4,1.7c0.2,0.3,0.7,0.4,1.5,0.4h1.8v1.5h-1.8
		c-1.4,0-2.4-0.3-2.9-0.8c-0.5-0.5-0.8-1.5-0.8-2.8v-5.9H608V25h1.3v-3.1H611.1"/>
	<path class="st1" d="M621.4,24.7c1.6,0,2.8,0.5,3.7,1.5c0.9,1,1.3,2.4,1.3,4.2c0,1.8-0.5,3.2-1.3,4.2c-0.9,1-2.1,1.5-3.7,1.5
		c-1.6,0-2.8-0.5-3.7-1.5c-0.9-1-1.3-2.4-1.3-4.2c0-1.8,0.4-3.2,1.3-4.2C618.6,25.3,619.8,24.7,621.4,24.7 M621.4,26.3
		c-1,0-1.7,0.4-2.3,1.1c-0.6,0.8-0.8,1.8-0.8,3.1c0,1.3,0.3,2.3,0.8,3.1s1.3,1.1,2.3,1.1c1,0,1.7-0.4,2.3-1.1s0.8-1.8,0.8-3.1
		c0-1.3-0.3-2.3-0.8-3.1C623.1,26.6,622.3,26.3,621.4,26.3"/>
	<path class="st1" d="M631.2,21.9V25h3.7v1.4h-3.7v5.9c0,0.9,0.1,1.5,0.4,1.7c0.2,0.3,0.7,0.4,1.5,0.4h1.8v1.5H633
		c-1.4,0-2.4-0.3-2.9-0.8c-0.5-0.5-0.8-1.5-0.8-2.8v-5.9H628V25h1.3v-3.1H631.2"/>
	<path class="st1" d="M645.8,29.7v6.2H644v-1.7c-0.4,0.7-0.9,1.2-1.5,1.5c-0.6,0.3-1.4,0.5-2.2,0.5c-1.1,0-2-0.3-2.7-0.9
		c-0.7-0.6-1-1.5-1-2.5c0-1.2,0.4-2.1,1.2-2.8c0.8-0.6,2-0.9,3.7-0.9h2.5v-0.2c0-0.8-0.3-1.5-0.8-1.9c-0.5-0.4-1.3-0.7-2.3-0.7
		c-0.6,0-1.2,0.1-1.8,0.2c-0.6,0.2-1.2,0.4-1.7,0.7v-1.7c0.6-0.2,1.3-0.4,1.9-0.6s1.2-0.2,1.8-0.2c1.6,0,2.8,0.4,3.5,1.2
		C645.4,26.8,645.8,28,645.8,29.7 M642.2,30.4c-1.5,0-2.5,0.2-3,0.5c-0.6,0.3-0.8,0.9-0.8,1.7c0,0.6,0.2,1.2,0.6,1.5
		c0.4,0.4,1,0.6,1.7,0.6c1,0,1.8-0.3,2.4-1.1c0.6-0.7,0.9-1.6,0.9-2.8v-0.4H642.2"/>
	<polyline class="st1" points="649.5,20.7 651.3,20.7 651.3,35.9 649.5,35.9 649.5,20.7 	"/>
	<path class="st1" d="M661.4,20.7h1.8V23h-1.8V20.7 M661.4,25h1.8v11.1c0,1.4-0.3,2.4-0.8,3c-0.5,0.6-1.4,0.9-2.6,0.9h-0.7v-1.5h0.5
		c0.7,0,1.1-0.2,1.4-0.5s0.4-1,0.4-2V25"/>
	<path class="st1" d="M671.2,24.7c1.6,0,2.8,0.5,3.7,1.5c0.9,1,1.3,2.4,1.3,4.2c0,1.8-0.5,3.2-1.3,4.2c-0.9,1-2.1,1.5-3.7,1.5
		c-1.6,0-2.8-0.5-3.7-1.5c-0.9-1-1.3-2.4-1.3-4.2c0-1.8,0.4-3.2,1.3-4.2C668.4,25.3,669.6,24.7,671.2,24.7 M671.2,26.3
		c-1,0-1.7,0.4-2.3,1.1c-0.6,0.8-0.8,1.8-0.8,3.1c0,1.3,0.3,2.3,0.8,3.1s1.3,1.1,2.3,1.1c1,0,1.7-0.4,2.3-1.1s0.8-1.8,0.8-3.1
		c0-1.3-0.3-2.3-0.8-3.1C672.9,26.6,672.2,26.3,671.2,26.3"/>
	<path class="st1" d="M680.9,26.7c0.4-0.6,0.8-1.1,1.4-1.4c0.6-0.3,1.3-0.5,2.1-0.5c1.3,0,2.4,0.5,3.2,1.6c0.8,1.1,1.2,2.4,1.2,4.2
		c0,1.7-0.4,3.1-1.2,4.2c-0.8,1-1.9,1.6-3.2,1.6c-0.8,0-1.5-0.2-2.1-0.5c-0.6-0.3-1.1-0.8-1.4-1.4v1.6h-1.8V20.7h1.8V26.7
		 M687.1,30.5c0-1.3-0.3-2.3-0.8-3.1c-0.6-0.8-1.3-1.1-2.2-1.1c-1,0-1.7,0.4-2.2,1.1c-0.6,0.8-0.8,1.8-0.8,3.1s0.3,2.4,0.8,3.1
		c0.5,0.8,1.3,1.1,2.2,1.1c0.9,0,1.7-0.4,2.2-1.1C686.8,32.8,687.1,31.8,687.1,30.5"/>
	<path class="st1" d="M698.9,25.3V27c-0.5-0.2-1-0.4-1.6-0.6c-0.6-0.1-1.1-0.2-1.7-0.2c-0.9,0-1.6,0.1-2,0.4
		c-0.4,0.3-0.7,0.7-0.7,1.2c0,0.4,0.2,0.7,0.5,1s1,0.5,1.9,0.7l0.6,0.1c1.3,0.3,2.2,0.7,2.7,1.2c0.5,0.5,0.8,1.2,0.8,2.1
		c0,1-0.4,1.8-1.2,2.4c-0.8,0.6-1.9,0.9-3.3,0.9c-0.6,0-1.2-0.1-1.8-0.2c-0.6-0.1-1.3-0.3-2-0.5v-1.9c0.7,0.4,1.3,0.6,2,0.8
		c0.6,0.2,1.3,0.3,1.9,0.3c0.8,0,1.5-0.1,2-0.4c0.4-0.3,0.7-0.7,0.7-1.2c0-0.5-0.2-0.9-0.5-1.1c-0.3-0.3-1-0.5-2.2-0.8l-0.6-0.1
		c-1.1-0.2-1.9-0.6-2.4-1.1c-0.5-0.5-0.7-1.1-0.7-2c0-1,0.4-1.8,1.1-2.4c0.7-0.6,1.8-0.8,3.1-0.8c0.7,0,1.3,0.1,1.9,0.2
		C697.8,25,698.4,25.1,698.9,25.3"/>
	<path class="st1" d="M708.7,20.7h1.8V23h-1.8V20.7 M708.7,25h1.8v10.9h-1.8V25"/>
	<path class="st1" d="M723.3,29.3v6.6h-1.8v-6.5c0-1-0.2-1.8-0.6-2.3c-0.4-0.5-1-0.8-1.8-0.8c-1,0-1.7,0.3-2.3,0.9s-0.8,1.5-0.8,2.5
		v6.2h-1.8V25h1.8v1.7c0.4-0.6,0.9-1.1,1.5-1.5c0.6-0.3,1.3-0.5,2-0.5c1.2,0,2.2,0.4,2.8,1.2C723,26.7,723.3,27.8,723.3,29.3"/>
	<path class="st1" d="M733.1,21.4h2v8.9c0,1.6,0.3,2.7,0.8,3.4c0.6,0.7,1.5,1,2.8,1c1.3,0,2.2-0.3,2.7-1c0.6-0.7,0.9-1.8,0.9-3.4
		v-8.9h2v9.1c0,1.9-0.5,3.3-1.4,4.3s-2.3,1.4-4.2,1.4c-1.8,0-3.2-0.5-4.2-1.4s-1.4-2.4-1.4-4.3V21.4"/>
	<polyline class="st1" points="748.2,33.5 750.2,33.5 750.2,35.9 748.2,35.9 748.2,33.5 	"/>
	<path class="st1" d="M763.1,21.8v1.9c-0.8-0.4-1.5-0.6-2.1-0.8c-0.7-0.2-1.3-0.3-1.9-0.3c-1.1,0-1.9,0.2-2.5,0.6
		c-0.6,0.4-0.9,1-0.9,1.8c0,0.6,0.2,1.1,0.6,1.5c0.4,0.3,1.1,0.6,2.2,0.8l1.2,0.2c1.5,0.3,2.5,0.8,3.2,1.5c0.7,0.7,1.1,1.7,1.1,2.8
		c0,1.4-0.5,2.5-1.4,3.2c-1,0.7-2.3,1.1-4.2,1.1c-0.7,0-1.4-0.1-2.2-0.2c-0.8-0.1-1.6-0.4-2.4-0.7v-2c0.8,0.5,1.6,0.8,2.3,1
		c0.8,0.2,1.5,0.3,2.3,0.3c1.1,0,2-0.2,2.6-0.7c0.6-0.4,0.9-1.1,0.9-1.9c0-0.7-0.2-1.3-0.7-1.7s-1.2-0.7-2.2-0.9l-1.2-0.2
		c-1.5-0.3-2.5-0.7-3.2-1.4c-0.7-0.6-1-1.5-1-2.6c0-1.3,0.4-2.3,1.4-3c0.9-0.7,2.2-1.1,3.8-1.1c0.7,0,1.4,0.1,2.1,0.2
		C761.6,21.4,762.3,21.6,763.1,21.8"/>
	<polyline class="st1" points="767.2,33.5 769.3,33.5 769.3,35.9 767.2,35.9 767.2,33.5 	"/>
	<g class="st1">
		<defs>
			<rect id="SVGID_5_" x="476" y="11.3" width="56.3" height="33.9"/>
		</defs>
		<clipPath id="SVGID_6_">
			<use xlink:href="#SVGID_5_"  style="overflow:visible;"/>
		</clipPath>
		<polyline class="st5" points="498.9,21.4 501,21.4 501,22.8 499.4,26 498.1,26 498.9,22.8 498.9,21.4 		"/>
	</g>
</g>
<rect x="35.7" y="40.4" class="st6" width="89.1" height="67.4"/>
<text transform="matrix(1 0 0 1 35.7397 50.3386)" class="st7 st8">15%</text>
<line class="st6" x1="900.6" y1="585.5" x2="901.2" y2="41.9"/>
<path class="st6" d="M900.6,585.5c0-181.2,0-362.4,0-543.6c0,96.4,0,192.8,0,289.1C900.6,415.9,900.6,500.7,900.6,585.5z"/>
<g>
	<g>
		<defs>
			<line id="SVGID_7_" x1="900.6" y1="585.5" x2="901.2" y2="41.9"/>
		</defs>
		<clipPath id="SVGID_8_">
			<use xlink:href="#SVGID_7_"  style="overflow:visible;"/>
		</clipPath>
		<g class="st9">
		</g>
	</g>
</g>
<g>
	<line class="st10" x1="900.6" y1="585.5" x2="901.2" y2="41.9"/>
	<g>
		<line class="st11" x1="900.6" y1="585.5" x2="900.6" y2="579.5"/>
		<line class="st12" x1="900.6" y1="567.7" x2="901.2" y2="53.8"/>
		<line class="st11" x1="901.2" y1="47.9" x2="901.2" y2="41.9"/>
	</g>
</g>
<rect x="68.5" y="615.1" class="st6" width="281" height="31.4"/>
<text transform="matrix(1 0 0 1 68.5091 625.0168)" class="st7 st8">Data Source: U.S. Bureau of Labor Statistics</text>
</svg>
