<?xml version="1.0" encoding="utf-8"?>
<!-- Generator: Adobe Illustrator 23.0.4, SVG Export Plug-In . SVG Version: 6.00 Build 0)  -->
<svg version="1.1" id="Layer_1" xmlns="http://www.w3.org/2000/svg" xmlns:xlink="http://www.w3.org/1999/xlink" x="0px" y="0px"
	 viewBox="0 0 1180.6 671.1" style="enable-background:new 0 0 1180.6 671.1;" xml:space="preserve">
<style type="text/css">
	.st0{clip-path:url(#SVGID_2_);}
	.st1{clip-path:url(#SVGID_2_);fill:none;stroke:#000000;stroke-width:0.8;stroke-linejoin:round;stroke-miterlimit:10;}
	
		.st2{clip-path:url(#SVGID_4_);fill:none;stroke:#0C2C84;stroke-width:5;stroke-linecap:square;stroke-linejoin:round;stroke-miterlimit:10;}
	
		.st3{clip-path:url(#SVGID_6_);fill:none;stroke:#225EA8;stroke-width:5;stroke-linecap:square;stroke-linejoin:round;stroke-miterlimit:10;}
	
		.st4{clip-path:url(#SVGID_8_);fill:none;stroke:#1D91C0;stroke-width:5;stroke-linecap:square;stroke-linejoin:round;stroke-miterlimit:10;}
	
		.st5{clip-path:url(#SVGID_10_);fill:none;stroke:#41B6C4;stroke-width:5;stroke-linecap:square;stroke-linejoin:round;stroke-miterlimit:10;}
	
		.st6{clip-path:url(#SVGID_12_);fill:none;stroke:#FF0000;stroke-width:5;stroke-linecap:square;stroke-linejoin:round;stroke-miterlimit:10;}
	
		.st7{clip-path:url(#SVGID_14_);fill:none;stroke:#7FCDBB;stroke-width:5;stroke-linecap:square;stroke-linejoin:round;stroke-miterlimit:10;}
	
		.st8{clip-path:url(#SVGID_16_);fill:none;stroke:#C7E9B4;stroke-width:5;stroke-linecap:square;stroke-linejoin:round;stroke-miterlimit:10;}
	.st9{clip-path:url(#SVGID_2_);fill:none;stroke:#000000;stroke-width:0.8;stroke-linecap:square;stroke-miterlimit:10;}
	.st10{opacity:0.8;fill:#FFFFFF;}
	.st11{opacity:0.8;fill:none;stroke:#CCCCCC;stroke-miterlimit:10;}
	
		.st12{clip-path:url(#SVGID_2_);fill:none;stroke:#0C2C84;stroke-width:5;stroke-linecap:square;stroke-linejoin:round;stroke-miterlimit:10;}
	
		.st13{clip-path:url(#SVGID_2_);fill:none;stroke:#225EA8;stroke-width:5;stroke-linecap:square;stroke-linejoin:round;stroke-miterlimit:10;}
	
		.st14{clip-path:url(#SVGID_2_);fill:none;stroke:#1D91C0;stroke-width:5;stroke-linecap:square;stroke-linejoin:round;stroke-miterlimit:10;}
	
		.st15{clip-path:url(#SVGID_2_);fill:none;stroke:#41B6C4;stroke-width:5;stroke-linecap:square;stroke-linejoin:round;stroke-miterlimit:10;}
	
		.st16{clip-path:url(#SVGID_2_);fill:none;stroke:#FF0000;stroke-width:5;stroke-linecap:square;stroke-linejoin:round;stroke-miterlimit:10;}
	
		.st17{clip-path:url(#SVGID_2_);fill:none;stroke:#7FCDBB;stroke-width:5;stroke-linecap:square;stroke-linejoin:round;stroke-miterlimit:10;}
	
		.st18{clip-path:url(#SVGID_2_);fill:none;stroke:#C7E9B4;stroke-width:5;stroke-linecap:square;stroke-linejoin:round;stroke-miterlimit:10;}
	.st19{fill:none;}
	.st20{font-family:'MyriadPro-Regular';}
	.st21{font-size:14px;}
	.st22{font-size:18px;}
</style>
<g>
	<defs>
		<rect id="SVGID_1_" x="-142.9" width="1440" height="720"/>
	</defs>
	<clipPath id="SVGID_2_">
		<use xlink:href="#SVGID_1_"  style="overflow:visible;"/>
	</clipPath>
	<line class="st0" x1="87.8" y1="630" x2="87.8" y2="633.5"/>
	<line class="st1" x1="87.8" y1="630" x2="87.8" y2="633.5"/>
	<polyline class="st0" points="76.3,643.8 77.9,643.8 77.9,638.2 76.2,638.6 76.2,637.7 77.9,637.3 78.9,637.3 78.9,643.8 
		80.5,643.8 80.5,644.6 76.3,644.6 76.3,643.8 	"/>
	<path class="st0" d="M84.5,641.4c0.4,0,0.8-0.2,1.1-0.5s0.4-0.7,0.4-1.2c0-0.5-0.1-0.9-0.4-1.2s-0.6-0.5-1.1-0.5s-0.8,0.2-1.1,0.5
		c-0.3,0.3-0.4,0.7-0.4,1.2c0,0.5,0.1,1,0.4,1.2C83.7,641.2,84,641.4,84.5,641.4 M82.5,644.4v-0.9c0.2,0.1,0.5,0.2,0.8,0.3
		c0.2,0.1,0.5,0.1,0.8,0.1c0.6,0,1.1-0.2,1.5-0.6c0.3-0.4,0.5-1.1,0.6-2c-0.2,0.3-0.4,0.5-0.7,0.6c-0.3,0.2-0.6,0.2-1,0.2
		c-0.7,0-1.3-0.2-1.7-0.7s-0.6-1-0.6-1.8c0-0.7,0.2-1.3,0.7-1.8c0.4-0.5,1-0.7,1.8-0.7c0.8,0,1.5,0.3,1.9,1c0.4,0.7,0.7,1.6,0.7,2.8
		c0,1.2-0.3,2.1-0.8,2.8c-0.6,0.7-1.3,1-2.2,1c-0.2,0-0.5,0-0.8-0.1C83.1,644.6,82.8,644.5,82.5,644.4"/>
	<path class="st0" d="M90.8,641.4c0.4,0,0.8-0.2,1.1-0.5s0.4-0.7,0.4-1.2c0-0.5-0.1-0.9-0.4-1.2s-0.6-0.5-1.1-0.5s-0.8,0.2-1.1,0.5
		c-0.3,0.3-0.4,0.7-0.4,1.2c0,0.5,0.1,1,0.4,1.2C90.1,641.2,90.4,641.4,90.8,641.4 M88.9,644.4v-0.9c0.2,0.1,0.5,0.2,0.8,0.3
		c0.2,0.1,0.5,0.1,0.8,0.1c0.6,0,1.1-0.2,1.5-0.6c0.3-0.4,0.5-1.1,0.6-2c-0.2,0.3-0.4,0.5-0.7,0.6c-0.3,0.2-0.6,0.2-1,0.2
		c-0.7,0-1.3-0.2-1.7-0.7s-0.6-1-0.6-1.8c0-0.7,0.2-1.3,0.7-1.8c0.4-0.5,1-0.7,1.8-0.7c0.8,0,1.5,0.3,1.9,1c0.4,0.7,0.7,1.6,0.7,2.8
		c0,1.2-0.3,2.1-0.8,2.8c-0.6,0.7-1.3,1-2.2,1c-0.2,0-0.5,0-0.8-0.1C89.4,644.6,89.2,644.5,88.9,644.4"/>
	<polyline class="st0" points="95,637.3 99.7,637.3 99.7,637.7 97,644.6 96,644.6 98.5,638.1 95,638.1 95,637.3 	"/>
	<line class="st0" x1="136.1" y1="630" x2="136.1" y2="633.5"/>
	<line class="st1" x1="136.1" y1="630" x2="136.1" y2="633.5"/>
	<polyline class="st0" points="124.6,643.8 126.2,643.8 126.2,638.2 124.5,638.6 124.5,637.7 126.2,637.3 127.2,637.3 127.2,643.8 
		128.8,643.8 128.8,644.6 124.6,644.6 124.6,643.8 	"/>
	<path class="st0" d="M132.8,641.4c0.4,0,0.8-0.2,1-0.5c0.3-0.3,0.4-0.7,0.4-1.2c0-0.5-0.1-0.9-0.4-1.2c-0.3-0.3-0.6-0.5-1-0.5
		s-0.8,0.2-1,0.5c-0.3,0.3-0.4,0.7-0.4,1.2c0,0.5,0.1,1,0.4,1.2C132,641.2,132.4,641.4,132.8,641.4 M130.8,644.4v-0.9
		c0.2,0.1,0.5,0.2,0.8,0.3c0.2,0.1,0.5,0.1,0.8,0.1c0.6,0,1.1-0.2,1.5-0.6c0.3-0.4,0.5-1.1,0.6-2c-0.2,0.3-0.4,0.5-0.7,0.6
		c-0.3,0.2-0.6,0.2-1,0.2c-0.7,0-1.3-0.2-1.7-0.7c-0.4-0.4-0.6-1-0.6-1.8c0-0.7,0.2-1.3,0.7-1.8c0.4-0.5,1-0.7,1.8-0.7
		c0.8,0,1.5,0.3,1.9,1c0.4,0.7,0.7,1.6,0.7,2.8c0,1.2-0.3,2.1-0.8,2.8c-0.5,0.7-1.3,1-2.2,1c-0.2,0-0.5,0-0.8-0.1
		C131.4,644.6,131.1,644.5,130.8,644.4"/>
	<path class="st0" d="M139.2,641.4c0.4,0,0.8-0.2,1-0.5c0.3-0.3,0.4-0.7,0.4-1.2c0-0.5-0.1-0.9-0.4-1.2c-0.3-0.3-0.6-0.5-1-0.5
		s-0.8,0.2-1,0.5c-0.3,0.3-0.4,0.7-0.4,1.2c0,0.5,0.1,1,0.4,1.2C138.4,641.2,138.7,641.4,139.2,641.4 M137.2,644.4v-0.9
		c0.2,0.1,0.5,0.2,0.8,0.3c0.2,0.1,0.5,0.1,0.8,0.1c0.6,0,1.1-0.2,1.5-0.6c0.3-0.4,0.5-1.1,0.6-2c-0.2,0.3-0.4,0.5-0.7,0.6
		c-0.3,0.2-0.6,0.2-1,0.2c-0.7,0-1.3-0.2-1.7-0.7c-0.4-0.4-0.6-1-0.6-1.8c0-0.7,0.2-1.3,0.7-1.8c0.4-0.5,1-0.7,1.8-0.7
		c0.8,0,1.5,0.3,1.9,1c0.4,0.7,0.7,1.6,0.7,2.8c0,1.2-0.3,2.1-0.8,2.8c-0.5,0.7-1.3,1-2.2,1c-0.2,0-0.5,0-0.8-0.1
		C137.7,644.6,137.5,644.5,137.2,644.4"/>
	<path class="st0" d="M144.3,639.2c0,0.4,0.1,0.7,0.4,0.9c0.2,0.2,0.6,0.3,1,0.3c0.4,0,0.8-0.1,1-0.3c0.2-0.2,0.4-0.5,0.4-0.9
		s-0.1-0.7-0.4-0.9c-0.2-0.2-0.6-0.3-1-0.3c-0.4,0-0.8,0.1-1,0.3C144.4,638.5,144.3,638.8,144.3,639.2 M144.6,640.7
		c-0.4-0.1-0.8-0.3-1-0.6c-0.2-0.3-0.4-0.6-0.4-1.1c0-0.6,0.2-1,0.6-1.4c0.4-0.3,1-0.5,1.7-0.5c0.7,0,1.3,0.2,1.7,0.5
		c0.4,0.3,0.6,0.8,0.6,1.4c0,0.4-0.1,0.8-0.4,1.1c-0.2,0.3-0.6,0.5-1,0.6c0.5,0.1,0.8,0.3,1.1,0.7c0.3,0.3,0.4,0.7,0.4,1.2
		c0,0.7-0.2,1.2-0.6,1.6c-0.4,0.4-1,0.6-1.9,0.6c-0.8,0-1.4-0.2-1.9-0.6c-0.4-0.4-0.6-0.9-0.6-1.6c0-0.5,0.1-0.9,0.4-1.2
		C143.8,641,144.2,640.8,144.6,640.7 M145.6,641.1c-0.5,0-0.8,0.1-1.1,0.4c-0.3,0.2-0.4,0.6-0.4,1s0.1,0.8,0.4,1
		c0.3,0.2,0.6,0.4,1.1,0.4c0.5,0,0.8-0.1,1.1-0.4c0.3-0.2,0.4-0.6,0.4-1s-0.1-0.8-0.4-1C146.5,641.3,146.1,641.1,145.6,641.1"/>
	<line class="st0" x1="184.4" y1="630" x2="184.4" y2="633.5"/>
	<line class="st1" x1="184.4" y1="630" x2="184.4" y2="633.5"/>
	<polyline class="st0" points="172.9,643.8 174.5,643.8 174.5,638.2 172.8,638.6 172.8,637.7 174.5,637.3 175.5,637.3 175.5,643.8 
		177.1,643.8 177.1,644.6 172.9,644.6 172.9,643.8 	"/>
	<path class="st0" d="M181.1,641.4c0.4,0,0.8-0.2,1-0.5c0.3-0.3,0.4-0.7,0.4-1.2c0-0.5-0.1-0.9-0.4-1.2c-0.3-0.3-0.6-0.5-1-0.5
		s-0.8,0.2-1,0.5c-0.3,0.3-0.4,0.7-0.4,1.2c0,0.5,0.1,1,0.4,1.2C180.3,641.2,180.7,641.4,181.1,641.4 M179.1,644.4v-0.9
		c0.2,0.1,0.5,0.2,0.8,0.3c0.2,0.1,0.5,0.1,0.8,0.1c0.6,0,1.1-0.2,1.5-0.6c0.3-0.4,0.5-1.1,0.6-2c-0.2,0.3-0.4,0.5-0.7,0.6
		c-0.3,0.2-0.6,0.2-1,0.2c-0.7,0-1.3-0.2-1.7-0.7c-0.4-0.4-0.6-1-0.6-1.8c0-0.7,0.2-1.3,0.7-1.8c0.4-0.5,1-0.7,1.8-0.7
		c0.8,0,1.5,0.3,1.9,1c0.4,0.7,0.7,1.6,0.7,2.8c0,1.2-0.3,2.1-0.8,2.8c-0.5,0.7-1.3,1-2.2,1c-0.2,0-0.5,0-0.8-0.1
		C179.7,644.6,179.4,644.5,179.1,644.4"/>
	<path class="st0" d="M187.5,641.4c0.4,0,0.8-0.2,1-0.5c0.3-0.3,0.4-0.7,0.4-1.2c0-0.5-0.1-0.9-0.4-1.2c-0.3-0.3-0.6-0.5-1-0.5
		s-0.8,0.2-1,0.5c-0.3,0.3-0.4,0.7-0.4,1.2c0,0.5,0.1,1,0.4,1.2C186.7,641.2,187,641.4,187.5,641.4 M185.5,644.4v-0.9
		c0.2,0.1,0.5,0.2,0.8,0.3c0.2,0.1,0.5,0.1,0.8,0.1c0.6,0,1.1-0.2,1.5-0.6c0.3-0.4,0.5-1.1,0.6-2c-0.2,0.3-0.4,0.5-0.7,0.6
		c-0.3,0.2-0.6,0.2-1,0.2c-0.7,0-1.3-0.2-1.7-0.7c-0.4-0.4-0.6-1-0.6-1.8c0-0.7,0.2-1.3,0.7-1.8c0.4-0.5,1-0.7,1.8-0.7
		c0.8,0,1.5,0.3,1.9,1c0.4,0.7,0.7,1.6,0.7,2.8c0,1.2-0.3,2.1-0.8,2.8c-0.5,0.7-1.3,1-2.2,1c-0.2,0-0.5,0-0.8-0.1
		C186,644.6,185.8,644.5,185.5,644.4"/>
	<path class="st0" d="M193.8,641.4c0.4,0,0.8-0.2,1-0.5c0.3-0.3,0.4-0.7,0.4-1.2c0-0.5-0.1-0.9-0.4-1.2c-0.3-0.3-0.6-0.5-1-0.5
		s-0.8,0.2-1,0.5c-0.3,0.3-0.4,0.7-0.4,1.2c0,0.5,0.1,1,0.4,1.2C193,641.2,193.4,641.4,193.8,641.4 M191.9,644.4v-0.9
		c0.2,0.1,0.5,0.2,0.8,0.3c0.2,0.1,0.5,0.1,0.8,0.1c0.6,0,1.1-0.2,1.5-0.6c0.3-0.4,0.5-1.1,0.6-2c-0.2,0.3-0.4,0.5-0.7,0.6
		c-0.3,0.2-0.6,0.2-1,0.2c-0.7,0-1.3-0.2-1.7-0.7c-0.4-0.4-0.6-1-0.6-1.8c0-0.7,0.2-1.3,0.7-1.8c0.4-0.5,1-0.7,1.8-0.7
		c0.8,0,1.5,0.3,1.9,1c0.4,0.7,0.7,1.6,0.7,2.8c0,1.2-0.3,2.1-0.8,2.8c-0.5,0.7-1.3,1-2.2,1c-0.2,0-0.5,0-0.8-0.1
		C192.4,644.6,192.1,644.5,191.9,644.4"/>
	<line class="st0" x1="232.7" y1="630" x2="232.7" y2="633.5"/>
	<line class="st1" x1="232.7" y1="630" x2="232.7" y2="633.5"/>
	<path class="st0" d="M221.9,643.8h3.4v0.8h-4.6v-0.8c0.4-0.4,0.9-0.9,1.5-1.6c0.6-0.6,1-1.1,1.2-1.3c0.3-0.3,0.5-0.6,0.7-0.9
		c0.1-0.2,0.2-0.5,0.2-0.7c0-0.4-0.1-0.7-0.4-0.9c-0.3-0.2-0.6-0.4-1.1-0.4c-0.3,0-0.6,0.1-1,0.2c-0.3,0.1-0.7,0.3-1.1,0.5v-1
		c0.4-0.2,0.8-0.3,1.1-0.4c0.3-0.1,0.7-0.1,0.9-0.1c0.8,0,1.4,0.2,1.8,0.6c0.4,0.4,0.7,0.9,0.7,1.5c0,0.3-0.1,0.6-0.2,0.8
		c-0.1,0.3-0.3,0.6-0.6,1c-0.1,0.1-0.3,0.4-0.8,0.8C223.3,642.3,222.7,643,221.9,643.8"/>
	<path class="st0" d="M229.5,637.2c0.8,0,1.4,0.3,1.9,1c0.4,0.7,0.7,1.6,0.7,2.8c0,1.2-0.2,2.2-0.7,2.8c-0.4,0.6-1.1,1-1.9,1
		c-0.8,0-1.4-0.3-1.9-1c-0.4-0.6-0.6-1.6-0.6-2.8c0-1.2,0.2-2.2,0.6-2.8C228.1,637.5,228.7,637.2,229.5,637.2 M229.5,638
		c-0.5,0-0.9,0.2-1.1,0.8S228,640,228,641s0.1,1.8,0.4,2.2s0.6,0.8,1.1,0.8c0.5,0,0.9-0.2,1.1-0.8c0.2-0.5,0.4-1.2,0.4-2.2
		s-0.1-1.8-0.4-2.2C230.4,638.2,230,638,229.5,638"/>
	<path class="st0" d="M235.9,637.2c0.8,0,1.4,0.3,1.9,1c0.4,0.7,0.7,1.6,0.7,2.8c0,1.2-0.2,2.2-0.7,2.8c-0.4,0.6-1.1,1-1.9,1
		c-0.8,0-1.4-0.3-1.9-1c-0.4-0.6-0.6-1.6-0.6-2.8c0-1.2,0.2-2.2,0.6-2.8C234.4,637.5,235.1,637.2,235.9,637.2 M235.9,638
		c-0.5,0-0.9,0.2-1.1,0.8s-0.4,1.2-0.4,2.2s0.1,1.8,0.4,2.2s0.6,0.8,1.1,0.8c0.5,0,0.9-0.2,1.1-0.8c0.2-0.5,0.4-1.2,0.4-2.2
		s-0.1-1.8-0.4-2.2C236.8,638.2,236.4,638,235.9,638"/>
	<path class="st0" d="M242.3,637.2c0.8,0,1.4,0.3,1.9,1c0.4,0.7,0.7,1.6,0.7,2.8c0,1.2-0.2,2.2-0.7,2.8c-0.4,0.6-1.1,1-1.9,1
		c-0.8,0-1.4-0.3-1.9-1c-0.4-0.6-0.6-1.6-0.6-2.8c0-1.2,0.2-2.2,0.6-2.8C240.8,637.5,241.4,637.2,242.3,637.2 M242.3,638
		c-0.5,0-0.9,0.2-1.1,0.8s-0.4,1.2-0.4,2.2s0.1,1.8,0.4,2.2s0.6,0.8,1.1,0.8c0.5,0,0.9-0.2,1.1-0.8c0.2-0.5,0.4-1.2,0.4-2.2
		s-0.1-1.8-0.4-2.2C243.1,638.2,242.8,638,242.3,638"/>
	<line class="st0" x1="281" y1="630" x2="281" y2="633.5"/>
	<line class="st1" x1="281" y1="630" x2="281" y2="633.5"/>
	<path class="st0" d="M270.2,643.8h3.4v0.8H269v-0.8c0.4-0.4,0.9-0.9,1.5-1.6c0.6-0.6,1-1.1,1.2-1.3c0.3-0.3,0.5-0.6,0.7-0.9
		c0.1-0.2,0.2-0.5,0.2-0.7c0-0.4-0.1-0.7-0.4-0.9c-0.3-0.2-0.6-0.4-1.1-0.4c-0.3,0-0.6,0.1-1,0.2c-0.3,0.1-0.7,0.3-1.1,0.5v-1
		c0.4-0.2,0.8-0.3,1.1-0.4c0.3-0.1,0.7-0.1,0.9-0.1c0.8,0,1.4,0.2,1.8,0.6c0.4,0.4,0.7,0.9,0.7,1.5c0,0.3-0.1,0.6-0.2,0.8
		c-0.1,0.3-0.3,0.6-0.6,1c-0.1,0.1-0.3,0.4-0.8,0.8C271.6,642.3,271,643,270.2,643.8"/>
	<path class="st0" d="M277.8,637.2c0.8,0,1.4,0.3,1.9,1c0.4,0.7,0.7,1.6,0.7,2.8c0,1.2-0.2,2.2-0.7,2.8c-0.4,0.6-1.1,1-1.9,1
		c-0.8,0-1.4-0.3-1.9-1c-0.4-0.6-0.6-1.6-0.6-2.8c0-1.2,0.2-2.2,0.6-2.8C276.4,637.5,277,637.2,277.8,637.2 M277.8,638
		c-0.5,0-0.9,0.2-1.1,0.8s-0.4,1.2-0.4,2.2s0.1,1.8,0.4,2.2s0.6,0.8,1.1,0.8c0.5,0,0.9-0.2,1.1-0.8c0.2-0.5,0.4-1.2,0.4-2.2
		s-0.1-1.8-0.4-2.2C278.7,638.2,278.4,638,277.8,638"/>
	<path class="st0" d="M284.2,637.2c0.8,0,1.4,0.3,1.9,1c0.4,0.7,0.7,1.6,0.7,2.8c0,1.2-0.2,2.2-0.7,2.8c-0.4,0.6-1.1,1-1.9,1
		c-0.8,0-1.4-0.3-1.9-1c-0.4-0.6-0.6-1.6-0.6-2.8c0-1.2,0.2-2.2,0.6-2.8C282.8,637.5,283.4,637.2,284.2,637.2 M284.2,638
		c-0.5,0-0.9,0.2-1.1,0.8s-0.4,1.2-0.4,2.2s0.1,1.8,0.4,2.2s0.6,0.8,1.1,0.8c0.5,0,0.9-0.2,1.1-0.8c0.2-0.5,0.4-1.2,0.4-2.2
		s-0.1-1.8-0.4-2.2C285.1,638.2,284.7,638,284.2,638"/>
	<polyline class="st0" points="288.6,643.8 290.2,643.8 290.2,638.2 288.5,638.6 288.5,637.7 290.2,637.3 291.2,637.3 291.2,643.8 
		292.8,643.8 292.8,644.6 288.6,644.6 288.6,643.8 	"/>
	<line class="st0" x1="329.3" y1="630" x2="329.3" y2="633.5"/>
	<line class="st1" x1="329.3" y1="630" x2="329.3" y2="633.5"/>
	<path class="st0" d="M318.5,643.8h3.4v0.8h-4.6v-0.8c0.4-0.4,0.9-0.9,1.5-1.6c0.6-0.6,1-1.1,1.2-1.3c0.3-0.3,0.5-0.6,0.7-0.9
		c0.1-0.2,0.2-0.5,0.2-0.7c0-0.4-0.1-0.7-0.4-0.9c-0.3-0.2-0.6-0.4-1.1-0.4c-0.3,0-0.6,0.1-1,0.2c-0.3,0.1-0.7,0.3-1.1,0.5v-1
		c0.4-0.2,0.8-0.3,1.1-0.4c0.3-0.1,0.7-0.1,0.9-0.1c0.8,0,1.4,0.2,1.8,0.6c0.4,0.4,0.7,0.9,0.7,1.5c0,0.3-0.1,0.6-0.2,0.8
		c-0.1,0.3-0.3,0.6-0.6,1c-0.1,0.1-0.3,0.4-0.8,0.8C319.9,642.3,319.3,643,318.5,643.8"/>
	<path class="st0" d="M326.2,637.2c0.8,0,1.4,0.3,1.9,1c0.4,0.7,0.7,1.6,0.7,2.8c0,1.2-0.2,2.2-0.7,2.8c-0.4,0.6-1.1,1-1.9,1
		c-0.8,0-1.4-0.3-1.9-1c-0.4-0.6-0.6-1.6-0.6-2.8c0-1.2,0.2-2.2,0.6-2.8C324.7,637.5,325.3,637.2,326.2,637.2 M326.2,638
		c-0.5,0-0.9,0.2-1.1,0.8s-0.4,1.2-0.4,2.2s0.1,1.8,0.4,2.2s0.6,0.8,1.1,0.8c0.5,0,0.9-0.2,1.1-0.8c0.2-0.5,0.4-1.2,0.4-2.2
		s-0.1-1.8-0.4-2.2C327.1,638.2,326.7,638,326.2,638"/>
	<path class="st0" d="M332.5,637.2c0.8,0,1.4,0.3,1.9,1c0.4,0.7,0.7,1.6,0.7,2.8c0,1.2-0.2,2.2-0.7,2.8c-0.4,0.6-1.1,1-1.9,1
		c-0.8,0-1.4-0.3-1.9-1c-0.4-0.6-0.6-1.6-0.6-2.8c0-1.2,0.2-2.2,0.6-2.8C331.1,637.5,331.7,637.2,332.5,637.2 M332.5,638
		c-0.5,0-0.9,0.2-1.1,0.8S331,640,331,641s0.1,1.8,0.4,2.2s0.6,0.8,1.1,0.8c0.5,0,0.9-0.2,1.1-0.8c0.2-0.5,0.4-1.2,0.4-2.2
		s-0.1-1.8-0.4-2.2C333.4,638.2,333,638,332.5,638"/>
	<path class="st0" d="M337.6,643.8h3.4v0.8h-4.6v-0.8c0.4-0.4,0.9-0.9,1.5-1.6c0.6-0.6,1-1.1,1.2-1.3c0.3-0.3,0.5-0.6,0.7-0.9
		c0.1-0.2,0.2-0.5,0.2-0.7c0-0.4-0.1-0.7-0.4-0.9c-0.3-0.2-0.6-0.4-1.1-0.4c-0.3,0-0.6,0.1-1,0.2c-0.3,0.1-0.7,0.3-1.1,0.5v-1
		c0.4-0.2,0.8-0.3,1.1-0.4c0.3-0.1,0.7-0.1,0.9-0.1c0.8,0,1.4,0.2,1.8,0.6c0.4,0.4,0.7,0.9,0.7,1.5c0,0.3-0.1,0.6-0.2,0.8
		c-0.1,0.3-0.3,0.6-0.6,1c-0.1,0.1-0.3,0.4-0.8,0.8C339,642.3,338.4,643,337.6,643.8"/>
	<line class="st0" x1="377.7" y1="630" x2="377.7" y2="633.5"/>
	<line class="st1" x1="377.7" y1="630" x2="377.7" y2="633.5"/>
	<path class="st0" d="M366.9,643.8h3.4v0.8h-4.6v-0.8c0.4-0.4,0.9-0.9,1.5-1.6c0.6-0.6,1-1.1,1.2-1.3c0.3-0.3,0.5-0.6,0.7-0.9
		c0.1-0.2,0.2-0.5,0.2-0.7c0-0.4-0.1-0.7-0.4-0.9c-0.3-0.2-0.6-0.4-1.1-0.4c-0.3,0-0.6,0.1-1,0.2c-0.3,0.1-0.7,0.3-1.1,0.5v-1
		c0.4-0.2,0.8-0.3,1.1-0.4c0.3-0.1,0.7-0.1,0.9-0.1c0.8,0,1.4,0.2,1.8,0.6s0.7,0.9,0.7,1.5c0,0.3-0.1,0.6-0.2,0.8
		c-0.1,0.3-0.3,0.6-0.6,1c-0.1,0.1-0.3,0.4-0.8,0.8C368.3,642.3,367.6,643,366.9,643.8"/>
	<path class="st0" d="M374.5,637.2c0.8,0,1.4,0.3,1.9,1c0.4,0.7,0.7,1.6,0.7,2.8c0,1.2-0.2,2.2-0.7,2.8c-0.4,0.6-1.1,1-1.9,1
		c-0.8,0-1.5-0.3-1.9-1c-0.4-0.6-0.6-1.6-0.6-2.8c0-1.2,0.2-2.2,0.6-2.8C373,637.5,373.7,637.2,374.5,637.2 M374.5,638
		c-0.5,0-0.9,0.2-1.1,0.8c-0.3,0.5-0.4,1.2-0.4,2.2s0.1,1.8,0.4,2.2c0.3,0.5,0.6,0.8,1.1,0.8s0.9-0.2,1.2-0.8
		c0.2-0.5,0.4-1.2,0.4-2.2s-0.1-1.8-0.4-2.2C375.4,638.2,375,638,374.5,638"/>
	<path class="st0" d="M380.8,637.2c0.8,0,1.4,0.3,1.9,1c0.4,0.7,0.7,1.6,0.7,2.8c0,1.2-0.2,2.2-0.7,2.8c-0.4,0.6-1.1,1-1.9,1
		c-0.8,0-1.5-0.3-1.9-1c-0.4-0.6-0.6-1.6-0.6-2.8c0-1.2,0.2-2.2,0.6-2.8C379.4,637.5,380,637.2,380.8,637.2 M380.8,638
		c-0.5,0-0.9,0.2-1.1,0.8c-0.3,0.5-0.4,1.2-0.4,2.2s0.1,1.8,0.4,2.2c0.3,0.5,0.6,0.8,1.1,0.8s0.9-0.2,1.2-0.8
		c0.2-0.5,0.4-1.2,0.4-2.2s-0.1-1.8-0.4-2.2C381.7,638.2,381.3,638,380.8,638"/>
	<path class="st0" d="M388.1,640.7c0.5,0.1,0.8,0.3,1.1,0.6c0.3,0.3,0.4,0.7,0.4,1.2c0,0.7-0.2,1.3-0.7,1.7
		c-0.5,0.4-1.2,0.6-2.1,0.6c-0.3,0-0.6,0-1-0.1c-0.3,0-0.7-0.1-1-0.3v-1c0.3,0.2,0.6,0.3,0.9,0.4c0.3,0.1,0.7,0.1,1,0.1
		c0.6,0,1.1-0.1,1.4-0.4c0.3-0.2,0.5-0.6,0.5-1.1c0-0.4-0.2-0.8-0.5-1s-0.7-0.4-1.3-0.4H386v-0.8h0.9c0.5,0,0.9-0.1,1.1-0.3
		c0.3-0.2,0.4-0.5,0.4-0.8s-0.1-0.7-0.4-0.9c-0.3-0.2-0.7-0.3-1.1-0.3c-0.3,0-0.6,0-0.9,0.1s-0.7,0.2-1,0.3v-0.9
		c0.4-0.1,0.7-0.2,1.1-0.2c0.3,0,0.6-0.1,0.9-0.1c0.7,0,1.3,0.2,1.8,0.5c0.4,0.3,0.7,0.8,0.7,1.4c0,0.4-0.1,0.7-0.4,1
		C388.8,640.4,388.5,640.6,388.1,640.7"/>
	<line class="st0" x1="426" y1="630" x2="426" y2="633.5"/>
	<line class="st1" x1="426" y1="630" x2="426" y2="633.5"/>
	<path class="st0" d="M415.2,643.8h3.4v0.8H414v-0.8c0.4-0.4,0.9-0.9,1.5-1.6c0.6-0.6,1-1.1,1.2-1.3c0.3-0.3,0.5-0.6,0.7-0.9
		c0.1-0.2,0.2-0.5,0.2-0.7c0-0.4-0.1-0.7-0.4-0.9c-0.3-0.2-0.6-0.4-1.1-0.4c-0.3,0-0.6,0.1-1,0.2c-0.3,0.1-0.7,0.3-1.1,0.5v-1
		c0.4-0.2,0.8-0.3,1.1-0.4c0.3-0.1,0.7-0.1,1-0.1c0.8,0,1.3,0.2,1.8,0.6s0.7,0.9,0.7,1.5c0,0.3-0.1,0.6-0.2,0.8
		c-0.1,0.3-0.3,0.6-0.6,1c-0.1,0.1-0.3,0.4-0.8,0.8C416.6,642.3,416,643,415.2,643.8"/>
	<path class="st0" d="M422.8,637.2c0.8,0,1.4,0.3,1.9,1c0.4,0.7,0.7,1.6,0.7,2.8c0,1.2-0.2,2.2-0.7,2.8c-0.4,0.6-1.1,1-1.9,1
		c-0.8,0-1.5-0.3-1.9-1c-0.4-0.6-0.6-1.6-0.6-2.8c0-1.2,0.2-2.2,0.6-2.8C421.3,637.5,422,637.2,422.8,637.2 M422.8,638
		c-0.5,0-0.9,0.2-1.1,0.8c-0.3,0.5-0.4,1.2-0.4,2.2s0.1,1.8,0.4,2.2c0.3,0.5,0.6,0.8,1.1,0.8s0.9-0.2,1.2-0.8
		c0.2-0.5,0.4-1.2,0.4-2.2s-0.1-1.8-0.4-2.2C423.7,638.2,423.3,638,422.8,638"/>
	<path class="st0" d="M429.1,637.2c0.8,0,1.4,0.3,1.9,1c0.4,0.7,0.7,1.6,0.7,2.8c0,1.2-0.2,2.2-0.7,2.8c-0.4,0.6-1.1,1-1.9,1
		c-0.8,0-1.5-0.3-1.9-1c-0.4-0.6-0.6-1.6-0.6-2.8c0-1.2,0.2-2.2,0.6-2.8C427.7,637.5,428.3,637.2,429.1,637.2 M429.1,638
		c-0.5,0-0.9,0.2-1.1,0.8c-0.3,0.5-0.4,1.2-0.4,2.2s0.1,1.8,0.4,2.2c0.3,0.5,0.6,0.8,1.1,0.8s0.9-0.2,1.2-0.8
		c0.2-0.5,0.4-1.2,0.4-2.2s-0.1-1.8-0.4-2.2C430,638.2,429.7,638,429.1,638"/>
	<path class="st0" d="M435.8,637.3h1.2v4.8h1v0.8h-1v1.7h-1v-1.7h-3.3v-1L435.8,637.3 M436.1,638.2l-2.5,3.9h2.5V638.2"/>
	<line class="st0" x1="474.3" y1="630" x2="474.3" y2="633.5"/>
	<line class="st1" x1="474.3" y1="630" x2="474.3" y2="633.5"/>
	<path class="st0" d="M463.5,643.8h3.4v0.8h-4.6v-0.8c0.4-0.4,0.9-0.9,1.5-1.6c0.6-0.6,1-1.1,1.2-1.3c0.3-0.3,0.5-0.6,0.7-0.9
		c0.1-0.2,0.2-0.5,0.2-0.7c0-0.4-0.1-0.7-0.4-0.9c-0.3-0.2-0.6-0.4-1.1-0.4c-0.3,0-0.6,0.1-1,0.2c-0.3,0.1-0.7,0.3-1.1,0.5v-1
		c0.4-0.2,0.8-0.3,1.1-0.4c0.3-0.1,0.7-0.1,1-0.1c0.8,0,1.3,0.2,1.8,0.6s0.7,0.9,0.7,1.5c0,0.3-0.1,0.6-0.2,0.8
		c-0.1,0.3-0.3,0.6-0.6,1c-0.1,0.1-0.3,0.4-0.8,0.8C464.9,642.3,464.3,643,463.5,643.8"/>
	<path class="st0" d="M471.1,637.2c0.8,0,1.4,0.3,1.9,1c0.4,0.7,0.7,1.6,0.7,2.8c0,1.2-0.2,2.2-0.7,2.8c-0.4,0.6-1.1,1-1.9,1
		c-0.8,0-1.5-0.3-1.9-1c-0.4-0.6-0.6-1.6-0.6-2.8c0-1.2,0.2-2.2,0.6-2.8C469.6,637.5,470.3,637.2,471.1,637.2 M471.1,638
		c-0.5,0-0.9,0.2-1.1,0.8c-0.3,0.5-0.4,1.2-0.4,2.2s0.1,1.8,0.4,2.2c0.3,0.5,0.6,0.8,1.1,0.8s0.9-0.2,1.2-0.8
		c0.2-0.5,0.4-1.2,0.4-2.2s-0.1-1.8-0.4-2.2C472,638.2,471.6,638,471.1,638"/>
	<path class="st0" d="M477.5,637.2c0.8,0,1.4,0.3,1.9,1c0.4,0.7,0.7,1.6,0.7,2.8c0,1.2-0.2,2.2-0.7,2.8c-0.4,0.6-1.1,1-1.9,1
		c-0.8,0-1.5-0.3-1.9-1c-0.4-0.6-0.6-1.6-0.6-2.8c0-1.2,0.2-2.2,0.6-2.8C476,637.5,476.6,637.2,477.5,637.2 M477.5,638
		c-0.5,0-0.9,0.2-1.1,0.8c-0.3,0.5-0.4,1.2-0.4,2.2s0.1,1.8,0.4,2.2c0.3,0.5,0.6,0.8,1.1,0.8s0.9-0.2,1.2-0.8
		c0.2-0.5,0.4-1.2,0.4-2.2s-0.1-1.8-0.4-2.2C478.3,638.2,478,638,477.5,638"/>
	<path class="st0" d="M481.7,637.3h3.9v0.8h-3v1.8c0.1,0,0.3-0.1,0.4-0.1c0.1,0,0.3,0,0.4,0c0.8,0,1.4,0.2,1.9,0.7
		c0.5,0.5,0.7,1.1,0.7,1.8c0,0.8-0.2,1.4-0.7,1.8s-1.2,0.6-2.1,0.6c-0.3,0-0.6,0-0.9-0.1c-0.3,0-0.6-0.1-1-0.2v-1
		c0.3,0.2,0.6,0.3,0.9,0.4c0.3,0.1,0.6,0.1,1,0.1c0.6,0,1-0.1,1.3-0.4c0.3-0.3,0.5-0.7,0.5-1.2c0-0.5-0.2-0.9-0.5-1.2
		c-0.3-0.3-0.8-0.5-1.3-0.5c-0.3,0-0.5,0-0.8,0.1c-0.3,0.1-0.5,0.2-0.8,0.3V637.3"/>
	<line class="st0" x1="522.6" y1="630" x2="522.6" y2="633.5"/>
	<line class="st1" x1="522.6" y1="630" x2="522.6" y2="633.5"/>
	<path class="st0" d="M511.8,643.8h3.4v0.8h-4.6v-0.8c0.4-0.4,0.9-0.9,1.5-1.6c0.6-0.6,1-1.1,1.2-1.3c0.3-0.3,0.5-0.6,0.7-0.9
		c0.1-0.2,0.2-0.5,0.2-0.7c0-0.4-0.1-0.7-0.4-0.9c-0.3-0.2-0.6-0.4-1.1-0.4c-0.3,0-0.6,0.1-1,0.2c-0.3,0.1-0.7,0.3-1.1,0.5v-1
		c0.4-0.2,0.8-0.3,1.1-0.4c0.3-0.1,0.7-0.1,1-0.1c0.8,0,1.3,0.2,1.8,0.6s0.7,0.9,0.7,1.5c0,0.3-0.1,0.6-0.2,0.8
		c-0.1,0.3-0.3,0.6-0.6,1c-0.1,0.1-0.3,0.4-0.8,0.8C513.2,642.3,512.6,643,511.8,643.8"/>
	<path class="st0" d="M519.4,637.2c0.8,0,1.4,0.3,1.9,1c0.4,0.7,0.7,1.6,0.7,2.8c0,1.2-0.2,2.2-0.7,2.8c-0.4,0.6-1.1,1-1.9,1
		c-0.8,0-1.5-0.3-1.9-1c-0.4-0.6-0.6-1.6-0.6-2.8c0-1.2,0.2-2.2,0.6-2.8C518,637.5,518.6,637.2,519.4,637.2 M519.4,638
		c-0.5,0-0.9,0.2-1.1,0.8c-0.3,0.5-0.4,1.2-0.4,2.2s0.1,1.8,0.4,2.2c0.3,0.5,0.6,0.8,1.1,0.8s0.9-0.2,1.2-0.8
		c0.2-0.5,0.4-1.2,0.4-2.2s-0.1-1.8-0.4-2.2C520.3,638.2,519.9,638,519.4,638"/>
	<path class="st0" d="M525.8,637.2c0.8,0,1.4,0.3,1.9,1c0.4,0.7,0.7,1.6,0.7,2.8c0,1.2-0.2,2.2-0.7,2.8c-0.4,0.6-1.1,1-1.9,1
		c-0.8,0-1.5-0.3-1.9-1c-0.4-0.6-0.6-1.6-0.6-2.8c0-1.2,0.2-2.2,0.6-2.8C524.3,637.5,524.9,637.2,525.8,637.2 M525.8,638
		c-0.5,0-0.9,0.2-1.1,0.8c-0.3,0.5-0.4,1.2-0.4,2.2s0.1,1.8,0.4,2.2c0.3,0.5,0.6,0.8,1.1,0.8s0.9-0.2,1.2-0.8
		c0.2-0.5,0.4-1.2,0.4-2.2s-0.1-1.8-0.4-2.2C526.7,638.2,526.3,638,525.8,638"/>
	<path class="st0" d="M534.2,637.5v0.9c-0.2-0.1-0.5-0.2-0.8-0.3c-0.3-0.1-0.5-0.1-0.8-0.1c-0.7,0-1.2,0.2-1.5,0.7
		c-0.3,0.4-0.5,1.1-0.6,2c0.2-0.3,0.4-0.5,0.7-0.6c0.3-0.2,0.6-0.2,1-0.2c0.7,0,1.3,0.2,1.7,0.7c0.4,0.4,0.6,1.1,0.6,1.8
		c0,0.8-0.2,1.3-0.7,1.8s-1,0.7-1.8,0.7c-0.8,0-1.5-0.3-1.9-1c-0.5-0.6-0.7-1.6-0.7-2.8c0-1.1,0.3-2.1,0.8-2.8c0.5-0.7,1.3-1,2.2-1
		c0.2,0,0.5,0,0.8,0.1C533.7,637.3,533.9,637.4,534.2,637.5 M532.2,640.6c-0.4,0-0.8,0.2-1,0.5s-0.4,0.7-0.4,1.2
		c0,0.5,0.1,0.9,0.4,1.2c0.3,0.3,0.6,0.4,1,0.4s0.8-0.1,1-0.4c0.3-0.3,0.4-0.7,0.4-1.2c0-0.5-0.1-0.9-0.4-1.2
		C533,640.7,532.7,640.6,532.2,640.6"/>
	<line class="st0" x1="570.9" y1="630" x2="570.9" y2="633.5"/>
	<line class="st1" x1="570.9" y1="630" x2="570.9" y2="633.5"/>
	<path class="st0" d="M560.1,643.8h3.4v0.8h-4.6v-0.8c0.4-0.4,0.9-0.9,1.5-1.6c0.6-0.6,1-1.1,1.2-1.3c0.3-0.3,0.5-0.6,0.7-0.9
		c0.1-0.2,0.2-0.5,0.2-0.7c0-0.4-0.1-0.7-0.4-0.9c-0.3-0.2-0.6-0.4-1.1-0.4c-0.3,0-0.6,0.1-1,0.2c-0.3,0.1-0.7,0.3-1.1,0.5v-1
		c0.4-0.2,0.8-0.3,1.1-0.4c0.3-0.1,0.7-0.1,1-0.1c0.8,0,1.3,0.2,1.8,0.6s0.7,0.9,0.7,1.5c0,0.3-0.1,0.6-0.2,0.8
		c-0.1,0.3-0.3,0.6-0.6,1c-0.1,0.1-0.3,0.4-0.8,0.8C561.5,642.3,560.9,643,560.1,643.8"/>
	<path class="st0" d="M567.7,637.2c0.8,0,1.4,0.3,1.9,1c0.4,0.7,0.7,1.6,0.7,2.8c0,1.2-0.2,2.2-0.7,2.8c-0.4,0.6-1.1,1-1.9,1
		c-0.8,0-1.5-0.3-1.9-1c-0.4-0.6-0.6-1.6-0.6-2.8c0-1.2,0.2-2.2,0.6-2.8C566.3,637.5,566.9,637.2,567.7,637.2 M567.7,638
		c-0.5,0-0.9,0.2-1.1,0.8c-0.3,0.5-0.4,1.2-0.4,2.2s0.1,1.8,0.4,2.2c0.3,0.5,0.6,0.8,1.1,0.8s0.9-0.2,1.2-0.8
		c0.2-0.5,0.4-1.2,0.4-2.2s-0.1-1.8-0.4-2.2C568.6,638.2,568.2,638,567.7,638"/>
	<path class="st0" d="M574.1,637.2c0.8,0,1.4,0.3,1.9,1c0.4,0.7,0.7,1.6,0.7,2.8c0,1.2-0.2,2.2-0.7,2.8c-0.4,0.6-1.1,1-1.9,1
		c-0.8,0-1.5-0.3-1.9-1c-0.4-0.6-0.6-1.6-0.6-2.8c0-1.2,0.2-2.2,0.6-2.8C572.6,637.5,573.3,637.2,574.1,637.2 M574.1,638
		c-0.5,0-0.9,0.2-1.1,0.8c-0.3,0.5-0.4,1.2-0.4,2.2s0.1,1.8,0.4,2.2c0.3,0.5,0.6,0.8,1.1,0.8s0.9-0.2,1.2-0.8
		c0.2-0.5,0.4-1.2,0.4-2.2s-0.1-1.8-0.4-2.2C575,638.2,574.6,638,574.1,638"/>
	<polyline class="st0" points="578.1,637.3 582.8,637.3 582.8,637.7 580.1,644.6 579.1,644.6 581.6,638.1 578.1,638.1 578.1,637.3 	
		"/>
	<line class="st0" x1="619.2" y1="630" x2="619.2" y2="633.5"/>
	<line class="st1" x1="619.2" y1="630" x2="619.2" y2="633.5"/>
	<path class="st0" d="M608.4,643.8h3.4v0.8h-4.6v-0.8c0.4-0.4,0.9-0.9,1.5-1.6c0.6-0.6,1-1.1,1.2-1.3c0.3-0.3,0.5-0.6,0.7-0.9
		c0.1-0.2,0.2-0.5,0.2-0.7c0-0.4-0.1-0.7-0.4-0.9c-0.3-0.2-0.6-0.4-1.1-0.4c-0.3,0-0.6,0.1-1,0.2c-0.3,0.1-0.7,0.3-1.1,0.5v-1
		c0.4-0.2,0.8-0.3,1.1-0.4c0.3-0.1,0.7-0.1,1-0.1c0.8,0,1.3,0.2,1.8,0.6s0.7,0.9,0.7,1.5c0,0.3-0.1,0.6-0.2,0.8
		c-0.1,0.3-0.3,0.6-0.6,1c-0.1,0.1-0.3,0.4-0.8,0.8C609.8,642.3,609.2,643,608.4,643.8"/>
	<path class="st0" d="M616,637.2c0.8,0,1.4,0.3,1.9,1c0.4,0.7,0.7,1.6,0.7,2.8c0,1.2-0.2,2.2-0.7,2.8c-0.4,0.6-1.1,1-1.9,1
		c-0.8,0-1.5-0.3-1.9-1c-0.4-0.6-0.6-1.6-0.6-2.8c0-1.2,0.2-2.2,0.6-2.8C614.6,637.5,615.2,637.2,616,637.2 M616,638
		c-0.5,0-0.9,0.2-1.1,0.8c-0.3,0.5-0.4,1.2-0.4,2.2s0.1,1.8,0.4,2.2c0.3,0.5,0.6,0.8,1.1,0.8s0.9-0.2,1.2-0.8
		c0.2-0.5,0.4-1.2,0.4-2.2s-0.1-1.8-0.4-2.2C616.9,638.2,616.5,638,616,638"/>
	<path class="st0" d="M622.4,637.2c0.8,0,1.4,0.3,1.9,1c0.4,0.7,0.7,1.6,0.7,2.8c0,1.2-0.2,2.2-0.7,2.8c-0.4,0.6-1.1,1-1.9,1
		c-0.8,0-1.5-0.3-1.9-1c-0.4-0.6-0.6-1.6-0.6-2.8c0-1.2,0.2-2.2,0.6-2.8C620.9,637.5,621.6,637.2,622.4,637.2 M622.4,638
		c-0.5,0-0.9,0.2-1.1,0.8c-0.3,0.5-0.4,1.2-0.4,2.2s0.1,1.8,0.4,2.2c0.3,0.5,0.6,0.8,1.1,0.8s0.9-0.2,1.2-0.8
		c0.2-0.5,0.4-1.2,0.4-2.2s-0.1-1.8-0.4-2.2C623.3,638.2,622.9,638,622.4,638"/>
	<path class="st0" d="M627.4,639.2c0,0.4,0.1,0.7,0.3,0.9s0.6,0.3,1,0.3c0.4,0,0.8-0.1,1-0.3s0.4-0.5,0.4-0.9s-0.1-0.7-0.4-0.9
		s-0.6-0.3-1-0.3c-0.4,0-0.8,0.1-1,0.3S627.4,638.8,627.4,639.2 M627.8,640.7c-0.4-0.1-0.8-0.3-1-0.6c-0.2-0.3-0.4-0.6-0.4-1.1
		c0-0.6,0.2-1,0.6-1.4c0.4-0.3,1-0.5,1.7-0.5c0.7,0,1.3,0.2,1.7,0.5c0.4,0.3,0.6,0.8,0.6,1.4c0,0.4-0.1,0.8-0.4,1.1
		c-0.2,0.3-0.6,0.5-1,0.6c0.5,0.1,0.8,0.3,1.1,0.7c0.3,0.3,0.4,0.7,0.4,1.2c0,0.7-0.2,1.2-0.6,1.6c-0.4,0.4-1.1,0.6-1.9,0.6
		c-0.8,0-1.4-0.2-1.9-0.6c-0.4-0.4-0.6-0.9-0.6-1.6c0-0.5,0.1-0.9,0.4-1.2C626.9,641,627.3,640.8,627.8,640.7 M628.8,641.1
		c-0.5,0-0.8,0.1-1.1,0.4s-0.4,0.6-0.4,1s0.1,0.8,0.4,1s0.6,0.4,1.1,0.4c0.5,0,0.8-0.1,1.1-0.4c0.3-0.2,0.4-0.6,0.4-1
		s-0.1-0.8-0.4-1C629.6,641.3,629.2,641.1,628.8,641.1"/>
	<line class="st0" x1="667.5" y1="630" x2="667.5" y2="633.5"/>
	<line class="st1" x1="667.5" y1="630" x2="667.5" y2="633.5"/>
	<path class="st0" d="M656.7,643.8h3.4v0.8h-4.6v-0.8c0.4-0.4,0.9-0.9,1.5-1.6c0.6-0.6,1-1.1,1.2-1.3c0.3-0.3,0.5-0.6,0.7-0.9
		c0.1-0.2,0.2-0.5,0.2-0.7c0-0.4-0.1-0.7-0.4-0.9c-0.3-0.2-0.6-0.4-1.1-0.4c-0.3,0-0.6,0.1-1,0.2c-0.3,0.1-0.7,0.3-1.1,0.5v-1
		c0.4-0.2,0.8-0.3,1.1-0.4c0.3-0.1,0.7-0.1,1-0.1c0.8,0,1.3,0.2,1.8,0.6s0.7,0.9,0.7,1.5c0,0.3-0.1,0.6-0.2,0.8
		c-0.1,0.3-0.3,0.6-0.6,1c-0.1,0.1-0.3,0.4-0.8,0.8C658.1,642.3,657.5,643,656.7,643.8"/>
	<path class="st0" d="M664.3,637.2c0.8,0,1.4,0.3,1.9,1c0.4,0.7,0.7,1.6,0.7,2.8c0,1.2-0.2,2.2-0.7,2.8c-0.4,0.6-1.1,1-1.9,1
		c-0.8,0-1.5-0.3-1.9-1c-0.4-0.6-0.6-1.6-0.6-2.8c0-1.2,0.2-2.2,0.6-2.8C662.9,637.5,663.5,637.2,664.3,637.2 M664.3,638
		c-0.5,0-0.9,0.2-1.1,0.8c-0.3,0.5-0.4,1.2-0.4,2.2s0.1,1.8,0.4,2.2c0.3,0.5,0.6,0.8,1.1,0.8s0.9-0.2,1.2-0.8
		c0.2-0.5,0.4-1.2,0.4-2.2s-0.1-1.8-0.4-2.2C665.2,638.2,664.9,638,664.3,638"/>
	<path class="st0" d="M670.7,637.2c0.8,0,1.4,0.3,1.9,1c0.4,0.7,0.7,1.6,0.7,2.8c0,1.2-0.2,2.2-0.7,2.8c-0.4,0.6-1.1,1-1.9,1
		c-0.8,0-1.5-0.3-1.9-1c-0.4-0.6-0.6-1.6-0.6-2.8c0-1.2,0.2-2.2,0.6-2.8C669.3,637.5,669.9,637.2,670.7,637.2 M670.7,638
		c-0.5,0-0.9,0.2-1.1,0.8c-0.3,0.5-0.4,1.2-0.4,2.2s0.1,1.8,0.4,2.2c0.3,0.5,0.6,0.8,1.1,0.8s0.9-0.2,1.2-0.8
		c0.2-0.5,0.4-1.2,0.4-2.2s-0.1-1.8-0.4-2.2C671.6,638.2,671.2,638,670.7,638"/>
	<path class="st0" d="M676.9,641.4c0.4,0,0.8-0.2,1-0.5s0.4-0.7,0.4-1.2c0-0.5-0.1-0.9-0.4-1.2s-0.6-0.5-1-0.5s-0.8,0.2-1,0.5
		s-0.4,0.7-0.4,1.2c0,0.5,0.1,1,0.4,1.2S676.5,641.4,676.9,641.4 M675,644.4v-0.9c0.2,0.1,0.5,0.2,0.8,0.3c0.2,0.1,0.5,0.1,0.8,0.1
		c0.6,0,1.1-0.2,1.5-0.6c0.3-0.4,0.5-1.1,0.6-2c-0.2,0.3-0.4,0.5-0.7,0.6c-0.3,0.2-0.6,0.2-1,0.2c-0.7,0-1.3-0.2-1.7-0.7
		s-0.6-1-0.6-1.8c0-0.7,0.2-1.3,0.7-1.8c0.4-0.5,1-0.7,1.8-0.7c0.8,0,1.5,0.3,1.9,1c0.4,0.7,0.7,1.6,0.7,2.8c0,1.2-0.3,2.1-0.8,2.8
		c-0.6,0.7-1.3,1-2.2,1c-0.2,0-0.5,0-0.8-0.1C675.5,644.6,675.3,644.5,675,644.4"/>
	<line class="st0" x1="715.8" y1="630" x2="715.8" y2="633.5"/>
	<line class="st1" x1="715.8" y1="630" x2="715.8" y2="633.5"/>
	<path class="st0" d="M705,643.8h3.4v0.8h-4.6v-0.8c0.4-0.4,0.9-0.9,1.5-1.6c0.6-0.6,1-1.1,1.2-1.3c0.3-0.3,0.5-0.6,0.7-0.9
		c0.1-0.2,0.2-0.5,0.2-0.7c0-0.4-0.1-0.7-0.4-0.9c-0.3-0.2-0.6-0.4-1.1-0.4c-0.3,0-0.6,0.1-1,0.2c-0.3,0.1-0.7,0.3-1.1,0.5v-1
		c0.4-0.2,0.8-0.3,1.1-0.4c0.3-0.1,0.7-0.1,1-0.1c0.8,0,1.3,0.2,1.8,0.6s0.7,0.9,0.7,1.5c0,0.3-0.1,0.6-0.2,0.8
		c-0.1,0.3-0.3,0.6-0.6,1c-0.1,0.1-0.3,0.4-0.8,0.8C706.4,642.3,705.8,643,705,643.8"/>
	<path class="st0" d="M712.7,637.2c0.8,0,1.4,0.3,1.9,1c0.4,0.7,0.7,1.6,0.7,2.8c0,1.2-0.2,2.2-0.7,2.8c-0.4,0.6-1.1,1-1.9,1
		c-0.8,0-1.5-0.3-1.9-1c-0.4-0.6-0.6-1.6-0.6-2.8c0-1.2,0.2-2.2,0.6-2.8C711.2,637.5,711.8,637.2,712.7,637.2 M712.7,638
		c-0.5,0-0.9,0.2-1.1,0.8c-0.3,0.5-0.4,1.2-0.4,2.2s0.1,1.8,0.4,2.2c0.3,0.5,0.6,0.8,1.1,0.8s0.9-0.2,1.2-0.8
		c0.2-0.5,0.4-1.2,0.4-2.2s-0.1-1.8-0.4-2.2C713.5,638.2,713.2,638,712.7,638"/>
	<polyline class="st0" points="717.1,643.8 718.7,643.8 718.7,638.2 716.9,638.6 716.9,637.7 718.7,637.3 719.7,637.3 719.7,643.8 
		721.3,643.8 721.3,644.6 717.1,644.6 717.1,643.8 	"/>
	<path class="st0" d="M725.4,637.2c0.8,0,1.4,0.3,1.9,1c0.4,0.7,0.7,1.6,0.7,2.8c0,1.2-0.2,2.2-0.7,2.8c-0.4,0.6-1.1,1-1.9,1
		c-0.8,0-1.5-0.3-1.9-1c-0.4-0.6-0.6-1.6-0.6-2.8c0-1.2,0.2-2.2,0.6-2.8C723.9,637.5,724.6,637.2,725.4,637.2 M725.4,638
		c-0.5,0-0.9,0.2-1.1,0.8c-0.3,0.5-0.4,1.2-0.4,2.2s0.1,1.8,0.4,2.2c0.3,0.5,0.6,0.8,1.1,0.8s0.9-0.2,1.2-0.8
		c0.2-0.5,0.4-1.2,0.4-2.2s-0.1-1.8-0.4-2.2C726.3,638.2,725.9,638,725.4,638"/>
	<line class="st0" x1="764.1" y1="630" x2="764.1" y2="633.5"/>
	<line class="st1" x1="764.1" y1="630" x2="764.1" y2="633.5"/>
	<path class="st0" d="M753.3,643.8h3.4v0.8h-4.6v-0.8c0.4-0.4,0.9-0.9,1.5-1.6c0.6-0.6,1-1.1,1.2-1.3c0.3-0.3,0.5-0.6,0.7-0.9
		c0.1-0.2,0.2-0.5,0.2-0.7c0-0.4-0.1-0.7-0.4-0.9c-0.3-0.2-0.6-0.4-1.1-0.4c-0.3,0-0.6,0.1-1,0.2c-0.3,0.1-0.7,0.3-1.1,0.5v-1
		c0.4-0.2,0.8-0.3,1.1-0.4c0.3-0.1,0.7-0.1,1-0.1c0.8,0,1.3,0.2,1.8,0.6s0.7,0.9,0.7,1.5c0,0.3-0.1,0.6-0.2,0.8
		c-0.1,0.3-0.3,0.6-0.6,1c-0.1,0.1-0.3,0.4-0.8,0.8C754.7,642.3,754.1,643,753.3,643.8"/>
	<path class="st0" d="M761,637.2c0.8,0,1.4,0.3,1.9,1c0.4,0.7,0.7,1.6,0.7,2.8c0,1.2-0.2,2.2-0.7,2.8c-0.4,0.6-1.1,1-1.9,1
		c-0.8,0-1.5-0.3-1.9-1c-0.4-0.6-0.6-1.6-0.6-2.8c0-1.2,0.2-2.2,0.6-2.8C759.5,637.5,760.1,637.2,761,637.2 M761,638
		c-0.5,0-0.9,0.2-1.1,0.8c-0.3,0.5-0.4,1.2-0.4,2.2s0.1,1.8,0.4,2.2c0.3,0.5,0.6,0.8,1.1,0.8s0.9-0.2,1.2-0.8
		c0.2-0.5,0.4-1.2,0.4-2.2s-0.1-1.8-0.4-2.2C761.9,638.2,761.5,638,761,638"/>
	<polyline class="st0" points="765.4,643.8 767,643.8 767,638.2 765.2,638.6 765.2,637.7 767,637.3 768,637.3 768,643.8 
		769.6,643.8 769.6,644.6 765.4,644.6 765.4,643.8 	"/>
	<polyline class="st0" points="771.7,643.8 773.4,643.8 773.4,638.2 771.6,638.6 771.6,637.7 773.3,637.3 774.3,637.3 774.3,643.8 
		775.9,643.8 775.9,644.6 771.7,644.6 771.7,643.8 	"/>
	<line class="st0" x1="812.5" y1="630" x2="812.5" y2="633.5"/>
	<line class="st1" x1="812.5" y1="630" x2="812.5" y2="633.5"/>
	<path class="st0" d="M801.7,643.8h3.4v0.8h-4.6v-0.8c0.4-0.4,0.9-0.9,1.5-1.6c0.6-0.6,1-1.1,1.2-1.3c0.3-0.3,0.5-0.6,0.7-0.9
		c0.1-0.2,0.2-0.5,0.2-0.7c0-0.4-0.1-0.7-0.4-0.9c-0.3-0.2-0.6-0.4-1.1-0.4c-0.3,0-0.6,0.1-1,0.2c-0.3,0.1-0.7,0.3-1.1,0.5v-1
		c0.4-0.2,0.8-0.3,1.1-0.4c0.3-0.1,0.7-0.1,1-0.1c0.8,0,1.3,0.2,1.8,0.6s0.7,0.9,0.7,1.5c0,0.3-0.1,0.6-0.2,0.8
		c-0.1,0.3-0.3,0.6-0.6,1c-0.1,0.1-0.3,0.4-0.8,0.8C803.1,642.3,802.4,643,801.7,643.8"/>
	<path class="st0" d="M809.3,637.2c0.8,0,1.4,0.3,1.9,1c0.4,0.7,0.7,1.6,0.7,2.8c0,1.2-0.2,2.2-0.7,2.8c-0.4,0.6-1.1,1-1.9,1
		c-0.8,0-1.5-0.3-1.9-1c-0.4-0.6-0.6-1.6-0.6-2.8c0-1.2,0.2-2.2,0.6-2.8C807.8,637.5,808.5,637.2,809.3,637.2 M809.3,638
		c-0.5,0-0.9,0.2-1.1,0.8c-0.3,0.5-0.4,1.2-0.4,2.2s0.1,1.8,0.4,2.2c0.3,0.5,0.6,0.8,1.1,0.8s0.9-0.2,1.2-0.8
		c0.2-0.5,0.4-1.2,0.4-2.2s-0.1-1.8-0.4-2.2C810.2,638.2,809.8,638,809.3,638"/>
	<polyline class="st0" points="813.7,643.8 815.3,643.8 815.3,638.2 813.6,638.6 813.6,637.7 815.3,637.3 816.3,637.3 816.3,643.8 
		817.9,643.8 817.9,644.6 813.7,644.6 813.7,643.8 	"/>
	<path class="st0" d="M820.7,643.8h3.4v0.8h-4.6v-0.8c0.4-0.4,0.9-0.9,1.5-1.6c0.6-0.6,1-1.1,1.2-1.3c0.3-0.3,0.5-0.6,0.7-0.9
		c0.1-0.2,0.2-0.5,0.2-0.7c0-0.4-0.1-0.7-0.4-0.9c-0.3-0.2-0.6-0.4-1.1-0.4c-0.3,0-0.6,0.1-1,0.2c-0.3,0.1-0.7,0.3-1.1,0.5v-1
		c0.4-0.2,0.8-0.3,1.1-0.4c0.3-0.1,0.7-0.1,1-0.1c0.8,0,1.3,0.2,1.8,0.6s0.7,0.9,0.7,1.5c0,0.3-0.1,0.6-0.2,0.8
		c-0.1,0.3-0.3,0.6-0.6,1c-0.1,0.1-0.3,0.4-0.8,0.8C822.1,642.3,821.5,643,820.7,643.8"/>
	<line class="st0" x1="860.8" y1="630" x2="860.8" y2="633.5"/>
	<line class="st1" x1="860.8" y1="630" x2="860.8" y2="633.5"/>
	<path class="st0" d="M850,643.8h3.4v0.8h-4.6v-0.8c0.4-0.4,0.9-0.9,1.5-1.6c0.6-0.6,1-1.1,1.2-1.3c0.3-0.3,0.5-0.6,0.7-0.9
		c0.1-0.2,0.2-0.5,0.2-0.7c0-0.4-0.1-0.7-0.4-0.9c-0.3-0.2-0.6-0.4-1.1-0.4c-0.3,0-0.6,0.1-1,0.2c-0.3,0.1-0.7,0.3-1.1,0.5v-1
		c0.4-0.2,0.8-0.3,1.1-0.4c0.3-0.1,0.7-0.1,1-0.1c0.8,0,1.3,0.2,1.8,0.6s0.7,0.9,0.7,1.5c0,0.3-0.1,0.6-0.2,0.8
		c-0.1,0.3-0.3,0.6-0.6,1c-0.1,0.1-0.3,0.4-0.8,0.8C851.4,642.3,850.8,643,850,643.8"/>
	<path class="st0" d="M857.6,637.2c0.8,0,1.4,0.3,1.9,1c0.4,0.7,0.7,1.6,0.7,2.8c0,1.2-0.2,2.2-0.7,2.8c-0.4,0.6-1.1,1-1.9,1
		c-0.8,0-1.5-0.3-1.9-1c-0.4-0.6-0.6-1.6-0.6-2.8c0-1.2,0.2-2.2,0.6-2.8C856.1,637.5,856.8,637.2,857.6,637.2 M857.6,638
		c-0.5,0-0.9,0.2-1.1,0.8c-0.3,0.5-0.4,1.2-0.4,2.2s0.1,1.8,0.4,2.2c0.3,0.5,0.6,0.8,1.1,0.8s0.9-0.2,1.2-0.8
		c0.2-0.5,0.4-1.2,0.4-2.2s-0.1-1.8-0.4-2.2C858.5,638.2,858.1,638,857.6,638"/>
	<polyline class="st0" points="862,643.8 863.6,643.8 863.6,638.2 861.9,638.6 861.9,637.7 863.6,637.3 864.6,637.3 864.6,643.8 
		866.2,643.8 866.2,644.6 862,644.6 862,643.8 	"/>
	<path class="st0" d="M871.2,640.7c0.5,0.1,0.8,0.3,1.1,0.6c0.3,0.3,0.4,0.7,0.4,1.2c0,0.7-0.2,1.3-0.7,1.7
		c-0.5,0.4-1.2,0.6-2.1,0.6c-0.3,0-0.6,0-1-0.1c-0.3,0-0.7-0.1-1-0.3v-1c0.3,0.2,0.6,0.3,0.9,0.4c0.3,0.1,0.7,0.1,1,0.1
		c0.6,0,1.1-0.1,1.4-0.4c0.3-0.2,0.5-0.6,0.5-1.1c0-0.4-0.2-0.8-0.5-1s-0.7-0.4-1.3-0.4h-0.8v-0.8h0.9c0.5,0,0.9-0.1,1.1-0.3
		c0.3-0.2,0.4-0.5,0.4-0.8s-0.1-0.7-0.4-0.9c-0.3-0.2-0.7-0.3-1.1-0.3c-0.3,0-0.6,0-0.9,0.1s-0.7,0.2-1,0.3v-0.9
		c0.4-0.1,0.7-0.2,1.1-0.2c0.3,0,0.6-0.1,0.9-0.1c0.7,0,1.3,0.2,1.8,0.5c0.4,0.3,0.7,0.8,0.7,1.4c0,0.4-0.1,0.7-0.4,1
		C871.9,640.4,871.6,640.6,871.2,640.7"/>
	<line class="st0" x1="909.1" y1="630" x2="909.1" y2="633.5"/>
	<line class="st1" x1="909.1" y1="630" x2="909.1" y2="633.5"/>
	<path class="st0" d="M898.3,643.8h3.4v0.8h-4.6v-0.8c0.4-0.4,0.9-0.9,1.5-1.6c0.6-0.6,1.1-1.1,1.2-1.3c0.3-0.3,0.5-0.6,0.7-0.9
		c0.1-0.2,0.2-0.5,0.2-0.7c0-0.4-0.1-0.7-0.4-0.9c-0.3-0.2-0.6-0.4-1.1-0.4c-0.3,0-0.6,0.1-1,0.2c-0.3,0.1-0.7,0.3-1.1,0.5v-1
		c0.4-0.2,0.8-0.3,1.1-0.4s0.7-0.1,0.9-0.1c0.8,0,1.3,0.2,1.8,0.6c0.4,0.4,0.7,0.9,0.7,1.5c0,0.3-0.1,0.6-0.2,0.8
		c-0.1,0.3-0.3,0.6-0.6,1c-0.1,0.1-0.3,0.4-0.8,0.8C899.7,642.3,899.1,643,898.3,643.8"/>
	<path class="st0" d="M905.9,637.2c0.8,0,1.4,0.3,1.9,1c0.4,0.7,0.6,1.6,0.6,2.8c0,1.2-0.2,2.2-0.6,2.8c-0.4,0.6-1.1,1-1.9,1
		c-0.8,0-1.5-0.3-1.9-1c-0.4-0.6-0.6-1.6-0.6-2.8c0-1.2,0.2-2.2,0.6-2.8C904.5,637.5,905.1,637.2,905.9,637.2 M905.9,638
		c-0.5,0-0.9,0.2-1.2,0.8s-0.4,1.2-0.4,2.2s0.1,1.8,0.4,2.2s0.6,0.8,1.2,0.8c0.5,0,0.9-0.2,1.1-0.8c0.2-0.5,0.4-1.2,0.4-2.2
		s-0.1-1.8-0.4-2.2C906.8,638.2,906.4,638,905.9,638"/>
	<polyline class="st0" points="910.3,643.8 911.9,643.8 911.9,638.2 910.2,638.6 910.2,637.7 911.9,637.3 912.9,637.3 912.9,643.8 
		914.5,643.8 914.5,644.6 910.3,644.6 910.3,643.8 	"/>
	<path class="st0" d="M919,637.3h1.2v4.8h1v0.8h-1v1.7h-1v-1.7h-3.3v-1L919,637.3 M919.2,638.2l-2.5,3.9h2.5V638.2"/>
	<line class="st0" x1="957.4" y1="630" x2="957.4" y2="633.5"/>
	<line class="st1" x1="957.4" y1="630" x2="957.4" y2="633.5"/>
	<path class="st0" d="M946.6,643.8h3.4v0.8h-4.6v-0.8c0.4-0.4,0.9-0.9,1.5-1.6c0.6-0.6,1.1-1.1,1.2-1.3c0.3-0.3,0.5-0.6,0.7-0.9
		c0.1-0.2,0.2-0.5,0.2-0.7c0-0.4-0.1-0.7-0.4-0.9c-0.3-0.2-0.6-0.4-1.1-0.4c-0.3,0-0.6,0.1-1,0.2c-0.3,0.1-0.7,0.3-1.1,0.5v-1
		c0.4-0.2,0.8-0.3,1.1-0.4s0.7-0.1,0.9-0.1c0.8,0,1.3,0.2,1.8,0.6c0.4,0.4,0.7,0.9,0.7,1.5c0,0.3-0.1,0.6-0.2,0.8
		c-0.1,0.3-0.3,0.6-0.6,1c-0.1,0.1-0.3,0.4-0.8,0.8C948,642.3,947.4,643,946.6,643.8"/>
	<path class="st0" d="M954.2,637.2c0.8,0,1.4,0.3,1.9,1c0.4,0.7,0.6,1.6,0.6,2.8c0,1.2-0.2,2.2-0.6,2.8c-0.4,0.6-1.1,1-1.9,1
		c-0.8,0-1.5-0.3-1.9-1c-0.4-0.6-0.6-1.6-0.6-2.8c0-1.2,0.2-2.2,0.6-2.8C952.8,637.5,953.4,637.2,954.2,637.2 M954.2,638
		c-0.5,0-0.9,0.2-1.2,0.8s-0.4,1.2-0.4,2.2s0.1,1.8,0.4,2.2s0.6,0.8,1.2,0.8c0.5,0,0.9-0.2,1.1-0.8c0.2-0.5,0.4-1.2,0.4-2.2
		s-0.1-1.8-0.4-2.2C955.1,638.2,954.7,638,954.2,638"/>
	<polyline class="st0" points="958.6,643.8 960.2,643.8 960.2,638.2 958.5,638.6 958.5,637.7 960.2,637.3 961.2,637.3 961.2,643.8 
		962.8,643.8 962.8,644.6 958.6,644.6 958.6,643.8 	"/>
	<path class="st0" d="M964.8,637.3h3.9v0.8h-3v1.8c0.1,0,0.3-0.1,0.4-0.1c0.1,0,0.3,0,0.4,0c0.8,0,1.5,0.2,1.9,0.7
		c0.5,0.5,0.7,1.1,0.7,1.8c0,0.8-0.2,1.4-0.7,1.8s-1.2,0.6-2.1,0.6c-0.3,0-0.6,0-0.9-0.1c-0.3,0-0.6-0.1-1-0.2v-1
		c0.3,0.2,0.6,0.3,0.9,0.4c0.3,0.1,0.6,0.1,1,0.1c0.6,0,1-0.1,1.3-0.4c0.3-0.3,0.5-0.7,0.5-1.2c0-0.5-0.2-0.9-0.5-1.2
		c-0.3-0.3-0.8-0.5-1.3-0.5c-0.3,0-0.5,0-0.8,0.1c-0.3,0.1-0.5,0.2-0.8,0.3V637.3"/>
	<line class="st0" x1="1005.7" y1="630" x2="1005.7" y2="633.5"/>
	<line class="st1" x1="1005.7" y1="630" x2="1005.7" y2="633.5"/>
	<path class="st0" d="M994.9,643.8h3.4v0.8h-4.6v-0.8c0.4-0.4,0.9-0.9,1.5-1.6c0.6-0.6,1.1-1.1,1.2-1.3c0.3-0.3,0.5-0.6,0.7-0.9
		c0.1-0.2,0.2-0.5,0.2-0.7c0-0.4-0.1-0.7-0.4-0.9c-0.3-0.2-0.6-0.4-1.1-0.4c-0.3,0-0.6,0.1-1,0.2c-0.3,0.1-0.7,0.3-1.1,0.5v-1
		c0.4-0.2,0.8-0.3,1.1-0.4s0.7-0.1,0.9-0.1c0.8,0,1.3,0.2,1.8,0.6c0.4,0.4,0.7,0.9,0.7,1.5c0,0.3-0.1,0.6-0.2,0.8
		c-0.1,0.3-0.3,0.6-0.6,1c-0.1,0.1-0.3,0.4-0.8,0.8C996.3,642.3,995.7,643,994.9,643.8"/>
	<path class="st0" d="M1002.5,637.2c0.8,0,1.4,0.3,1.9,1c0.4,0.7,0.6,1.6,0.6,2.8c0,1.2-0.2,2.2-0.6,2.8c-0.4,0.6-1.1,1-1.9,1
		c-0.8,0-1.5-0.3-1.9-1c-0.4-0.6-0.6-1.6-0.6-2.8c0-1.2,0.2-2.2,0.6-2.8C1001.1,637.5,1001.7,637.2,1002.5,637.2 M1002.5,638
		c-0.5,0-0.9,0.2-1.2,0.8s-0.4,1.2-0.4,2.2s0.1,1.8,0.4,2.2s0.6,0.8,1.2,0.8c0.5,0,0.9-0.2,1.1-0.8c0.2-0.5,0.4-1.2,0.4-2.2
		s-0.1-1.8-0.4-2.2C1003.4,638.2,1003,638,1002.5,638"/>
	<polyline class="st0" points="1006.9,643.8 1008.6,643.8 1008.6,638.2 1006.8,638.6 1006.8,637.7 1008.5,637.3 1009.5,637.3 
		1009.5,643.8 1011.1,643.8 1011.1,644.6 1006.9,644.6 1006.9,643.8 	"/>
	<path class="st0" d="M1017.3,637.5v0.9c-0.2-0.1-0.5-0.2-0.8-0.3c-0.3-0.1-0.5-0.1-0.8-0.1c-0.7,0-1.2,0.2-1.5,0.7s-0.5,1.1-0.6,2
		c0.2-0.3,0.4-0.5,0.7-0.6c0.3-0.2,0.6-0.2,1-0.2c0.7,0,1.3,0.2,1.7,0.7c0.4,0.4,0.6,1.1,0.6,1.8c0,0.8-0.2,1.3-0.7,1.8
		c-0.4,0.5-1,0.7-1.8,0.7c-0.8,0-1.5-0.3-1.9-1c-0.4-0.6-0.7-1.6-0.7-2.8c0-1.1,0.3-2.1,0.8-2.8c0.5-0.7,1.3-1,2.2-1
		c0.2,0,0.5,0,0.8,0.1C1016.8,637.3,1017,637.4,1017.3,637.5 M1015.4,640.6c-0.4,0-0.8,0.2-1.1,0.5s-0.4,0.7-0.4,1.2
		c0,0.5,0.1,0.9,0.4,1.2c0.3,0.3,0.6,0.4,1.1,0.4c0.4,0,0.8-0.1,1-0.4c0.3-0.3,0.4-0.7,0.4-1.2c0-0.5-0.1-0.9-0.4-1.2
		S1015.8,640.6,1015.4,640.6"/>
	<line class="st0" x1="1054" y1="630" x2="1054" y2="633.5"/>
	<line class="st1" x1="1054" y1="630" x2="1054" y2="633.5"/>
	<path class="st0" d="M1043.2,643.8h3.4v0.8h-4.6v-0.8c0.4-0.4,0.9-0.9,1.5-1.6c0.6-0.6,1.1-1.1,1.2-1.3c0.3-0.3,0.5-0.6,0.7-0.9
		c0.1-0.2,0.2-0.5,0.2-0.7c0-0.4-0.1-0.7-0.4-0.9c-0.3-0.2-0.6-0.4-1.1-0.4c-0.3,0-0.6,0.1-1,0.2c-0.3,0.1-0.7,0.3-1.1,0.5v-1
		c0.4-0.2,0.8-0.3,1.1-0.4s0.7-0.1,0.9-0.1c0.8,0,1.3,0.2,1.8,0.6c0.4,0.4,0.7,0.9,0.7,1.5c0,0.3-0.1,0.6-0.2,0.8
		c-0.1,0.3-0.3,0.6-0.6,1c-0.1,0.1-0.3,0.4-0.8,0.8C1044.6,642.3,1044,643,1043.2,643.8"/>
	<path class="st0" d="M1050.8,637.2c0.8,0,1.4,0.3,1.9,1c0.4,0.7,0.6,1.6,0.6,2.8c0,1.2-0.2,2.2-0.6,2.8c-0.4,0.6-1.1,1-1.9,1
		c-0.8,0-1.5-0.3-1.9-1c-0.4-0.6-0.6-1.6-0.6-2.8c0-1.2,0.2-2.2,0.6-2.8C1049.4,637.5,1050,637.2,1050.8,637.2 M1050.8,638
		c-0.5,0-0.9,0.2-1.2,0.8s-0.4,1.2-0.4,2.2s0.1,1.8,0.4,2.2s0.6,0.8,1.2,0.8c0.5,0,0.9-0.2,1.1-0.8c0.2-0.5,0.4-1.2,0.4-2.2
		s-0.1-1.8-0.4-2.2C1051.7,638.2,1051.3,638,1050.8,638"/>
	<polyline class="st0" points="1055.3,643.8 1056.9,643.8 1056.9,638.2 1055.1,638.6 1055.1,637.7 1056.9,637.3 1057.8,637.3 
		1057.8,643.8 1059.5,643.8 1059.5,644.6 1055.3,644.6 1055.3,643.8 	"/>
	<polyline class="st0" points="1061.2,637.3 1065.9,637.3 1065.9,637.7 1063.2,644.6 1062.2,644.6 1064.7,638.1 1061.2,638.1 
		1061.2,637.3 	"/>
	<line class="st0" x1="1102.3" y1="630" x2="1102.3" y2="633.5"/>
	<line class="st1" x1="1102.3" y1="630" x2="1102.3" y2="633.5"/>
	<path class="st0" d="M1091.5,643.8h3.4v0.8h-4.6v-0.8c0.4-0.4,0.9-0.9,1.5-1.6c0.6-0.6,1.1-1.1,1.2-1.3c0.3-0.3,0.5-0.6,0.7-0.9
		c0.1-0.2,0.2-0.5,0.2-0.7c0-0.4-0.1-0.7-0.4-0.9c-0.3-0.2-0.6-0.4-1.1-0.4c-0.3,0-0.6,0.1-1,0.2c-0.3,0.1-0.7,0.3-1.1,0.5v-1
		c0.4-0.2,0.8-0.3,1.1-0.4s0.7-0.1,0.9-0.1c0.8,0,1.3,0.2,1.8,0.6c0.4,0.4,0.7,0.9,0.7,1.5c0,0.3-0.1,0.6-0.2,0.8
		c-0.1,0.3-0.3,0.6-0.6,1c-0.1,0.1-0.3,0.4-0.8,0.8C1092.9,642.3,1092.3,643,1091.5,643.8"/>
	<path class="st0" d="M1099.1,637.2c0.8,0,1.4,0.3,1.9,1c0.4,0.7,0.6,1.6,0.6,2.8c0,1.2-0.2,2.2-0.6,2.8c-0.4,0.6-1.1,1-1.9,1
		c-0.8,0-1.5-0.3-1.9-1c-0.4-0.6-0.6-1.6-0.6-2.8c0-1.2,0.2-2.2,0.6-2.8C1097.7,637.5,1098.3,637.2,1099.1,637.2 M1099.1,638
		c-0.5,0-0.9,0.2-1.2,0.8s-0.4,1.2-0.4,2.2s0.1,1.8,0.4,2.2s0.6,0.8,1.2,0.8c0.5,0,0.9-0.2,1.1-0.8c0.2-0.5,0.4-1.2,0.4-2.2
		s-0.1-1.8-0.4-2.2C1100,638.2,1099.7,638,1099.1,638"/>
	<polyline class="st0" points="1103.6,643.8 1105.2,643.8 1105.2,638.2 1103.4,638.6 1103.4,637.7 1105.2,637.3 1106.2,637.3 
		1106.2,643.8 1107.8,643.8 1107.8,644.6 1103.6,644.6 1103.6,643.8 	"/>
	<path class="st0" d="M1110.5,639.2c0,0.4,0.1,0.7,0.4,0.9c0.2,0.2,0.6,0.3,1,0.3c0.4,0,0.8-0.1,1-0.3s0.4-0.5,0.4-0.9
		s-0.1-0.7-0.4-0.9s-0.6-0.3-1-0.3c-0.4,0-0.8,0.1-1,0.3C1110.6,638.5,1110.5,638.8,1110.5,639.2 M1110.9,640.7
		c-0.4-0.1-0.8-0.3-1-0.6c-0.2-0.3-0.3-0.6-0.3-1.1c0-0.6,0.2-1,0.6-1.4c0.4-0.3,1-0.5,1.7-0.5c0.7,0,1.3,0.2,1.7,0.5
		c0.4,0.3,0.6,0.8,0.6,1.4c0,0.4-0.1,0.8-0.4,1.1c-0.2,0.3-0.6,0.5-1,0.6c0.5,0.1,0.8,0.3,1.1,0.7c0.3,0.3,0.4,0.7,0.4,1.2
		c0,0.7-0.2,1.2-0.7,1.6c-0.4,0.4-1.1,0.6-1.8,0.6c-0.8,0-1.4-0.2-1.9-0.6c-0.4-0.4-0.6-0.9-0.6-1.6c0-0.5,0.1-0.9,0.4-1.2
		C1110,641,1110.4,640.8,1110.9,640.7 M1111.9,641.1c-0.5,0-0.8,0.1-1.1,0.4c-0.3,0.2-0.4,0.6-0.4,1s0.1,0.8,0.4,1
		c0.3,0.2,0.6,0.4,1.1,0.4c0.5,0,0.8-0.1,1.1-0.4c0.3-0.2,0.4-0.6,0.4-1s-0.1-0.8-0.4-1C1112.7,641.3,1112.3,641.1,1111.9,641.1"/>
	<line class="st0" x1="37.1" y1="628.8" x2="33.6" y2="628.8"/>
	<line class="st1" x1="37.1" y1="628.8" x2="33.6" y2="628.8"/>
	<path class="st0" d="M25.5,627.2c0,0.4,0.1,0.7,0.3,0.9c0.2,0.2,0.6,0.3,1,0.3c0.4,0,0.8-0.1,1-0.3s0.4-0.5,0.4-0.9
		s-0.1-0.7-0.4-0.9c-0.2-0.2-0.6-0.3-1-0.3c-0.4,0-0.8,0.1-1,0.3C25.6,626.5,25.5,626.8,25.5,627.2 M25.9,628.7
		c-0.4-0.1-0.8-0.3-1-0.6c-0.2-0.3-0.3-0.6-0.3-1.1c0-0.6,0.2-1,0.6-1.4c0.4-0.3,1-0.5,1.7-0.5c0.7,0,1.3,0.2,1.7,0.5
		c0.4,0.3,0.6,0.8,0.6,1.4c0,0.4-0.1,0.8-0.4,1.1c-0.2,0.3-0.6,0.5-1,0.6c0.5,0.1,0.8,0.3,1.1,0.7c0.3,0.3,0.4,0.7,0.4,1.2
		c0,0.7-0.2,1.2-0.6,1.6c-0.4,0.4-1.1,0.6-1.9,0.6c-0.8,0-1.4-0.2-1.9-0.6c-0.4-0.4-0.6-0.9-0.6-1.6c0-0.5,0.1-0.9,0.4-1.2
		C25,629.1,25.4,628.9,25.9,628.7 M26.9,629.2c-0.5,0-0.8,0.1-1.1,0.4c-0.3,0.2-0.4,0.6-0.4,1s0.1,0.8,0.4,1
		c0.3,0.2,0.6,0.4,1.1,0.4c0.5,0,0.8-0.1,1.1-0.4c0.3-0.2,0.4-0.6,0.4-1s-0.1-0.8-0.4-1C27.7,629.3,27.3,629.2,26.9,629.2"/>
	<line class="st0" x1="37.1" y1="561.6" x2="33.6" y2="561.6"/>
	<line class="st1" x1="37.1" y1="561.6" x2="33.6" y2="561.6"/>
	<polyline class="st0" points="18.6,564.6 20.2,564.6 20.2,559 18.4,559.3 18.4,558.4 20.2,558.1 21.2,558.1 21.2,564.6 22.8,564.6 
		22.8,565.4 18.6,565.4 18.6,564.6 	"/>
	<path class="st0" d="M26.9,558c0.8,0,1.4,0.3,1.9,1c0.4,0.6,0.6,1.6,0.6,2.8c0,1.2-0.2,2.2-0.6,2.8c-0.4,0.6-1.1,1-1.9,1
		c-0.8,0-1.4-0.3-1.9-1c-0.4-0.6-0.6-1.6-0.6-2.8c0-1.2,0.2-2.2,0.6-2.8C25.4,558.3,26.1,558,26.9,558 M26.9,558.7
		c-0.5,0-0.9,0.2-1.1,0.8s-0.4,1.2-0.4,2.2s0.1,1.8,0.4,2.2s0.6,0.8,1.1,0.8c0.5,0,0.9-0.2,1.2-0.8c0.2-0.5,0.4-1.2,0.4-2.2
		s-0.1-1.8-0.4-2.2C27.8,559,27.4,558.7,26.9,558.7"/>
	<line class="st0" x1="37.1" y1="494.4" x2="33.6" y2="494.4"/>
	<line class="st1" x1="37.1" y1="494.4" x2="33.6" y2="494.4"/>
	<polyline class="st0" points="18.6,497.3 20.2,497.3 20.2,491.8 18.4,492.1 18.4,491.2 20.2,490.9 21.2,490.9 21.2,497.3 
		22.8,497.3 22.8,498.1 18.6,498.1 18.6,497.3 	"/>
	<path class="st0" d="M25.6,497.3h3.4v0.8h-4.6v-0.8c0.4-0.4,0.9-0.9,1.5-1.6c0.6-0.6,1.1-1.1,1.2-1.3c0.3-0.4,0.5-0.7,0.7-0.9
		c0.1-0.2,0.2-0.5,0.2-0.7c0-0.4-0.1-0.7-0.4-0.9c-0.3-0.2-0.6-0.4-1.1-0.4c-0.3,0-0.6,0.1-1,0.2c-0.3,0.1-0.7,0.3-1.1,0.5v-1
		c0.4-0.2,0.8-0.3,1.1-0.4s0.7-0.1,0.9-0.1c0.8,0,1.4,0.2,1.8,0.6s0.7,0.9,0.7,1.5c0,0.3-0.1,0.6-0.2,0.8c-0.1,0.3-0.3,0.6-0.6,1
		c-0.1,0.1-0.3,0.4-0.8,0.8C27,495.9,26.4,496.5,25.6,497.3"/>
	<line class="st0" x1="37.1" y1="427.1" x2="33.6" y2="427.1"/>
	<line class="st1" x1="37.1" y1="427.1" x2="33.6" y2="427.1"/>
	<polyline class="st0" points="18.6,430.1 20.2,430.1 20.2,424.5 18.4,424.9 18.4,424 20.2,423.6 21.2,423.6 21.2,430.1 22.8,430.1 
		22.8,430.9 18.6,430.9 18.6,430.1 	"/>
	<path class="st0" d="M27.2,423.6h1.2v4.8h1v0.8h-1v1.7h-1v-1.7h-3.3v-1L27.2,423.6 M27.5,424.5l-2.5,3.9h2.5V424.5"/>
	<line class="st0" x1="37.1" y1="359.9" x2="33.6" y2="359.9"/>
	<line class="st1" x1="37.1" y1="359.9" x2="33.6" y2="359.9"/>
	<polyline class="st0" points="18.6,362.8 20.2,362.8 20.2,357.3 18.4,357.6 18.4,356.7 20.2,356.4 21.2,356.4 21.2,362.8 
		22.8,362.8 22.8,363.7 18.6,363.7 18.6,362.8 	"/>
	<path class="st0" d="M29,356.5v0.9c-0.2-0.1-0.5-0.2-0.8-0.3c-0.3-0.1-0.5-0.1-0.8-0.1c-0.7,0-1.2,0.2-1.5,0.7
		c-0.3,0.4-0.5,1.1-0.6,2c0.2-0.3,0.4-0.5,0.7-0.6c0.3-0.1,0.6-0.2,1-0.2c0.7,0,1.3,0.2,1.7,0.7s0.6,1,0.6,1.8
		c0,0.8-0.2,1.4-0.7,1.8c-0.4,0.5-1,0.7-1.8,0.7c-0.8,0-1.5-0.3-1.9-1c-0.4-0.6-0.7-1.6-0.7-2.8c0-1.1,0.3-2.1,0.8-2.8
		c0.5-0.7,1.3-1,2.2-1c0.2,0,0.5,0,0.8,0.1C28.4,356.4,28.7,356.4,29,356.5 M27,359.6c-0.4,0-0.8,0.2-1.1,0.5
		c-0.3,0.3-0.4,0.7-0.4,1.2c0,0.5,0.1,0.9,0.4,1.2c0.3,0.3,0.6,0.4,1.1,0.4s0.8-0.1,1.1-0.4c0.3-0.3,0.4-0.7,0.4-1.2
		c0-0.5-0.1-0.9-0.4-1.2C27.8,359.8,27.4,359.6,27,359.6"/>
	<line class="st0" x1="37.1" y1="292.6" x2="33.6" y2="292.6"/>
	<line class="st1" x1="37.1" y1="292.6" x2="33.6" y2="292.6"/>
	<polyline class="st0" points="18.6,295.6 20.2,295.6 20.2,290.1 18.4,290.4 18.4,289.5 20.2,289.2 21.2,289.2 21.2,295.6 
		22.8,295.6 22.8,296.4 18.6,296.4 18.6,295.6 	"/>
	<path class="st0" d="M25.5,291c0,0.4,0.1,0.7,0.3,0.9c0.2,0.2,0.6,0.3,1,0.3c0.4,0,0.8-0.1,1-0.3c0.2-0.2,0.4-0.5,0.4-0.9
		s-0.1-0.7-0.4-0.9c-0.2-0.2-0.6-0.3-1-0.3c-0.4,0-0.8,0.1-1,0.3C25.6,290.3,25.5,290.6,25.5,291 M25.9,292.6
		c-0.4-0.1-0.8-0.3-1-0.6c-0.2-0.3-0.3-0.6-0.3-1.1c0-0.6,0.2-1,0.6-1.4c0.4-0.3,1-0.5,1.7-0.5c0.7,0,1.3,0.2,1.7,0.5
		c0.4,0.3,0.6,0.8,0.6,1.4c0,0.4-0.1,0.8-0.4,1.1c-0.2,0.3-0.6,0.5-1,0.6c0.5,0.1,0.8,0.3,1.1,0.6c0.3,0.3,0.4,0.7,0.4,1.2
		c0,0.7-0.2,1.2-0.6,1.6c-0.4,0.4-1.1,0.6-1.9,0.6c-0.8,0-1.4-0.2-1.9-0.6c-0.4-0.4-0.6-0.9-0.6-1.6c0-0.5,0.1-0.9,0.4-1.2
		C25,292.9,25.4,292.7,25.9,292.6 M26.9,293c-0.5,0-0.8,0.1-1.1,0.4c-0.3,0.2-0.4,0.6-0.4,1s0.1,0.8,0.4,1c0.3,0.2,0.6,0.4,1.1,0.4
		c0.5,0,0.8-0.1,1.1-0.4c0.3-0.2,0.4-0.6,0.4-1s-0.1-0.8-0.4-1C27.7,293.1,27.3,293,26.9,293"/>
	<line class="st0" x1="37.1" y1="225.4" x2="33.6" y2="225.4"/>
	<line class="st1" x1="37.1" y1="225.4" x2="33.6" y2="225.4"/>
	<path class="st0" d="M19.3,228.4h3.4v0.8h-4.6v-0.8c0.4-0.4,0.9-0.9,1.5-1.6c0.6-0.6,1.1-1.1,1.2-1.3c0.3-0.4,0.5-0.6,0.7-0.9
		c0.1-0.2,0.2-0.5,0.2-0.7c0-0.4-0.1-0.7-0.4-0.9s-0.6-0.4-1.1-0.4c-0.3,0-0.6,0.1-1,0.2c-0.3,0.1-0.7,0.3-1.1,0.5v-1
		c0.4-0.2,0.8-0.3,1.1-0.4c0.3-0.1,0.7-0.1,0.9-0.1c0.8,0,1.4,0.2,1.8,0.6s0.7,0.9,0.7,1.5c0,0.3-0.1,0.6-0.2,0.9
		c-0.1,0.3-0.3,0.6-0.6,0.9c-0.1,0.1-0.3,0.4-0.8,0.8C20.7,226.9,20,227.6,19.3,228.4"/>
	<path class="st0" d="M26.9,221.8c0.8,0,1.4,0.3,1.9,1c0.4,0.7,0.6,1.6,0.6,2.8c0,1.2-0.2,2.2-0.6,2.8c-0.4,0.6-1.1,1-1.9,1
		c-0.8,0-1.4-0.3-1.9-1c-0.4-0.6-0.6-1.6-0.6-2.8c0-1.2,0.2-2.2,0.6-2.8C25.4,222.1,26.1,221.8,26.9,221.8 M26.9,222.6
		c-0.5,0-0.9,0.2-1.1,0.8s-0.4,1.2-0.4,2.2s0.1,1.8,0.4,2.2s0.6,0.8,1.1,0.8c0.5,0,0.9-0.2,1.2-0.8c0.2-0.5,0.4-1.2,0.4-2.2
		s-0.1-1.8-0.4-2.2C27.8,222.8,27.4,222.6,26.9,222.6"/>
	<line class="st0" x1="37.1" y1="158.2" x2="33.6" y2="158.2"/>
	<line class="st1" x1="37.1" y1="158.2" x2="33.6" y2="158.2"/>
	<path class="st0" d="M19.3,161.1h3.4v0.8h-4.6v-0.8c0.4-0.4,0.9-0.9,1.5-1.6c0.6-0.6,1.1-1.1,1.2-1.3c0.3-0.3,0.5-0.6,0.7-0.9
		c0.1-0.2,0.2-0.5,0.2-0.7c0-0.4-0.1-0.7-0.4-0.9c-0.3-0.2-0.6-0.4-1.1-0.4c-0.3,0-0.6,0.1-1,0.2c-0.3,0.1-0.7,0.3-1.1,0.5v-1
		c0.4-0.2,0.8-0.3,1.1-0.4s0.7-0.1,0.9-0.1c0.8,0,1.4,0.2,1.8,0.6s0.7,0.9,0.7,1.5c0,0.3-0.1,0.6-0.2,0.9c-0.1,0.3-0.3,0.6-0.6,1
		c-0.1,0.1-0.3,0.4-0.8,0.8C20.7,159.7,20,160.3,19.3,161.1"/>
	<path class="st0" d="M25.6,161.1h3.4v0.8h-4.6v-0.8c0.4-0.4,0.9-0.9,1.5-1.6c0.6-0.6,1.1-1.1,1.2-1.3c0.3-0.3,0.5-0.6,0.7-0.9
		c0.1-0.2,0.2-0.5,0.2-0.7c0-0.4-0.1-0.7-0.4-0.9c-0.3-0.2-0.6-0.4-1.1-0.4c-0.3,0-0.6,0.1-1,0.2c-0.3,0.1-0.7,0.3-1.1,0.5v-1
		c0.4-0.2,0.8-0.3,1.1-0.4s0.7-0.1,0.9-0.1c0.8,0,1.4,0.2,1.8,0.6s0.7,0.9,0.7,1.5c0,0.3-0.1,0.6-0.2,0.9c-0.1,0.3-0.3,0.6-0.6,1
		c-0.1,0.1-0.3,0.4-0.8,0.8C27,159.7,26.4,160.3,25.6,161.1"/>
	<line class="st0" x1="37.1" y1="90.9" x2="33.6" y2="90.9"/>
	<line class="st1" x1="37.1" y1="90.9" x2="33.6" y2="90.9"/>
	<path class="st0" d="M19.3,93.9h3.4v0.8h-4.6v-0.8c0.4-0.4,0.9-0.9,1.5-1.6c0.6-0.6,1.1-1.1,1.2-1.3c0.3-0.3,0.5-0.6,0.7-0.9
		c0.1-0.2,0.2-0.5,0.2-0.7c0-0.4-0.1-0.7-0.4-0.9c-0.3-0.2-0.6-0.4-1.1-0.4c-0.3,0-0.6,0.1-1,0.2c-0.3,0.1-0.7,0.3-1.1,0.5v-1
		c0.4-0.2,0.8-0.3,1.1-0.4s0.7-0.1,0.9-0.1c0.8,0,1.4,0.2,1.8,0.6s0.7,0.9,0.7,1.5c0,0.3-0.1,0.6-0.2,0.9c-0.1,0.3-0.3,0.6-0.6,1
		c-0.1,0.1-0.3,0.4-0.8,0.8C20.7,92.5,20,93.1,19.3,93.9"/>
	<path class="st0" d="M27.2,87.4h1.2v4.8h1V93h-1v1.7h-1V93h-3.3v-1L27.2,87.4 M27.5,88.3L25,92.2h2.5V88.3"/>
	<g class="st0">
		<defs>
			<rect id="SVGID_3_" x="37.1" y="86.4" width="1116" height="543.6"/>
		</defs>
		<clipPath id="SVGID_4_">
			<use xlink:href="#SVGID_3_"  style="overflow:visible;"/>
		</clipPath>
		<polyline class="st2" points="87.8,111.1 136.1,127.9 184.4,141.4 232.7,138 281,181.7 329.3,195.2 377.7,188.4 426,181.7 
			474.3,171.6 522.6,171.6 570.9,154.8 619.2,178.3 667.5,255.7 715.8,198.5 764.1,235.5 812.5,235.5 860.8,245.6 909.1,235.5 
			957.4,198.5 1005.7,201.9 1054,201.9 		"/>
	</g>
	<g class="st0">
		<defs>
			<rect id="SVGID_5_" x="37.1" y="86.4" width="1116" height="543.6"/>
		</defs>
		<clipPath id="SVGID_6_">
			<use xlink:href="#SVGID_5_"  style="overflow:visible;"/>
		</clipPath>
		<polyline class="st3" points="87.8,215.3 136.1,208.6 184.4,222 232.7,201.9 281,208.6 329.3,225.4 377.7,222 426,215.3 
			474.3,215.3 522.6,195.2 570.9,188.4 619.2,218.7 667.5,296 715.8,225.4 764.1,205.2 812.5,212 860.8,218.7 909.1,208.6 
			957.4,201.9 1005.7,188.4 1054,188.4 1102.3,198.5 		"/>
	</g>
	<g class="st0">
		<defs>
			<rect id="SVGID_7_" x="37.1" y="86.4" width="1116" height="543.6"/>
		</defs>
		<clipPath id="SVGID_8_">
			<use xlink:href="#SVGID_7_"  style="overflow:visible;"/>
		</clipPath>
		<polyline class="st4" points="87.8,282.6 136.1,282.6 184.4,302.7 232.7,309.5 281,322.9 329.3,333 377.7,356.5 426,363.2 
			474.3,376.7 522.6,373.3 570.9,363.2 619.2,380.1 667.5,437.2 715.8,420.4 764.1,420.4 812.5,433.8 860.8,433.8 909.1,430.5 
			957.4,413.7 1005.7,400.2 1054,396.9 1102.3,393.5 		"/>
	</g>
	<g class="st0">
		<defs>
			<rect id="SVGID_9_" x="37.1" y="86.4" width="1116" height="543.6"/>
		</defs>
		<clipPath id="SVGID_10_">
			<use xlink:href="#SVGID_9_"  style="overflow:visible;"/>
		</clipPath>
		<polyline class="st5" points="87.8,349.8 136.1,343.1 184.4,312.8 232.7,312.8 281,346.4 329.3,356.5 377.7,393.5 426,403.6 
			474.3,437.2 522.6,464.1 570.9,487.6 619.2,531.3 667.5,548.1 715.8,548.1 764.1,551.5 812.5,548.1 860.8,564.9 909.1,568.3 
			957.4,551.5 		"/>
	</g>
	<g class="st0">
		<defs>
			<rect id="SVGID_11_" x="37.1" y="86.4" width="1116" height="543.6"/>
		</defs>
		<clipPath id="SVGID_12_">
			<use xlink:href="#SVGID_11_"  style="overflow:visible;"/>
		</clipPath>
		<polyline class="st6" points="87.8,356.5 136.1,366.6 184.4,376.7 232.7,390.1 281,430.5 329.3,447.3 377.7,450.6 426,454 
			474.3,460.7 522.6,460.7 570.9,467.5 619.2,484.3 667.5,504.4 715.8,497.7 764.1,494.4 812.5,497.7 860.8,501.1 909.1,507.8 
			957.4,507.8 1005.7,524.6 1054,521.2 1102.3,514.5 		"/>
	</g>
	<g class="st0">
		<defs>
			<rect id="SVGID_13_" x="37.1" y="86.4" width="1116" height="543.6"/>
		</defs>
		<clipPath id="SVGID_14_">
			<use xlink:href="#SVGID_13_"  style="overflow:visible;"/>
		</clipPath>
		<polyline class="st7" points="87.8,383.4 136.1,410.3 184.4,440.6 232.7,460.7 281,491 329.3,514.5 377.7,538.1 426,554.9 
			474.3,564.9 522.6,581.8 570.9,595.2 619.2,595.2 667.5,605.3 715.8,598.6 764.1,598.6 812.5,605.3 860.8,595.2 909.1,598.6 
			957.4,595.2 1005.7,598.6 1054,595.2 1102.3,598.6 		"/>
	</g>
	<g class="st0">
		<defs>
			<rect id="SVGID_15_" x="37.1" y="86.4" width="1116" height="543.6"/>
		</defs>
		<clipPath id="SVGID_16_">
			<use xlink:href="#SVGID_15_"  style="overflow:visible;"/>
		</clipPath>
		<polyline class="st8" points="87.8,403.6 136.1,403.6 184.4,413.7 232.7,410.3 281,427.1 329.3,440.6 377.7,457.4 426,470.8 
			474.3,487.6 522.6,504.4 570.9,507.8 619.2,524.6 667.5,541.4 715.8,551.5 764.1,548.1 812.5,548.1 860.8,548.1 909.1,551.5 
			957.4,548.1 1005.7,551.5 1054,561.6 1102.3,564.9 		"/>
	</g>
	<line class="st9" x1="37.1" y1="630" x2="37.1" y2="86.4"/>
	<line class="st9" x1="1153.1" y1="630" x2="1153.1" y2="86.4"/>
	<line class="st9" x1="37.1" y1="630" x2="1153.1" y2="630"/>
	<line class="st9" x1="37.1" y1="86.4" x2="1153.1" y2="86.4"/>
	<path class="st0" d="M363.9,78.3v-3.9h-3.2v-1.6h5.2V79c-0.8,0.6-1.6,1-2.5,1.2c-0.9,0.3-1.9,0.4-2.9,0.4c-2.3,0-4.1-0.7-5.4-2
		c-1.3-1.3-1.9-3.2-1.9-5.6c0-2.4,0.6-4.2,1.9-5.6c1.3-1.3,3.1-2,5.4-2c0.9,0,1.8,0.1,2.7,0.4c0.9,0.2,1.7,0.6,2.4,1V69
		c-0.7-0.6-1.5-1.1-2.3-1.4c-0.8-0.3-1.7-0.5-2.6-0.5c-1.8,0-3.1,0.5-4,1.5c-0.9,1-1.3,2.5-1.3,4.4c0,2,0.4,3.5,1.3,4.5
		c0.9,1,2.2,1.5,4,1.5c0.7,0,1.3-0.1,1.9-0.2C362.9,78.8,363.4,78.6,363.9,78.3"/>
	<polyline class="st0" points="369.1,65.8 378.5,65.8 378.5,66.7 373.2,80.4 371.1,80.4 376.1,67.5 369.1,67.5 369.1,65.8 	"/>
	<polyline class="st0" points="383.8,65.8 383.8,71.2 382.1,71.2 382.1,65.8 383.8,65.8 	"/>
	<path class="st0" d="M394.5,69.8v1.7c-0.5-0.2-1-0.4-1.6-0.6c-0.6-0.1-1.1-0.2-1.7-0.2c-0.9,0-1.6,0.1-2,0.4
		c-0.4,0.3-0.7,0.7-0.7,1.2c0,0.4,0.2,0.7,0.5,1s1,0.5,1.9,0.7l0.6,0.1c1.3,0.3,2.2,0.7,2.7,1.2c0.5,0.5,0.8,1.2,0.8,2.1
		c0,1-0.4,1.8-1.2,2.4c-0.8,0.6-1.9,0.9-3.3,0.9c-0.6,0-1.2-0.1-1.8-0.2c-0.6-0.1-1.3-0.3-2-0.5v-1.9c0.7,0.4,1.3,0.6,2,0.8
		c0.6,0.2,1.3,0.3,1.9,0.3c0.8,0,1.5-0.1,2-0.4c0.4-0.3,0.7-0.7,0.7-1.2c0-0.5-0.2-0.9-0.5-1.1c-0.3-0.3-1-0.5-2.2-0.8l-0.6-0.1
		c-1.1-0.2-1.9-0.6-2.4-1.1c-0.5-0.5-0.7-1.1-0.7-2c0-1,0.4-1.8,1.1-2.4c0.7-0.6,1.8-0.8,3.1-0.8c0.7,0,1.3,0.1,1.9,0.2
		C393.5,69.5,394,69.6,394.5,69.8"/>
	<polyline class="st0" points="404.4,65.8 407.4,65.8 411.1,75.7 414.8,65.8 417.8,65.8 417.8,80.4 415.8,80.4 415.8,67.6 
		412.1,77.6 410.1,77.6 406.3,67.6 406.3,80.4 404.4,80.4 404.4,65.8 	"/>
	<path class="st0" d="M430.2,74.2v6.2h-1.8v-1.7c-0.4,0.7-0.9,1.2-1.5,1.5c-0.6,0.3-1.4,0.5-2.2,0.5c-1.1,0-2-0.3-2.7-0.9
		c-0.7-0.6-1-1.5-1-2.5c0-1.2,0.4-2.1,1.2-2.8c0.8-0.6,2-0.9,3.7-0.9h2.5v-0.2c0-0.8-0.3-1.5-0.8-1.9c-0.5-0.4-1.3-0.7-2.3-0.7
		c-0.6,0-1.2,0.1-1.8,0.2c-0.6,0.2-1.2,0.4-1.7,0.7V70c0.6-0.2,1.3-0.4,1.9-0.6s1.2-0.2,1.8-0.2c1.6,0,2.8,0.4,3.5,1.2
		C429.8,71.3,430.2,72.5,430.2,74.2 M426.6,74.9c-1.5,0-2.5,0.2-3,0.5c-0.6,0.3-0.8,0.9-0.8,1.7c0,0.6,0.2,1.2,0.6,1.5
		c0.4,0.4,1,0.6,1.7,0.6c1,0,1.8-0.3,2.4-1.1c0.6-0.7,0.9-1.6,0.9-2.8v-0.4H426.6"/>
	<path class="st0" d="M443,73.8v6.6h-1.8v-6.5c0-1-0.2-1.8-0.6-2.3c-0.4-0.5-1-0.8-1.8-0.8c-1,0-1.7,0.3-2.3,0.9s-0.8,1.5-0.8,2.5
		v6.2h-1.8V69.5h1.8v1.7c0.4-0.6,0.9-1.1,1.5-1.5c0.6-0.3,1.3-0.5,2-0.5c1.2,0,2.2,0.4,2.8,1.2C442.6,71.2,443,72.3,443,73.8"/>
	<path class="st0" d="M450.9,69.2L450.9,69.2 M446.4,76.1v-6.6h1.8V76c0,1,0.2,1.8,0.6,2.3c0.4,0.5,1,0.8,1.8,0.8
		c1,0,1.7-0.3,2.3-0.9c0.6-0.6,0.8-1.5,0.8-2.5v-6.2h1.8v10.9h-1.8v-1.7c-0.4,0.7-1,1.2-1.5,1.5c-0.6,0.3-1.2,0.5-2,0.5
		c-1.3,0-2.2-0.4-2.9-1.2C446.7,78.7,446.4,77.6,446.4,76.1"/>
	<path class="st0" d="M464.8,65.2v1.5H463c-0.6,0-1.1,0.1-1.3,0.4c-0.3,0.3-0.4,0.7-0.4,1.4v1h3v1.4h-3v9.5h-1.8v-9.5h-1.7v-1.4h1.7
		v-0.8c0-1.2,0.3-2.1,0.8-2.7s1.5-0.8,2.7-0.8H464.8"/>
	<path class="st0" d="M474.8,74.2v6.2H473v-1.7c-0.4,0.7-0.9,1.2-1.5,1.5c-0.6,0.3-1.4,0.5-2.2,0.5c-1.1,0-2-0.3-2.7-0.9
		c-0.7-0.6-1-1.5-1-2.5c0-1.2,0.4-2.1,1.2-2.8c0.8-0.6,2-0.9,3.7-0.9h2.5v-0.2c0-0.8-0.3-1.5-0.8-1.9c-0.5-0.4-1.3-0.7-2.3-0.7
		c-0.6,0-1.2,0.1-1.8,0.2c-0.6,0.2-1.2,0.4-1.7,0.7V70c0.6-0.2,1.3-0.4,1.9-0.6s1.2-0.2,1.8-0.2c1.6,0,2.8,0.4,3.5,1.2
		C474.4,71.3,474.8,72.5,474.8,74.2 M471.2,74.9c-1.5,0-2.5,0.2-3,0.5c-0.6,0.3-0.8,0.9-0.8,1.7c0,0.6,0.2,1.2,0.6,1.5
		c0.4,0.4,1,0.6,1.7,0.6c1,0,1.8-0.3,2.4-1.1c0.6-0.7,0.9-1.6,0.9-2.8v-0.4H471.2"/>
	<path class="st0" d="M486.4,69.9v1.7c-0.5-0.3-1-0.5-1.5-0.6c-0.5-0.1-1-0.2-1.5-0.2c-1.2,0-2.1,0.4-2.7,1.1c-0.6,0.7-1,1.8-1,3.1
		c0,1.3,0.3,2.4,1,3.1c0.6,0.7,1.6,1.1,2.7,1.1c0.5,0,1-0.1,1.5-0.2c0.5-0.1,1-0.4,1.5-0.6V80c-0.5,0.2-1,0.4-1.6,0.5
		c-0.5,0.1-1.1,0.2-1.7,0.2c-1.6,0-3-0.5-3.9-1.5c-1-1-1.5-2.4-1.5-4.2c0-1.8,0.5-3.2,1.5-4.2c1-1,2.3-1.5,4-1.5
		c0.6,0,1.1,0.1,1.6,0.2C485.4,69.5,485.9,69.7,486.4,69.9"/>
	<path class="st0" d="M491.3,66.4v3.1h3.7v1.4h-3.7v5.9c0,0.9,0.1,1.5,0.4,1.7c0.2,0.3,0.7,0.4,1.5,0.4h1.8v1.5h-1.8
		c-1.4,0-2.4-0.3-2.9-0.8c-0.5-0.5-0.8-1.5-0.8-2.8v-5.9h-1.3v-1.4h1.3v-3.1H491.3"/>
	<path class="st0" d="M501.7,69.2L501.7,69.2 M497.2,76.1v-6.6h1.8V76c0,1,0.2,1.8,0.6,2.3c0.4,0.5,1,0.8,1.8,0.8
		c1,0,1.7-0.3,2.3-0.9c0.6-0.6,0.8-1.5,0.8-2.5v-6.2h1.8v10.9h-1.8v-1.7c-0.4,0.7-1,1.2-1.5,1.5c-0.6,0.3-1.2,0.5-2,0.5
		c-1.3,0-2.2-0.4-2.9-1.2C497.5,78.7,497.2,77.6,497.2,76.1"/>
	<path class="st0" d="M516.4,71.1c-0.2-0.1-0.4-0.2-0.7-0.3c-0.2,0-0.5-0.1-0.8-0.1c-1,0-1.8,0.3-2.3,1c-0.6,0.7-0.8,1.6-0.8,2.8
		v5.8H510V69.5h1.8v1.7c0.4-0.7,0.9-1.2,1.5-1.5c0.6-0.3,1.3-0.5,2.2-0.5c0.1,0,0.3,0,0.4,0c0.1,0,0.3,0,0.5,0.1V71.1"/>
	<path class="st0" d="M518.3,65.2h1.8v2.3h-1.8V65.2 M518.3,69.5h1.8v10.9h-1.8V69.5"/>
	<path class="st0" d="M532.9,73.8v6.6h-1.8v-6.5c0-1-0.2-1.8-0.6-2.3c-0.4-0.5-1-0.8-1.8-0.8c-1,0-1.7,0.3-2.3,0.9s-0.8,1.5-0.8,2.5
		v6.2h-1.8V69.5h1.8v1.7c0.4-0.6,0.9-1.1,1.5-1.5c0.6-0.3,1.3-0.5,2-0.5c1.2,0,2.2,0.4,2.8,1.2C532.6,71.2,532.9,72.3,532.9,73.8"/>
	<path class="st0" d="M545.5,79c0,1.8-0.4,3.2-1.2,4.1c-0.8,0.9-2.1,1.4-3.8,1.4c-0.6,0-1.2-0.1-1.8-0.1c-0.6-0.1-1.1-0.2-1.6-0.4
		v-1.7c0.5,0.3,1,0.5,1.6,0.6c0.5,0.1,1,0.2,1.6,0.2c1.2,0,2-0.3,2.6-0.9c0.6-0.6,0.9-1.5,0.9-2.8v-0.9c-0.4,0.6-0.9,1.1-1.4,1.4
		c-0.6,0.3-1.3,0.5-2.1,0.5c-1.4,0-2.4-0.5-3.3-1.5c-0.8-1-1.2-2.4-1.2-4.1c0-1.7,0.4-3,1.2-4.1c0.8-1,1.9-1.5,3.3-1.5
		c0.8,0,1.5,0.2,2.1,0.5c0.6,0.3,1.1,0.8,1.4,1.4v-1.7h1.8V79 M543.7,74.8c0-1.3-0.3-2.3-0.8-3c-0.5-0.7-1.3-1.1-2.3-1.1
		c-1,0-1.7,0.4-2.3,1.1c-0.5,0.7-0.8,1.7-0.8,3c0,1.3,0.3,2.3,0.8,3c0.5,0.7,1.3,1.1,2.3,1.1c1,0,1.7-0.4,2.3-1.1
		C543.4,77.1,543.7,76.1,543.7,74.8"/>
	<path class="st0" d="M559.8,69.2c1.6,0,2.8,0.5,3.7,1.5c0.9,1,1.3,2.4,1.3,4.2c0,1.8-0.5,3.2-1.3,4.2c-0.9,1-2.1,1.5-3.7,1.5
		c-1.6,0-2.8-0.5-3.7-1.5c-0.9-1-1.3-2.4-1.3-4.2c0-1.8,0.4-3.2,1.3-4.2C557,69.7,558.2,69.2,559.8,69.2 M559.8,70.7
		c-1,0-1.7,0.4-2.3,1.1c-0.6,0.8-0.8,1.8-0.8,3.1c0,1.3,0.3,2.3,0.8,3.1s1.3,1.1,2.3,1.1c1,0,1.7-0.4,2.3-1.1s0.8-1.8,0.8-3.1
		c0-1.3-0.3-2.3-0.8-3.1C561.5,71.1,560.8,70.7,559.8,70.7"/>
	<path class="st0" d="M572.1,69.2L572.1,69.2 M567.6,76.1v-6.6h1.8V76c0,1,0.2,1.8,0.6,2.3c0.4,0.5,1,0.8,1.8,0.8
		c1,0,1.7-0.3,2.3-0.9c0.6-0.6,0.8-1.5,0.8-2.5v-6.2h1.8v10.9H575v-1.7c-0.4,0.7-1,1.2-1.5,1.5c-0.6,0.3-1.2,0.5-2,0.5
		c-1.3,0-2.2-0.4-2.9-1.2C567.9,78.7,567.6,77.6,567.6,76.1"/>
	<path class="st0" d="M582.3,66.4v3.1h3.7v1.4h-3.7v5.9c0,0.9,0.1,1.5,0.4,1.7c0.2,0.3,0.7,0.4,1.5,0.4h1.8v1.5h-1.8
		c-1.4,0-2.4-0.3-2.9-0.8c-0.5-0.5-0.8-1.5-0.8-2.8v-5.9h-1.3v-1.4h1.3v-3.1H582.3"/>
	<path class="st0" d="M596.2,74.9c0-1.3-0.3-2.3-0.8-3.1c-0.6-0.8-1.3-1.1-2.2-1.1c-1,0-1.7,0.4-2.2,1.1c-0.6,0.8-0.8,1.8-0.8,3.1
		s0.3,2.4,0.8,3.1c0.5,0.8,1.3,1.1,2.2,1.1c0.9,0,1.7-0.4,2.2-1.1C595.9,77.3,596.2,76.3,596.2,74.9 M590.1,78.8v5.8h-1.8V69.5h1.8
		v1.7c0.4-0.6,0.8-1.1,1.4-1.4c0.6-0.3,1.3-0.5,2.1-0.5c1.3,0,2.4,0.5,3.2,1.6c0.8,1.1,1.2,2.4,1.2,4.2c0,1.7-0.4,3.1-1.2,4.2
		c-0.8,1-1.9,1.6-3.2,1.6c-0.8,0-1.5-0.2-2.1-0.5C590.9,79.9,590.4,79.4,590.1,78.8"/>
	<path class="st0" d="M605.4,69.2L605.4,69.2 M600.8,76.1v-6.6h1.8V76c0,1,0.2,1.8,0.6,2.3c0.4,0.5,1,0.8,1.8,0.8
		c1,0,1.7-0.3,2.3-0.9c0.6-0.6,0.8-1.5,0.8-2.5v-6.2h1.8v10.9h-1.8v-1.7c-0.4,0.7-1,1.2-1.5,1.5c-0.6,0.3-1.2,0.5-2,0.5
		c-1.3,0-2.2-0.4-2.9-1.2C601.2,78.7,600.8,77.6,600.8,76.1"/>
	<path class="st0" d="M615.5,66.4v3.1h3.7v1.4h-3.7v5.9c0,0.9,0.1,1.5,0.4,1.7c0.2,0.3,0.7,0.4,1.5,0.4h1.8v1.5h-1.8
		c-1.4,0-2.4-0.3-2.9-0.8c-0.5-0.5-0.8-1.5-0.8-2.8v-5.9h-1.3v-1.4h1.3v-3.1H615.5"/>
	<path class="st0" d="M625.9,65.2c-0.9,1.5-1.5,3-1.9,4.5c-0.4,1.5-0.6,2.9-0.6,4.4c0,1.5,0.2,3,0.6,4.5c0.4,1.5,1.1,2.9,1.9,4.4
		h-1.6c-1-1.5-1.7-3-2.2-4.5s-0.7-2.9-0.7-4.4c0-1.4,0.2-2.9,0.7-4.4c0.5-1.5,1.2-3,2.2-4.5H625.9"/>
	<path class="st0" d="M631.9,65.6c1,0,1.8,0.4,2.5,1.1c0.6,0.7,0.9,1.7,0.9,2.9c0,1.2-0.3,2.2-0.9,2.9c-0.6,0.7-1.4,1.1-2.5,1.1
		c-1,0-1.9-0.3-2.5-1.1c-0.6-0.7-0.9-1.7-0.9-2.9c0-1.2,0.3-2.2,0.9-2.9C630.1,65.9,630.9,65.6,631.9,65.6 M640.7,65.6h1.6
		l-9.1,15.1h-1.6L640.7,65.6 M631.9,66.8c-0.6,0-1,0.3-1.3,0.7c-0.3,0.5-0.5,1.1-0.5,2c0,0.9,0.2,1.5,0.5,2c0.3,0.5,0.8,0.7,1.3,0.7
		s1-0.2,1.3-0.7c0.3-0.5,0.5-1.1,0.5-2c0-0.8-0.2-1.5-0.5-2C632.9,67.1,632.5,66.8,631.9,66.8 M642,72.7c1,0,1.8,0.4,2.4,1.1
		c0.6,0.7,0.9,1.7,0.9,2.9c0,1.2-0.3,2.2-0.9,2.9c-0.6,0.7-1.4,1.1-2.4,1.1c-1,0-1.9-0.3-2.5-1.1c-0.6-0.7-0.9-1.7-0.9-2.9
		c0-1.2,0.3-2.2,0.9-2.9C640.1,73.1,641,72.7,642,72.7 M642,74c-0.6,0-1,0.2-1.3,0.7c-0.3,0.5-0.5,1.2-0.5,2c0,0.8,0.2,1.5,0.5,2
		s0.8,0.7,1.3,0.7s1-0.2,1.3-0.7s0.5-1.2,0.5-2c0-0.8-0.2-1.5-0.5-2S642.6,74,642,74"/>
	<path class="st0" d="M658.9,69.2c1.6,0,2.8,0.5,3.7,1.5c0.9,1,1.3,2.4,1.3,4.2c0,1.8-0.5,3.2-1.3,4.2c-0.9,1-2.1,1.5-3.7,1.5
		c-1.6,0-2.8-0.5-3.7-1.5c-0.9-1-1.3-2.4-1.3-4.2c0-1.8,0.4-3.2,1.3-4.2C656.1,69.7,657.4,69.2,658.9,69.2 M658.9,70.7
		c-1,0-1.7,0.4-2.3,1.1c-0.6,0.8-0.8,1.8-0.8,3.1c0,1.3,0.3,2.3,0.8,3.1s1.3,1.1,2.3,1.1c1,0,1.7-0.4,2.3-1.1s0.8-1.8,0.8-3.1
		c0-1.3-0.3-2.3-0.8-3.1C660.7,71.1,659.9,70.7,658.9,70.7"/>
	<path class="st0" d="M672.5,65.2v1.5h-1.7c-0.6,0-1.1,0.1-1.3,0.4c-0.3,0.3-0.4,0.7-0.4,1.4v1h3v1.4h-3v9.5h-1.8v-9.5h-1.7v-1.4
		h1.7v-0.8c0-1.2,0.3-2.1,0.8-2.7s1.5-0.8,2.7-0.8H672.5"/>
	<path class="st0" d="M690.4,78.3v-3.9h-3.2v-1.6h5.2V79c-0.8,0.6-1.6,1-2.5,1.2c-0.9,0.3-1.9,0.4-2.9,0.4c-2.3,0-4.1-0.7-5.4-2
		c-1.3-1.3-1.9-3.2-1.9-5.6c0-2.4,0.6-4.2,1.9-5.6c1.3-1.3,3.1-2,5.4-2c0.9,0,1.8,0.1,2.7,0.4c0.9,0.2,1.7,0.6,2.4,1V69
		c-0.7-0.6-1.5-1.1-2.3-1.4s-1.7-0.5-2.6-0.5c-1.8,0-3.1,0.5-4,1.5c-0.9,1-1.3,2.5-1.3,4.4c0,2,0.4,3.5,1.3,4.5c0.9,1,2.2,1.5,4,1.5
		c0.7,0,1.3-0.1,1.9-0.2S689.9,78.6,690.4,78.3"/>
	<path class="st0" d="M695.9,65.8h4.1c2.8,0,4.9,0.6,6.2,1.8c1.3,1.2,2,3,2,5.5c0,2.5-0.7,4.4-2,5.5c-1.3,1.2-3.4,1.8-6.2,1.8h-4.1
		V65.8 M697.9,67.4v11.3h2.4c2,0,3.5-0.4,4.4-1.4c0.9-0.9,1.4-2.4,1.4-4.3c0-2-0.5-3.4-1.4-4.3c-0.9-0.9-2.4-1.4-4.4-1.4H697.9"/>
	<path class="st0" d="M711.3,65.8h4.5c1.6,0,2.9,0.4,3.7,1.1c0.8,0.7,1.3,1.8,1.3,3.2c0,1.4-0.4,2.5-1.3,3.3
		c-0.8,0.7-2.1,1.1-3.7,1.1h-2.5v5.9h-2V65.8 M713.3,67.4v5.5h2.5c0.9,0,1.6-0.2,2.1-0.7s0.8-1.2,0.8-2c0-0.9-0.3-1.5-0.8-2
		s-1.2-0.7-2.1-0.7H713.3"/>
	<path class="st0" d="M723,65.2h1.6c1,1.5,1.7,3,2.2,4.5c0.5,1.5,0.7,2.9,0.7,4.4c0,1.5-0.3,2.9-0.7,4.4c-0.5,1.5-1.2,3-2.2,4.5H723
		c0.9-1.5,1.5-3,1.9-4.4c0.4-1.5,0.6-2.9,0.6-4.5c0-1.5-0.2-3-0.6-4.4C724.5,68.2,723.9,66.7,723,65.2"/>
	<polyline class="st0" points="731.7,78.7 734.9,78.7 734.9,67.6 731.4,68.3 731.4,66.5 734.9,65.8 736.9,65.8 736.9,78.7 
		740.1,78.7 740.1,80.4 731.7,80.4 731.7,78.7 	"/>
	<path class="st0" d="M748.1,73.9c0.9,0,1.6-0.3,2.1-0.9c0.5-0.6,0.8-1.4,0.8-2.5c0-1-0.3-1.9-0.8-2.5c-0.5-0.6-1.2-0.9-2.1-0.9
		s-1.6,0.3-2.1,0.9c-0.5,0.6-0.8,1.4-0.8,2.5c0,1.1,0.3,1.9,0.8,2.5C746.5,73.6,747.2,73.9,748.1,73.9 M744.1,80.1v-1.8
		c0.5,0.2,1,0.4,1.5,0.5c0.5,0.1,1,0.2,1.5,0.2c1.3,0,2.3-0.4,3-1.3c0.7-0.9,1.1-2.2,1.2-4c-0.4,0.6-0.9,1-1.4,1.3
		c-0.6,0.3-1.2,0.4-1.9,0.4c-1.5,0-2.6-0.4-3.5-1.3c-0.8-0.9-1.3-2.1-1.3-3.6c0-1.5,0.4-2.7,1.3-3.6c0.9-0.9,2.1-1.4,3.5-1.4
		c1.7,0,3,0.7,3.9,1.9c0.9,1.3,1.3,3.2,1.3,5.6c0,2.3-0.6,4.1-1.6,5.5c-1.1,1.4-2.6,2-4.4,2c-0.5,0-1-0.1-1.5-0.1
		C745.2,80.4,744.7,80.3,744.1,80.1"/>
	<path class="st0" d="M760.8,73.9c0.9,0,1.6-0.3,2.1-0.9c0.5-0.6,0.8-1.4,0.8-2.5c0-1-0.3-1.9-0.8-2.5c-0.5-0.6-1.2-0.9-2.1-0.9
		s-1.6,0.3-2.1,0.9c-0.5,0.6-0.8,1.4-0.8,2.5c0,1.1,0.3,1.9,0.8,2.5C759.2,73.6,759.9,73.9,760.8,73.9 M756.9,80.1v-1.8
		c0.5,0.2,1,0.4,1.5,0.5c0.5,0.1,1,0.2,1.5,0.2c1.3,0,2.3-0.4,3-1.3c0.7-0.9,1.1-2.2,1.2-4c-0.4,0.6-0.9,1-1.4,1.3
		c-0.6,0.3-1.2,0.4-1.9,0.4c-1.5,0-2.6-0.4-3.5-1.3c-0.8-0.9-1.3-2.1-1.3-3.6c0-1.5,0.4-2.7,1.3-3.6c0.9-0.9,2.1-1.4,3.5-1.4
		c1.7,0,3,0.7,3.9,1.9c0.9,1.3,1.3,3.2,1.3,5.6c0,2.3-0.6,4.1-1.6,5.5c-1.1,1.4-2.6,2-4.4,2c-0.5,0-1-0.1-1.5-0.1
		C757.9,80.4,757.4,80.3,756.9,80.1"/>
	<polyline class="st0" points="769,65.8 778.4,65.8 778.4,66.7 773.1,80.4 771,80.4 776,67.5 769,67.5 769,65.8 	"/>
	<polyline class="st0" points="781.1,74.1 786.3,74.1 786.3,75.7 781.1,75.7 781.1,74.1 	"/>
	<path class="st0" d="M791.2,78.7h6.9v1.7h-9.3v-1.7c0.7-0.8,1.8-1.8,3.1-3.1c1.3-1.3,2.1-2.1,2.4-2.5c0.6-0.7,1.1-1.3,1.3-1.8
		c0.2-0.5,0.4-1,0.4-1.5c0-0.8-0.3-1.4-0.8-1.9c-0.5-0.5-1.2-0.7-2.1-0.7c-0.6,0-1.3,0.1-2,0.3c-0.7,0.2-1.4,0.5-2.2,1v-2
		c0.8-0.3,1.5-0.6,2.2-0.7c0.7-0.2,1.3-0.2,1.9-0.2c1.5,0,2.7,0.4,3.6,1.1c0.9,0.8,1.4,1.8,1.4,3c0,0.6-0.1,1.2-0.3,1.7
		c-0.2,0.5-0.6,1.2-1.2,1.9c-0.2,0.2-0.7,0.7-1.6,1.6S792.7,77.1,791.2,78.7"/>
	<path class="st0" d="M806.4,65.6c1.6,0,2.9,0.7,3.7,1.9c0.9,1.3,1.3,3.2,1.3,5.6c0,2.5-0.4,4.3-1.3,5.6c-0.9,1.3-2.1,1.9-3.7,1.9
		c-1.6,0-2.9-0.6-3.8-1.9c-0.9-1.3-1.3-3.2-1.3-5.6c0-2.4,0.4-4.3,1.3-5.6C803.5,66.2,804.8,65.6,806.4,65.6 M806.4,67.1
		c-1,0-1.8,0.5-2.3,1.5s-0.8,2.5-0.8,4.5s0.2,3.5,0.8,4.5s1.3,1.5,2.3,1.5c1,0,1.8-0.5,2.3-1.5c0.5-1,0.8-2.5,0.8-4.5
		s-0.3-3.5-0.8-4.5C808.2,67.6,807.4,67.1,806.4,67.1"/>
	<polyline class="st0" points="815.2,78.7 818.5,78.7 818.5,67.6 815,68.3 815,66.5 818.4,65.8 820.4,65.8 820.4,78.7 823.6,78.7 
		823.6,80.4 815.2,80.4 815.2,78.7 	"/>
	<path class="st0" d="M829.1,69.5c0,0.8,0.2,1.4,0.7,1.8c0.5,0.4,1.1,0.6,2,0.6c0.8,0,1.5-0.2,2-0.6c0.5-0.4,0.7-1,0.7-1.8
		s-0.2-1.3-0.7-1.8c-0.5-0.4-1.1-0.6-2-0.6c-0.9,0-1.5,0.2-2,0.6C829.4,68.2,829.1,68.8,829.1,69.5 M829.9,72.6
		c-0.8-0.2-1.5-0.6-2-1.2c-0.5-0.6-0.7-1.3-0.7-2.1c0-1.2,0.4-2.1,1.2-2.8c0.8-0.7,2-1,3.4-1c1.4,0,2.6,0.3,3.4,1
		c0.8,0.7,1.2,1.6,1.2,2.8c0,0.8-0.2,1.5-0.7,2.1c-0.5,0.6-1.1,1-2,1.2c0.9,0.2,1.7,0.7,2.2,1.3c0.5,0.6,0.8,1.4,0.8,2.4
		c0,1.4-0.4,2.5-1.3,3.2c-0.9,0.8-2.1,1.1-3.7,1.1c-1.6,0-2.9-0.4-3.7-1.1c-0.9-0.7-1.3-1.8-1.3-3.2c0-0.9,0.3-1.7,0.8-2.4
		C828.2,73.3,828.9,72.9,829.9,72.6 M831.8,73.5c-0.9,0-1.7,0.3-2.2,0.8c-0.5,0.5-0.8,1.2-0.8,2.1s0.3,1.6,0.8,2.1
		c0.5,0.5,1.3,0.7,2.2,0.7c0.9,0,1.7-0.2,2.2-0.8c0.5-0.5,0.8-1.2,0.8-2.1s-0.3-1.6-0.8-2.1C833.5,73.7,832.8,73.5,831.8,73.5"/>
	<g class="st0">
		<path class="st10" d="M44.1,625h78.2c1.3,0,2-0.7,2-2V521.3c0-1.3-0.7-2-2-2H44.1c-1.3,0-2,0.7-2,2V623
			C42.1,624.3,42.7,625,44.1,625z"/>
		<path class="st11" d="M44.1,625h78.2c1.3,0,2-0.7,2-2V521.3c0-1.3-0.7-2-2-2H44.1c-1.3,0-2,0.7-2,2V623
			C42.1,624.3,42.7,625,44.1,625z"/>
	</g>
	<line class="st12" x1="46.1" y1="527.4" x2="66.1" y2="527.4"/>
	<path class="st0" d="M75,523.6h1v6.8c0,0.9-0.2,1.5-0.5,1.9c-0.3,0.4-0.9,0.6-1.6,0.6h-0.4v-0.8h0.3c0.4,0,0.7-0.1,0.9-0.4
		c0.2-0.2,0.3-0.7,0.3-1.3V523.6"/>
	<path class="st0" d="M82.2,527.8v3.1h-0.9v-0.8c-0.2,0.3-0.5,0.6-0.8,0.7c-0.3,0.1-0.7,0.2-1.1,0.2c-0.6,0-1-0.2-1.3-0.5
		s-0.5-0.7-0.5-1.3c0-0.6,0.2-1.1,0.6-1.4c0.4-0.3,1-0.5,1.8-0.5h1.3v-0.1c0-0.4-0.1-0.7-0.4-1c-0.3-0.2-0.7-0.3-1.1-0.3
		c-0.3,0-0.6,0-0.9,0.1c-0.3,0.1-0.6,0.2-0.9,0.3v-0.8c0.3-0.1,0.6-0.2,0.9-0.3s0.6-0.1,0.9-0.1c0.8,0,1.4,0.2,1.8,0.6
		C82,526.3,82.2,526.9,82.2,527.8 M80.4,528.1c-0.7,0-1.2,0.1-1.5,0.2c-0.3,0.2-0.4,0.5-0.4,0.8c0,0.3,0.1,0.6,0.3,0.8
		c0.2,0.2,0.5,0.3,0.9,0.3c0.5,0,0.9-0.2,1.2-0.5c0.3-0.3,0.5-0.8,0.5-1.4v-0.2H80.4"/>
	<path class="st0" d="M88,528.2c0-0.7-0.1-1.2-0.4-1.6c-0.3-0.4-0.7-0.6-1.1-0.6c-0.5,0-0.8,0.2-1.1,0.6c-0.3,0.4-0.4,0.9-0.4,1.6
		c0,0.7,0.1,1.2,0.4,1.6c0.3,0.4,0.6,0.6,1.1,0.6c0.5,0,0.8-0.2,1.1-0.6C87.9,529.3,88,528.8,88,528.2 M84.9,530.1v2.9H84v-7.5h0.9
		v0.8c0.2-0.3,0.4-0.6,0.7-0.7c0.3-0.2,0.6-0.2,1-0.2c0.7,0,1.2,0.3,1.6,0.8c0.4,0.5,0.6,1.2,0.6,2.1s-0.2,1.6-0.6,2.1
		c-0.4,0.5-1,0.8-1.6,0.8c-0.4,0-0.8-0.1-1-0.2C85.4,530.6,85.1,530.4,84.9,530.1"/>
	<path class="st0" d="M94.7,527.8v3.1h-0.9v-0.8c-0.2,0.3-0.5,0.6-0.8,0.7c-0.3,0.1-0.7,0.2-1.1,0.2c-0.6,0-1-0.2-1.3-0.5
		s-0.5-0.7-0.5-1.3c0-0.6,0.2-1.1,0.6-1.4c0.4-0.3,1-0.5,1.8-0.5h1.3v-0.1c0-0.4-0.1-0.7-0.4-1c-0.3-0.2-0.7-0.3-1.1-0.3
		c-0.3,0-0.6,0-0.9,0.1c-0.3,0.1-0.6,0.2-0.9,0.3v-0.8c0.3-0.1,0.6-0.2,0.9-0.3s0.6-0.1,0.9-0.1c0.8,0,1.4,0.2,1.8,0.6
		C94.5,526.3,94.7,526.9,94.7,527.8 M92.9,528.1c-0.7,0-1.2,0.1-1.5,0.2c-0.3,0.2-0.4,0.5-0.4,0.8c0,0.3,0.1,0.6,0.3,0.8
		c0.2,0.2,0.5,0.3,0.9,0.3c0.5,0,0.9-0.2,1.2-0.5c0.3-0.3,0.5-0.8,0.5-1.4v-0.2H92.9"/>
	<path class="st0" d="M101.1,527.6v3.3h-0.9v-3.3c0-0.5-0.1-0.9-0.3-1.2s-0.5-0.4-0.9-0.4c-0.5,0-0.9,0.2-1.2,0.5
		c-0.3,0.3-0.4,0.7-0.4,1.3v3.1h-0.9v-5.5h0.9v0.8c0.2-0.3,0.5-0.6,0.8-0.7c0.3-0.2,0.6-0.2,1-0.2c0.6,0,1.1,0.2,1.4,0.6
		S101.1,526.8,101.1,527.6"/>
	<line class="st13" x1="46.1" y1="542.1" x2="66.1" y2="542.1"/>
	<path class="st0" d="M80,544.5v-2h-1.6v-0.8H81v3.1c-0.4,0.3-0.8,0.5-1.3,0.6c-0.5,0.1-0.9,0.2-1.5,0.2c-1.1,0-2-0.3-2.7-1
		c-0.6-0.7-1-1.6-1-2.8c0-1.2,0.3-2.1,1-2.8c0.6-0.7,1.5-1,2.7-1c0.5,0,0.9,0.1,1.4,0.2c0.4,0.1,0.8,0.3,1.2,0.5v1
		c-0.4-0.3-0.8-0.5-1.2-0.7c-0.4-0.2-0.8-0.2-1.3-0.2c-0.9,0-1.6,0.2-2,0.8c-0.4,0.5-0.7,1.2-0.7,2.2c0,1,0.2,1.7,0.7,2.2
		c0.4,0.5,1.1,0.7,2,0.7c0.3,0,0.6,0,0.9-0.1C79.5,544.7,79.8,544.7,80,544.5"/>
	<path class="st0" d="M86.5,542.3c0-0.5-0.1-0.9-0.4-1.2c-0.3-0.3-0.6-0.4-1.1-0.4c-0.5,0-0.9,0.1-1.2,0.4c-0.3,0.3-0.5,0.7-0.5,1.2
		H86.5 M87.4,542.6v0.4h-4.1c0,0.6,0.2,1.1,0.6,1.4c0.3,0.3,0.8,0.5,1.4,0.5c0.3,0,0.7,0,1-0.1c0.3-0.1,0.6-0.2,1-0.4v0.8
		c-0.3,0.1-0.7,0.2-1,0.3c-0.3,0.1-0.7,0.1-1,0.1c-0.9,0-1.6-0.2-2.1-0.8c-0.5-0.5-0.8-1.2-0.8-2.1c0-0.9,0.2-1.6,0.7-2.1
		c0.5-0.5,1.1-0.8,2-0.8c0.7,0,1.3,0.2,1.8,0.7C87.2,541.2,87.4,541.8,87.4,542.6"/>
	<path class="st0" d="M92.1,540.9c-0.1-0.1-0.2-0.1-0.3-0.1c-0.1,0-0.2,0-0.4,0c-0.5,0-0.9,0.2-1.2,0.5c-0.3,0.3-0.4,0.8-0.4,1.4
		v2.9h-0.9v-5.5h0.9v0.8c0.2-0.3,0.4-0.6,0.7-0.7c0.3-0.2,0.7-0.2,1.1-0.2c0.1,0,0.1,0,0.2,0c0.1,0,0.1,0,0.2,0V540.9"/>
	<path class="st0" d="M97.3,541.1c0.2-0.4,0.5-0.7,0.8-0.9c0.3-0.2,0.7-0.3,1.1-0.3c0.6,0,1,0.2,1.3,0.6s0.5,1,0.5,1.7v3.3h-0.9
		v-3.3c0-0.5-0.1-0.9-0.3-1.2c-0.2-0.2-0.5-0.4-0.9-0.4c-0.5,0-0.8,0.2-1.1,0.5c-0.3,0.3-0.4,0.7-0.4,1.3v3.1h-0.9v-3.3
		c0-0.5-0.1-0.9-0.3-1.2c-0.2-0.2-0.5-0.4-0.9-0.4c-0.5,0-0.8,0.2-1.1,0.5c-0.3,0.3-0.4,0.7-0.4,1.3v3.1H93v-5.5h0.9v0.8
		c0.2-0.3,0.4-0.6,0.7-0.7c0.3-0.2,0.6-0.2,1-0.2c0.4,0,0.7,0.1,1,0.3S97.1,540.8,97.3,541.1"/>
	<path class="st0" d="M107,542.4v3.1h-0.9v-0.8c-0.2,0.3-0.5,0.6-0.8,0.7c-0.3,0.1-0.7,0.2-1.1,0.2c-0.6,0-1-0.2-1.3-0.5
		s-0.5-0.7-0.5-1.3c0-0.6,0.2-1.1,0.6-1.4c0.4-0.3,1-0.5,1.8-0.5h1.3V542c0-0.4-0.1-0.7-0.4-1c-0.3-0.2-0.7-0.3-1.1-0.3
		c-0.3,0-0.6,0-0.9,0.1c-0.3,0.1-0.6,0.2-0.9,0.3v-0.8c0.3-0.1,0.6-0.2,0.9-0.3s0.6-0.1,0.9-0.1c0.8,0,1.4,0.2,1.8,0.6
		C106.8,541,107,541.6,107,542.4 M105.2,542.8c-0.7,0-1.2,0.1-1.5,0.2c-0.3,0.2-0.4,0.5-0.4,0.8c0,0.3,0.1,0.6,0.3,0.8
		c0.2,0.2,0.5,0.3,0.9,0.3c0.5,0,0.9-0.2,1.2-0.5c0.3-0.3,0.5-0.8,0.5-1.4v-0.2H105.2"/>
	<path class="st0" d="M113.4,542.3v3.3h-0.9v-3.3c0-0.5-0.1-0.9-0.3-1.2s-0.5-0.4-0.9-0.4c-0.5,0-0.9,0.2-1.2,0.5
		c-0.3,0.3-0.4,0.7-0.4,1.3v3.1h-0.9v-5.5h0.9v0.8c0.2-0.3,0.5-0.6,0.8-0.7c0.3-0.2,0.6-0.2,1-0.2c0.6,0,1.1,0.2,1.4,0.6
		S113.4,541.5,113.4,542.3"/>
	<path class="st0" d="M117.5,546.1c-0.3,0.6-0.5,1.1-0.8,1.3c-0.2,0.2-0.6,0.3-1,0.3h-0.7v-0.8h0.5c0.2,0,0.4-0.1,0.6-0.2
		c0.1-0.1,0.3-0.4,0.5-0.8l0.2-0.4l-2.2-5.4h1l1.7,4.3l1.7-4.3h0.9L117.5,546.1"/>
	<line class="st14" x1="46.1" y1="556.7" x2="66.1" y2="556.7"/>
	<polyline class="st0" points="75,552.9 76,552.9 76,560.2 75,560.2 75,552.9 	"/>
	<path class="st0" d="M78.8,553.2v1.6h1.8v0.7h-1.8v3c0,0.5,0.1,0.7,0.2,0.9c0.1,0.1,0.4,0.2,0.8,0.2h0.9v0.8h-0.9
		c-0.7,0-1.2-0.1-1.4-0.4c-0.3-0.3-0.4-0.7-0.4-1.4v-3h-0.7v-0.7h0.7v-1.6H78.8"/>
	<path class="st0" d="M86.1,557.1v3.1h-0.9v-0.8c-0.2,0.3-0.5,0.6-0.8,0.7c-0.3,0.1-0.7,0.2-1.1,0.2c-0.6,0-1-0.2-1.3-0.5
		s-0.5-0.7-0.5-1.3c0-0.6,0.2-1.1,0.6-1.4c0.4-0.3,1-0.5,1.8-0.5h1.3v-0.1c0-0.4-0.1-0.7-0.4-1c-0.3-0.2-0.7-0.3-1.1-0.3
		c-0.3,0-0.6,0-0.9,0.1c-0.3,0.1-0.6,0.2-0.9,0.3V555c0.3-0.1,0.6-0.2,0.9-0.3s0.6-0.1,0.9-0.1c0.8,0,1.4,0.2,1.8,0.6
		C85.9,555.7,86.1,556.3,86.1,557.1 M84.4,557.5c-0.7,0-1.2,0.1-1.5,0.2c-0.3,0.2-0.4,0.5-0.4,0.8c0,0.3,0.1,0.6,0.3,0.8
		c0.2,0.2,0.5,0.3,0.9,0.3c0.5,0,0.9-0.2,1.2-0.5c0.3-0.3,0.5-0.8,0.5-1.4v-0.2H84.4"/>
	<polyline class="st0" points="88,552.6 88.9,552.6 88.9,560.2 88,560.2 88,552.6 	"/>
	<path class="st0" d="M93.1,560.7c-0.3,0.6-0.5,1.1-0.8,1.3c-0.2,0.2-0.6,0.3-1,0.3h-0.7v-0.8h0.5c0.2,0,0.4-0.1,0.6-0.2
		s0.3-0.4,0.5-0.8l0.2-0.4l-2.2-5.4h0.9l1.7,4.3l1.7-4.3h0.9L93.1,560.7"/>
	<line class="st15" x1="46.1" y1="571.4" x2="66.1" y2="571.4"/>
	<path class="st0" d="M80.5,568.2v1c-0.3-0.3-0.7-0.5-1.1-0.7c-0.4-0.2-0.8-0.2-1.2-0.2c-0.8,0-1.5,0.3-1.9,0.8
		c-0.4,0.5-0.7,1.2-0.7,2.2c0,1,0.2,1.7,0.7,2.2c0.4,0.5,1.1,0.8,1.9,0.8c0.4,0,0.8-0.1,1.2-0.2c0.4-0.1,0.7-0.4,1.1-0.7v1
		c-0.4,0.2-0.7,0.4-1.1,0.5c-0.4,0.1-0.8,0.2-1.2,0.2c-1.1,0-2-0.3-2.6-1s-0.9-1.6-0.9-2.8c0-1.2,0.3-2.1,0.9-2.8
		c0.6-0.7,1.5-1,2.6-1c0.4,0,0.9,0.1,1.2,0.2C79.8,567.8,80.2,567.9,80.5,568.2"/>
	<path class="st0" d="M86.3,571.8v3.1h-0.9v-0.8c-0.2,0.3-0.5,0.6-0.8,0.7c-0.3,0.1-0.7,0.2-1.1,0.2c-0.6,0-1-0.2-1.3-0.5
		s-0.5-0.7-0.5-1.3c0-0.6,0.2-1.1,0.6-1.4c0.4-0.3,1-0.5,1.8-0.5h1.3v-0.1c0-0.4-0.1-0.7-0.4-1c-0.3-0.2-0.7-0.3-1.1-0.3
		c-0.3,0-0.6,0-0.9,0.1c-0.3,0.1-0.6,0.2-0.9,0.3v-0.8c0.3-0.1,0.6-0.2,0.9-0.3s0.6-0.1,0.9-0.1c0.8,0,1.4,0.2,1.8,0.6
		C86.1,570.3,86.3,571,86.3,571.8 M84.5,572.2c-0.7,0-1.2,0.1-1.5,0.2c-0.3,0.2-0.4,0.5-0.4,0.8c0,0.3,0.1,0.6,0.3,0.8
		c0.2,0.2,0.5,0.3,0.9,0.3c0.5,0,0.9-0.2,1.2-0.5c0.3-0.3,0.5-0.8,0.5-1.4v-0.2H84.5"/>
	<path class="st0" d="M92.7,571.6v3.3h-0.9v-3.3c0-0.5-0.1-0.9-0.3-1.2s-0.5-0.4-0.9-0.4c-0.5,0-0.9,0.2-1.2,0.5
		c-0.3,0.3-0.4,0.7-0.4,1.3v3.1h-0.9v-5.5H89v0.8c0.2-0.3,0.5-0.6,0.8-0.7c0.3-0.2,0.6-0.2,1-0.2c0.6,0,1.1,0.2,1.4,0.6
		S92.7,570.9,92.7,571.6"/>
	<path class="st0" d="M98.7,571.8v3.1h-0.9v-0.8c-0.2,0.3-0.5,0.6-0.8,0.7c-0.3,0.1-0.7,0.2-1.1,0.2c-0.6,0-1-0.2-1.3-0.5
		s-0.5-0.7-0.5-1.3c0-0.6,0.2-1.1,0.6-1.4c0.4-0.3,1-0.5,1.8-0.5h1.3v-0.1c0-0.4-0.1-0.7-0.4-1c-0.3-0.2-0.7-0.3-1.1-0.3
		c-0.3,0-0.6,0-0.9,0.1c-0.3,0.1-0.6,0.2-0.9,0.3v-0.8c0.3-0.1,0.6-0.2,0.9-0.3s0.6-0.1,0.9-0.1c0.8,0,1.4,0.2,1.8,0.6
		C98.5,570.3,98.7,571,98.7,571.8 M96.9,572.2c-0.7,0-1.2,0.1-1.5,0.2c-0.3,0.2-0.4,0.5-0.4,0.8c0,0.3,0.1,0.6,0.3,0.8
		c0.2,0.2,0.5,0.3,0.9,0.3c0.5,0,0.9-0.2,1.2-0.5c0.3-0.3,0.5-0.8,0.5-1.4v-0.2H96.9"/>
	<path class="st0" d="M101.1,572.2c0,0.7,0.1,1.2,0.4,1.6c0.3,0.4,0.6,0.6,1.1,0.6c0.5,0,0.8-0.2,1.1-0.6c0.3-0.4,0.4-0.9,0.4-1.6
		c0-0.7-0.1-1.2-0.4-1.6c-0.3-0.4-0.7-0.6-1.1-0.6c-0.5,0-0.9,0.2-1.1,0.6C101.2,571,101.1,571.5,101.1,572.2 M104.2,570.3v-3h0.9
		v7.6h-0.9v-0.8c-0.2,0.3-0.4,0.6-0.7,0.7c-0.3,0.1-0.6,0.2-1,0.2c-0.7,0-1.2-0.3-1.6-0.8c-0.4-0.5-0.6-1.2-0.6-2.1s0.2-1.6,0.6-2.1
		c0.4-0.5,1-0.8,1.6-0.8c0.4,0,0.7,0.1,1,0.2C103.7,569.7,104,569.9,104.2,570.3"/>
	<path class="st0" d="M111.2,571.8v3.1h-0.9v-0.8c-0.2,0.3-0.5,0.6-0.8,0.7c-0.3,0.1-0.7,0.2-1.1,0.2c-0.6,0-1-0.2-1.3-0.5
		s-0.5-0.7-0.5-1.3c0-0.6,0.2-1.1,0.6-1.4c0.4-0.3,1-0.5,1.8-0.5h1.3v-0.1c0-0.4-0.1-0.7-0.4-1c-0.3-0.2-0.7-0.3-1.1-0.3
		c-0.3,0-0.6,0-0.9,0.1c-0.3,0.1-0.6,0.2-0.9,0.3v-0.8c0.3-0.1,0.6-0.2,0.9-0.3s0.6-0.1,0.9-0.1c0.8,0,1.4,0.2,1.8,0.6
		C111,570.3,111.2,571,111.2,571.8 M109.4,572.2c-0.7,0-1.2,0.1-1.5,0.2c-0.3,0.2-0.4,0.5-0.4,0.8c0,0.3,0.1,0.6,0.3,0.8
		c0.2,0.2,0.5,0.3,0.9,0.3c0.5,0,0.9-0.2,1.2-0.5c0.3-0.3,0.5-0.8,0.5-1.4v-0.2H109.4"/>
	<line class="st16" x1="46.1" y1="586.1" x2="66.1" y2="586.1"/>
	<path class="st0" d="M74.9,582.3h1v4.4c0,0.8,0.1,1.3,0.4,1.7c0.3,0.3,0.7,0.5,1.4,0.5c0.6,0,1.1-0.2,1.4-0.5
		c0.3-0.3,0.4-0.9,0.4-1.7v-4.4h1v4.5c0,1-0.2,1.7-0.7,2.2c-0.5,0.5-1.2,0.7-2.1,0.7s-1.6-0.2-2.1-0.7c-0.5-0.5-0.7-1.2-0.7-2.2
		V582.3"/>
	<path class="st0" d="M86.7,582.5v1c-0.4-0.2-0.7-0.3-1.1-0.4c-0.3-0.1-0.7-0.1-1-0.1c-0.5,0-1,0.1-1.2,0.3
		c-0.3,0.2-0.4,0.5-0.4,0.9c0,0.3,0.1,0.6,0.3,0.7c0.2,0.2,0.6,0.3,1.1,0.4l0.6,0.1c0.7,0.1,1.3,0.4,1.6,0.7
		c0.4,0.4,0.5,0.8,0.5,1.4c0,0.7-0.2,1.2-0.7,1.6c-0.5,0.4-1.2,0.5-2.1,0.5c-0.4,0-0.7,0-1.1-0.1c-0.4-0.1-0.8-0.2-1.2-0.3v-1
		c0.4,0.2,0.8,0.4,1.2,0.5c0.4,0.1,0.8,0.2,1.1,0.2c0.6,0,1-0.1,1.3-0.3c0.3-0.2,0.5-0.5,0.5-1c0-0.4-0.1-0.6-0.3-0.8
		c-0.2-0.2-0.6-0.3-1.1-0.4l-0.6-0.1c-0.7-0.1-1.3-0.4-1.6-0.7c-0.3-0.3-0.5-0.7-0.5-1.3c0-0.6,0.2-1.2,0.7-1.5
		c0.4-0.4,1.1-0.6,1.9-0.6c0.3,0,0.7,0,1,0.1C86,582.3,86.3,582.4,86.7,582.5"/>
	<line class="st17" x1="46.1" y1="600.8" x2="66.1" y2="600.8"/>
	<path class="st0" d="M74.9,597h1v4.4c0,0.8,0.1,1.3,0.4,1.7c0.3,0.3,0.7,0.5,1.4,0.5c0.6,0,1.1-0.2,1.4-0.5
		c0.3-0.3,0.4-0.9,0.4-1.7V597h1v4.5c0,1-0.2,1.7-0.7,2.2c-0.5,0.5-1.2,0.7-2.1,0.7s-1.6-0.2-2.1-0.7c-0.5-0.5-0.7-1.2-0.7-2.2V597"
		/>
	<polyline class="st0" points="82.4,597 83.3,597 83.3,600 86.6,597 87.9,597 84.3,600.4 88.1,604.2 86.8,604.2 83.3,600.7 
		83.3,604.2 82.4,604.2 82.4,597 	"/>
	<line class="st18" x1="46.1" y1="615.4" x2="66.1" y2="615.4"/>
	<polyline class="st0" points="75,611.6 79.2,611.6 79.2,612.5 76,612.5 76,614.6 78.9,614.6 78.9,615.4 76,615.4 76,618.9 
		75,618.9 75,611.6 	"/>
	<path class="st0" d="M83.9,614.3c-0.1-0.1-0.2-0.1-0.3-0.1c-0.1,0-0.2,0-0.4,0c-0.5,0-0.9,0.2-1.2,0.5c-0.3,0.3-0.4,0.8-0.4,1.4
		v2.9h-0.9v-5.5h0.9v0.8c0.2-0.3,0.4-0.6,0.7-0.7c0.3-0.2,0.7-0.2,1.1-0.2c0.1,0,0.1,0,0.2,0c0.1,0,0.1,0,0.2,0V614.3"/>
	<path class="st0" d="M89.1,615.8v3.1h-0.9v-0.8c-0.2,0.3-0.5,0.6-0.8,0.7c-0.3,0.1-0.7,0.2-1.1,0.2c-0.6,0-1-0.2-1.3-0.5
		s-0.5-0.7-0.5-1.3c0-0.6,0.2-1.1,0.6-1.4c0.4-0.3,1-0.5,1.8-0.5h1.3v-0.1c0-0.4-0.1-0.7-0.4-1c-0.3-0.2-0.7-0.3-1.1-0.3
		c-0.3,0-0.6,0-0.9,0.1c-0.3,0.1-0.6,0.2-0.9,0.3v-0.8c0.3-0.1,0.6-0.2,0.9-0.3s0.6-0.1,0.9-0.1c0.8,0,1.4,0.2,1.8,0.6
		C88.9,614.4,89.1,615,89.1,615.8 M87.3,616.2c-0.7,0-1.2,0.1-1.5,0.2c-0.3,0.2-0.4,0.5-0.4,0.8c0,0.3,0.1,0.6,0.3,0.8
		c0.2,0.2,0.5,0.3,0.9,0.3c0.5,0,0.9-0.2,1.2-0.5c0.3-0.3,0.5-0.8,0.5-1.4v-0.2H87.3"/>
	<path class="st0" d="M95.5,615.6v3.3h-0.9v-3.3c0-0.5-0.1-0.9-0.3-1.2s-0.5-0.4-0.9-0.4c-0.5,0-0.9,0.2-1.2,0.5
		c-0.3,0.3-0.4,0.7-0.4,1.3v3.1H91v-5.5h0.9v0.8c0.2-0.3,0.5-0.6,0.8-0.7c0.3-0.2,0.6-0.2,1-0.2c0.6,0,1.1,0.2,1.4,0.6
		S95.5,614.9,95.5,615.6"/>
	<path class="st0" d="M101.3,613.7v0.8c-0.3-0.1-0.5-0.2-0.8-0.3c-0.3-0.1-0.5-0.1-0.8-0.1c-0.6,0-1,0.2-1.4,0.6
		c-0.3,0.4-0.5,0.9-0.5,1.6c0,0.7,0.2,1.2,0.5,1.6c0.3,0.4,0.8,0.5,1.4,0.5c0.3,0,0.5,0,0.8-0.1c0.3-0.1,0.5-0.2,0.8-0.3v0.8
		c-0.3,0.1-0.5,0.2-0.8,0.3c-0.3,0-0.6,0.1-0.9,0.1c-0.8,0-1.5-0.2-2-0.8c-0.5-0.5-0.7-1.2-0.7-2.1c0-0.9,0.2-1.6,0.7-2.1
		c0.5-0.5,1.2-0.8,2-0.8c0.3,0,0.6,0,0.8,0.1S101,613.6,101.3,613.7"/>
	<path class="st0" d="M106.6,615.7c0-0.5-0.1-0.9-0.4-1.2c-0.3-0.3-0.6-0.4-1.1-0.4c-0.5,0-0.9,0.1-1.2,0.4
		c-0.3,0.3-0.5,0.7-0.5,1.2H106.6 M107.5,616v0.4h-4.1c0,0.6,0.2,1.1,0.6,1.4c0.3,0.3,0.8,0.5,1.4,0.5c0.3,0,0.7,0,1-0.1
		c0.3-0.1,0.6-0.2,1-0.4v0.8c-0.3,0.1-0.7,0.2-1,0.3c-0.3,0.1-0.7,0.1-1,0.1c-0.9,0-1.6-0.2-2.1-0.8c-0.5-0.5-0.8-1.2-0.8-2.1
		c0-0.9,0.2-1.6,0.7-2.1c0.5-0.5,1.1-0.8,2-0.8c0.7,0,1.3,0.2,1.8,0.7C107.3,614.5,107.5,615.2,107.5,616"/>
</g>
<rect x="37.8" y="659" class="st19" width="190.3" height="24.4"/>
<text transform="matrix(1 0 0 1 37.8086 668.8902)" class="st20 st21">Data Source: World Bank</text>
<rect x="1108.6" y="502.8" class="st19" width="80.5" height="34.1"/>
<text transform="matrix(1 0 0 1 1108.6483 515.6177)" class="st20 st22">U.S.</text>
</svg>
