<?xml version="1.0" encoding="utf-8"?>
<!-- Generator: Adobe Illustrator 23.0.4, SVG Export Plug-In . SVG Version: 6.00 Build 0)  -->
<svg version="1.1" id="Layer_1" xmlns="http://www.w3.org/2000/svg" xmlns:xlink="http://www.w3.org/1999/xlink" x="0px" y="0px"
	 viewBox="0 0 1337.6 789" style="enable-background:new 0 0 1337.6 789;" xml:space="preserve">
<style type="text/css">
	.st0{clip-path:url(#SVGID_2_);}
	.st1{fill:none;}
	.st2{fill:none;stroke:#000000;stroke-width:0.8;stroke-linejoin:round;}
	.st3{font-family:'ArialMT';}
	.st4{font-size:14px;}
	.st5{clip-path:url(#SVGID_4_);}
	.st6{fill:none;stroke:#E34A33;stroke-width:5;stroke-linecap:square;stroke-linejoin:round;}
	.st7{clip-path:url(#SVGID_6_);}
	.st8{fill:none;stroke:#9ECAE1;stroke-width:5;stroke-linecap:square;stroke-linejoin:round;}
	.st9{clip-path:url(#SVGID_8_);}
	.st10{fill:none;stroke:#08519C;stroke-width:5;stroke-linecap:square;stroke-linejoin:round;}
	.st11{clip-path:url(#SVGID_10_);}
	.st12{fill:none;stroke:#3182BD;stroke-width:5;stroke-linecap:square;stroke-linejoin:round;}
	.st13{fill:none;stroke:#000000;stroke-width:0.8;stroke-linecap:square;stroke-miterlimit:10;}
	.st14{font-size:20px;}
	.st15{font-size:12px;}
	.st16{fill:none;stroke:#000000;stroke-width:2;stroke-miterlimit:10;stroke-dasharray:12;}
	.st17{font-size:14.3113px;}
</style>
<title>Graphic1-Birth Rate</title>
<g>
	<g>
		<g>
			<defs>
				<rect id="SVGID_1_" x="-86.3" y="38.3" width="1440" height="720"/>
			</defs>
			<clipPath id="SVGID_2_">
				<use xlink:href="#SVGID_1_"  style="overflow:visible;"/>
			</clipPath>
			<g class="st0">
				<line class="st1" x1="108.8" y1="668.3" x2="108.8" y2="671.8"/>
				<line class="st2" x1="108.8" y1="668.3" x2="108.8" y2="671.8"/>
				<text transform="matrix(1 0 0 1 96.13 694.93)" class="st3 st4">1958</text>
				<line class="st1" x1="144.4" y1="668.3" x2="144.4" y2="671.8"/>
				<line class="st2" x1="144.4" y1="668.3" x2="144.4" y2="671.8"/>
				<line class="st1" x1="180" y1="668.3" x2="180" y2="671.8"/>
				<line class="st2" x1="180" y1="668.3" x2="180" y2="671.8"/>
				<line class="st1" x1="215.6" y1="668.3" x2="215.6" y2="671.8"/>
				<line class="st2" x1="215.6" y1="668.3" x2="215.6" y2="671.8"/>
				<text transform="matrix(1 0 0 1 202.92 694.93)" class="st3 st4">1964</text>
				<line class="st1" x1="251.2" y1="668.3" x2="251.2" y2="671.8"/>
				<line class="st2" x1="251.2" y1="668.3" x2="251.2" y2="671.8"/>
				<line class="st1" x1="286.8" y1="668.3" x2="286.8" y2="671.8"/>
				<line class="st2" x1="286.8" y1="668.3" x2="286.8" y2="671.8"/>
				<line class="st1" x1="322.4" y1="668.3" x2="322.4" y2="671.8"/>
				<line class="st2" x1="322.4" y1="668.3" x2="322.4" y2="671.8"/>
				<text transform="matrix(1 0 0 1 309.72 694.93)" class="st3 st4">1970</text>
				<line class="st1" x1="358" y1="668.3" x2="358" y2="671.8"/>
				<line class="st2" x1="358" y1="668.3" x2="358" y2="671.8"/>
				<line class="st1" x1="393.6" y1="668.3" x2="393.6" y2="671.8"/>
				<line class="st2" x1="393.6" y1="668.3" x2="393.6" y2="671.8"/>
				<line class="st1" x1="429.2" y1="668.3" x2="429.2" y2="671.8"/>
				<line class="st2" x1="429.2" y1="668.3" x2="429.2" y2="671.8"/>
				<text transform="matrix(1 0 0 1 416.51 694.93)" class="st3 st4">1976</text>
				<line class="st1" x1="464.8" y1="668.3" x2="464.8" y2="671.8"/>
				<line class="st2" x1="464.8" y1="668.3" x2="464.8" y2="671.8"/>
				<line class="st1" x1="500.4" y1="668.3" x2="500.4" y2="671.8"/>
				<line class="st2" x1="500.4" y1="668.3" x2="500.4" y2="671.8"/>
				<line class="st1" x1="536" y1="668.3" x2="536" y2="671.8"/>
				<line class="st2" x1="536" y1="668.3" x2="536" y2="671.8"/>
				<text transform="matrix(1 0 0 1 523.31 694.93)" class="st3 st4">1982</text>
				<line class="st1" x1="571.6" y1="668.3" x2="571.6" y2="671.8"/>
				<line class="st2" x1="571.6" y1="668.3" x2="571.6" y2="671.8"/>
				<line class="st1" x1="607.2" y1="668.3" x2="607.2" y2="671.8"/>
				<line class="st2" x1="607.2" y1="668.3" x2="607.2" y2="671.8"/>
				<line class="st1" x1="642.8" y1="668.3" x2="642.8" y2="671.8"/>
				<line class="st2" x1="642.8" y1="668.3" x2="642.8" y2="671.8"/>
				<text transform="matrix(1 0 0 1 630.1 694.93)" class="st3 st4">1988</text>
				<line class="st1" x1="678.4" y1="668.3" x2="678.4" y2="671.8"/>
				<line class="st2" x1="678.4" y1="668.3" x2="678.4" y2="671.8"/>
				<line class="st1" x1="714" y1="668.3" x2="714" y2="671.8"/>
				<line class="st2" x1="714" y1="668.3" x2="714" y2="671.8"/>
				<line class="st1" x1="749.6" y1="668.3" x2="749.6" y2="671.8"/>
				<line class="st2" x1="749.6" y1="668.3" x2="749.6" y2="671.8"/>
				<text transform="matrix(1 0 0 1 736.89 694.93)" class="st3 st4">1994</text>
				<line class="st1" x1="785.2" y1="668.3" x2="785.2" y2="671.8"/>
				<line class="st2" x1="785.2" y1="668.3" x2="785.2" y2="671.8"/>
				<line class="st1" x1="820.8" y1="668.3" x2="820.8" y2="671.8"/>
				<line class="st2" x1="820.8" y1="668.3" x2="820.8" y2="671.8"/>
				<line class="st1" x1="856.4" y1="668.3" x2="856.4" y2="671.8"/>
				<line class="st2" x1="856.4" y1="668.3" x2="856.4" y2="671.8"/>
				<text transform="matrix(1 0 0 1 843.6899 694.93)" class="st3 st4">2000</text>
				<line class="st1" x1="892" y1="668.3" x2="892" y2="671.8"/>
				<line class="st2" x1="892" y1="668.3" x2="892" y2="671.8"/>
				<line class="st1" x1="927.6" y1="668.3" x2="927.6" y2="671.8"/>
				<line class="st2" x1="927.6" y1="668.3" x2="927.6" y2="671.8"/>
				<line class="st1" x1="963.2" y1="668.3" x2="963.2" y2="671.8"/>
				<line class="st2" x1="963.2" y1="668.3" x2="963.2" y2="671.8"/>
				<text transform="matrix(1 0 0 1 950.48 694.93)" class="st3 st4">2006</text>
				<line class="st1" x1="998.8" y1="668.3" x2="998.8" y2="671.8"/>
				<line class="st2" x1="998.8" y1="668.3" x2="998.8" y2="671.8"/>
				<line class="st1" x1="1034.4" y1="668.3" x2="1034.4" y2="671.8"/>
				<line class="st2" x1="1034.4" y1="668.3" x2="1034.4" y2="671.8"/>
				<line class="st1" x1="1070" y1="668.3" x2="1070" y2="671.8"/>
				<line class="st2" x1="1070" y1="668.3" x2="1070" y2="671.8"/>
				<line class="st1" x1="1105.6" y1="668.3" x2="1105.6" y2="671.8"/>
				<line class="st2" x1="1105.6" y1="668.3" x2="1105.6" y2="671.8"/>
				<text transform="matrix(1 0 0 1 1085.88 694.9303)" class="st3 st4">2014</text>
				<line class="st1" x1="1141.2" y1="668.3" x2="1141.2" y2="671.8"/>
				<line class="st2" x1="1141.2" y1="668.3" x2="1141.2" y2="671.8"/>
				<text transform="matrix(1 0 0 1 1133.3003 694.9299)" class="st3 st4">2016</text>
				<line class="st1" x1="1176.8" y1="668.3" x2="1176.8" y2="671.8"/>
				<line class="st2" x1="1176.8" y1="668.3" x2="1176.8" y2="671.8"/>
				<line class="st1" x1="93.7" y1="610.5" x2="90.2" y2="610.5"/>
				<line class="st2" x1="93.7" y1="610.5" x2="90.2" y2="610.5"/>
				<text transform="matrix(1 0 0 1 62 614.27)" class="st3 st4">10</text>
				<line class="st1" x1="93.7" y1="541.4" x2="90.2" y2="541.4"/>
				<line class="st2" x1="93.7" y1="541.4" x2="90.2" y2="541.4"/>
				<text transform="matrix(1 0 0 1 62 545.19)" class="st3 st4">15</text>
				<line class="st1" x1="93.7" y1="472.3" x2="90.2" y2="472.3"/>
				<line class="st2" x1="93.7" y1="472.3" x2="90.2" y2="472.3"/>
				<text transform="matrix(1 0 0 1 62 476.12)" class="st3 st4">20</text>
				<line class="st1" x1="93.7" y1="403.2" x2="90.2" y2="403.2"/>
				<line class="st2" x1="93.7" y1="403.2" x2="90.2" y2="403.2"/>
				<text transform="matrix(1 0 0 1 62 407.04)" class="st3 st4">25</text>
				<line class="st1" x1="93.7" y1="334.2" x2="90.2" y2="334.2"/>
				<line class="st2" x1="93.7" y1="334.2" x2="90.2" y2="334.2"/>
				<text transform="matrix(1 0 0 1 62 337.96)" class="st3 st4">30</text>
				<line class="st1" x1="93.7" y1="265.1" x2="90.2" y2="265.1"/>
				<line class="st2" x1="93.7" y1="265.1" x2="90.2" y2="265.1"/>
				<text transform="matrix(1 0 0 1 62 268.88)" class="st3 st4">35</text>
				<line class="st1" x1="93.7" y1="196" x2="90.2" y2="196"/>
				<line class="st2" x1="93.7" y1="196" x2="90.2" y2="196"/>
				<text transform="matrix(1 0 0 1 62 199.8)" class="st3 st4">40</text>
				<line class="st1" x1="93.7" y1="126.9" x2="90.2" y2="126.9"/>
				<line class="st2" x1="93.7" y1="126.9" x2="90.2" y2="126.9"/>
				<text transform="matrix(1 0 0 1 62 130.73)" class="st3 st4">45</text>
				<g>
					<g>
						<g>
							<defs>
								<rect id="SVGID_3_" x="93.7" y="124.7" width="1116" height="543.6"/>
							</defs>
							<clipPath id="SVGID_4_">
								<use xlink:href="#SVGID_3_"  style="overflow:visible;"/>
							</clipPath>
							<g class="st5">
								<polyline class="st6" points="144.4,460.4 162.2,499.7 180,237.3 197.8,149.5 215.6,207.9 233.4,225.3 251.2,264.4 
									269,279.4 286.8,256.9 304.6,277.4 322.4,286.8 340.2,325.2 358,337.3 375.8,362.8 393.6,405.7 411.4,430.7 429.2,473.6 
									447,487.1 464.8,496.5 482.6,502.4 500.4,497 518.2,459.8 536,440.8 553.8,469.7 571.6,473.7 589.4,458 607.2,438.8 
									625,426.3 642.8,439.6 660.6,450.5 678.4,457.7 696.2,476.7 714,496.2 731.8,498.7 749.6,504.1 767.4,512.1 785.2,514 
									803,519.7 820.8,532.5 838.6,546.4 856.4,554.8 874.2,563.8 892,571 909.8,577.2 927.6,578.8 945.4,577.3 963.2,581.6 
									981,581.5 998.8,580.9 1016.6,581 1034.4,584.2 1052.2,583.8 1070,581.5 1087.8,581.7 1105.6,577.7 1123.4,581.9 
									1141.2,569.7 1159,576.9 								"/>
							</g>
						</g>
					</g>
				</g>
				<g>
					<g>
						<g>
							<defs>
								<rect id="SVGID_5_" x="93.7" y="124.7" width="1116" height="543.6"/>
							</defs>
							<clipPath id="SVGID_6_">
								<use xlink:href="#SVGID_5_"  style="overflow:visible;"/>
							</clipPath>
							<g class="st7">
								<polyline class="st8" points="144.4,509.6 162.2,513.8 180,512.4 197.8,508.2 215.6,502.7 233.4,490.3 251.2,558 269,480.6 
									286.8,490.3 304.6,493 322.4,490.3 340.2,484.8 358,483.4 375.8,480.6 393.6,494.4 411.4,513.8 429.2,524.8 447,535.9 
									464.8,544.2 482.6,553.8 500.4,562.1 518.2,569 536,571.8 553.8,573.2 571.6,575.9 589.4,584.2 607.2,591.1 625,595.3 
									642.8,599.4 660.6,607.7 678.4,610.5 696.2,611.9 714,613.2 731.8,616 749.6,610.5 767.4,616.8 785.2,616 803,617.4 
									820.8,616 838.6,620.1 856.4,618.8 874.2,620.1 892,620.1 909.8,621.5 927.6,628.6 945.4,632.4 963.2,629.1 981,629.4 
									998.8,628.4 1016.6,631.2 1034.4,631.2 1052.2,634 1070,635.3 1087.8,635.3 1105.6,638.1 1123.4,638.1 1141.2,640.9 
									1159,643.6 								"/>
							</g>
						</g>
					</g>
				</g>
				<g>
					<g>
						<g>
							<defs>
								<rect id="SVGID_7_" x="93.7" y="124.7" width="1116" height="543.6"/>
							</defs>
							<clipPath id="SVGID_8_">
								<use xlink:href="#SVGID_7_"  style="overflow:visible;"/>
							</clipPath>
							<g class="st9">
								<polyline class="st10" points="144.4,309.3 162.2,319.2 180,266.1 197.8,249.8 215.6,265.1 233.4,273.6 251.2,287.9 
									269,291.6 286.8,289.5 304.6,296.7 322.4,300.7 340.2,311.8 358,318.7 375.8,327.2 393.6,339 411.4,347.7 429.2,359.2 
									447,363.9 464.8,367.6 482.6,369.5 500.4,369.5 518.2,363.2 536,360.4 553.8,368.8 571.6,372.4 589.4,372 607.2,371 
									625,371.9 642.8,378.5 660.6,385.7 678.4,391.2 696.2,400.5 714,409.2 731.8,414.9 749.6,420.1 767.4,426 785.2,430 
									803,434.7 820.8,440.4 838.6,446.4 856.4,449.9 874.2,454.6 892,458.1 909.8,461 927.6,463.1 945.4,464.9 963.2,466.8 
									981,467.9 998.8,469.3 1016.6,471.6 1034.4,474.5 1052.2,476.9 1070,478.3 1087.8,481 1105.6,482.1 1123.4,485.2 
									1141.2,485.4 1159,489.9 								"/>
							</g>
						</g>
					</g>
				</g>
				<g>
					<g>
						<g>
							<defs>
								<rect id="SVGID_9_" x="93.7" y="124.7" width="1116" height="543.6"/>
							</defs>
							<clipPath id="SVGID_10_">
								<use xlink:href="#SVGID_9_"  style="overflow:visible;"/>
							</clipPath>
							<g class="st11">
								<polyline class="st12" points="144.4,274.9 162.2,288.3 180,210.4 197.8,187.2 215.6,209 233.4,218.5 251.2,234.4 
									269,241.3 286.8,237.9 304.6,247.7 322.4,253.8 340.2,268.7 358,275.2 375.8,285.8 393.6,301.6 411.4,311.9 429.2,327.4 
									447,333.6 464.8,338.3 482.6,342.2 500.4,342.6 518.2,333.3 536,330 553.8,340.9 571.6,345.6 589.4,345.1 607.2,343.1 
									625,344.7 642.8,354.5 660.6,364 678.4,372.2 696.2,384 714,395.2 731.8,401.7 749.6,408.2 767.4,415.4 785.2,420.5 
									803,426.3 820.8,433.6 838.6,441.1 856.4,446.4 874.2,451.6 892,455.7 909.8,459.8 927.6,462.2 945.4,464.3 963.2,467.5 
									981,469.3 998.8,470.9 1016.6,473.1 1034.4,476.3 1052.2,478.8 1070,480.3 1087.8,483 1105.6,484.3 1123.4,487.9 
									1141.2,487.9 1159,492.6 								"/>
							</g>
						</g>
					</g>
				</g>
				<line class="st13" x1="93.7" y1="668.3" x2="93.7" y2="124.7"/>
				<line class="st13" x1="93.7" y1="668.3" x2="1209.7" y2="668.3"/>
				<text transform="matrix(1 0 0 1 505.22 82.74)" class="st3 st14">Birth Rate (Per 1,000 people)</text>
				<line class="st6" x1="96.1" y1="712.9" x2="116.1" y2="712.9"/>
				<text transform="matrix(1 0 0 1 127 717.9999)" class="st3 st15">China</text>
				<line class="st8" x1="176.5" y1="712.9" x2="196.5" y2="712.9"/>
				<text transform="matrix(1 0 0 1 202.92 718.0001)" class="st3 st15">Japan</text>
				<line class="st10" x1="259.7" y1="712.9" x2="279.7" y2="712.9"/>
				<text transform="matrix(1 0 0 1 286.8 717.9997)" class="st3 st15">World</text>
				<line class="st12" x1="338.1" y1="712.9" x2="358.1" y2="712.9"/>
				<text transform="matrix(1 0 0 1 367.5 717.9996)" class="st3 st15">Middle Income Countries</text>
			</g>
		</g>
	</g>
</g>
<line class="st16" x1="322.6" y1="668.3" x2="322.6" y2="203.3"/>
<line class="st16" x1="1105.6" y1="668.3" x2="1105.7" y2="501.8"/>
<line class="st16" x1="1141.2" y1="668.3" x2="1140.3" y2="514.4"/>
<text transform="matrix(1 0 0 1 289.92 193.08)" class="st3 st4"> </text>
<rect x="250.9" y="170.6" class="st1" width="194.5" height="45"/>
<text transform="matrix(1 0 0 1 250.9004 197.3396)" class="st3 st4">China starts “One Child” policy</text>
<rect x="103.3" y="701.1" class="st1" width="166.4" height="23.6"/>
<text transform="matrix(0.9662 0 0 1 98.2891 747.3525)" class="st3 st17">Source: World Bank</text>
<rect x="964" y="503" class="st1" width="144.9" height="78.5"/>
<text transform="matrix(1 0 0 1 964.0457 513.0518)" class="st3 st4">First step of easing </text>
<text transform="matrix(1 0 0 1 964.0457 529.8518)" class="st3 st4">“One Child” policy.</text>
<rect x="1169.1" y="507.6" class="st1" width="144.9" height="78.5"/>
<text transform="matrix(1 0 0 1 1169.0753 517.6443)" class="st3 st4">“One Child” policy </text>
<text transform="matrix(1 0 0 1 1169.0753 534.4443)" class="st3 st4">cancelled. </text>
<text transform="matrix(1 0 0 1 195.5107 110.6333)" class="st3 st4">Like the world, China experienced birth rate drop in the past half of century. Abolishment of “One Child” policy did not make a big difference as expected. </text>
</svg>
